<svg width="412" height="917" viewBox="0 0 412 917" fill="none" xmlns="http://www.w3.org/2000/svg">
<rect width="412" height="917" fill="#1B7BAB"/>
<path d="M269.578 275.919H256.798V256.749C256.788 248.278 253.419 240.158 247.429 234.168C241.44 228.179 233.319 224.809 224.849 224.799H186.509C178.038 224.809 169.918 228.179 163.928 234.168C157.939 240.158 154.569 248.278 154.559 256.749V275.919H141.779V256.749C141.793 244.89 146.51 233.521 154.895 225.135C163.281 216.75 174.65 212.033 186.509 212.019H224.849C236.707 212.033 248.077 216.75 256.462 225.135C264.848 233.521 269.565 244.89 269.578 256.749V275.919Z" fill="white"/>
<path d="M135.39 122.56C133.695 122.56 132.07 123.233 130.872 124.432C129.673 125.63 129 127.255 129 128.95V186.46H141.78V128.95C141.78 127.255 141.107 125.63 139.908 124.432C138.71 123.233 137.085 122.56 135.39 122.56Z" fill="white"/>
<path d="M129 97V109.78H160.95V154.51C160.95 166.373 165.662 177.75 174.051 186.138C182.439 194.527 193.816 199.239 205.679 199.239C217.542 199.239 228.92 194.527 237.308 186.138C245.696 177.75 250.409 166.373 250.409 154.51V109.78H282.359V97H129ZM173.73 109.78H237.629V128.95H173.73V109.78ZM205.679 186.459C197.206 186.459 189.079 183.093 183.087 177.101C177.096 171.11 173.73 162.983 173.73 154.51V141.73H237.629V154.51C237.629 162.983 234.263 171.11 228.271 177.101C222.279 183.093 214.153 186.459 205.679 186.459Z" fill="white"/>
<path d="M146.697 286.28C147.177 287.16 147.723 288.253 148.337 289.56C148.977 290.84 149.63 292.24 150.297 293.76C150.99 295.253 151.67 296.787 152.337 298.36C153.003 299.933 153.63 301.413 154.217 302.8C154.803 301.413 155.43 299.933 156.097 298.36C156.763 296.787 157.43 295.253 158.097 293.76C158.79 292.24 159.443 290.84 160.057 289.56C160.697 288.253 161.257 287.16 161.737 286.28H167.417C167.683 288.12 167.923 290.187 168.137 292.48C168.377 294.747 168.577 297.12 168.737 299.6C168.923 302.053 169.083 304.52 169.217 307C169.377 309.48 169.51 311.813 169.617 314H163.537C163.457 311.307 163.35 308.373 163.217 305.2C163.083 302.027 162.883 298.827 162.617 295.6C162.137 296.72 161.603 297.96 161.017 299.32C160.43 300.68 159.843 302.04 159.257 303.4C158.697 304.76 158.15 306.067 157.617 307.32C157.083 308.547 156.63 309.6 156.257 310.48H151.897C151.523 309.6 151.07 308.547 150.537 307.32C150.003 306.067 149.443 304.76 148.857 303.4C148.297 302.04 147.723 300.68 147.137 299.32C146.55 297.96 146.017 296.72 145.537 295.6C145.27 298.827 145.07 302.027 144.937 305.2C144.803 308.373 144.697 311.307 144.617 314H138.537C138.643 311.813 138.763 309.48 138.897 307C139.057 304.52 139.217 302.053 139.377 299.6C139.563 297.12 139.763 294.747 139.977 292.48C140.217 290.187 140.47 288.12 140.737 286.28H146.697ZM182.875 309.84C183.462 309.84 184.022 309.827 184.555 309.8C185.088 309.773 185.515 309.733 185.835 309.68V305.16C185.595 305.107 185.235 305.053 184.755 305C184.275 304.947 183.835 304.92 183.435 304.92C182.875 304.92 182.342 304.96 181.835 305.04C181.355 305.093 180.928 305.213 180.555 305.4C180.182 305.587 179.888 305.84 179.675 306.16C179.462 306.48 179.355 306.88 179.355 307.36C179.355 308.293 179.662 308.947 180.275 309.32C180.915 309.667 181.782 309.84 182.875 309.84ZM182.395 292.4C184.155 292.4 185.622 292.6 186.795 293C187.968 293.4 188.902 293.973 189.595 294.72C190.315 295.467 190.822 296.373 191.115 297.44C191.408 298.507 191.555 299.693 191.555 301V313.4C190.702 313.587 189.515 313.8 187.995 314.04C186.475 314.307 184.635 314.44 182.475 314.44C181.115 314.44 179.875 314.32 178.755 314.08C177.662 313.84 176.715 313.453 175.915 312.92C175.115 312.36 174.502 311.64 174.075 310.76C173.648 309.88 173.435 308.8 173.435 307.52C173.435 306.293 173.675 305.253 174.155 304.4C174.662 303.547 175.328 302.867 176.155 302.36C176.982 301.853 177.928 301.493 178.995 301.28C180.062 301.04 181.168 300.92 182.315 300.92C183.088 300.92 183.768 300.96 184.355 301.04C184.968 301.093 185.462 301.173 185.835 301.28V300.72C185.835 299.707 185.528 298.893 184.915 298.28C184.302 297.667 183.235 297.36 181.715 297.36C180.702 297.36 179.702 297.44 178.715 297.6C177.728 297.733 176.875 297.933 176.155 298.2L175.395 293.4C175.742 293.293 176.168 293.187 176.675 293.08C177.208 292.947 177.782 292.84 178.395 292.76C179.008 292.653 179.648 292.573 180.315 292.52C181.008 292.44 181.702 292.4 182.395 292.4ZM209.625 298.24C209.091 298.107 208.465 297.973 207.745 297.84C207.025 297.68 206.251 297.6 205.425 297.6C205.051 297.6 204.598 297.64 204.065 297.72C203.558 297.773 203.171 297.84 202.905 297.92V314H196.945V294.08C198.011 293.707 199.265 293.36 200.705 293.04C202.171 292.693 203.798 292.52 205.585 292.52C205.905 292.52 206.291 292.547 206.745 292.6C207.198 292.627 207.651 292.68 208.105 292.76C208.558 292.813 209.011 292.893 209.465 293C209.918 293.08 210.305 293.187 210.625 293.32L209.625 298.24ZM218.509 302.8C218.509 306.133 219.856 307.8 222.549 307.8C223.162 307.8 223.736 307.72 224.269 307.56C224.802 307.4 225.256 307.213 225.629 307V297.48C225.336 297.427 224.989 297.387 224.589 297.36C224.189 297.307 223.722 297.28 223.189 297.28C221.616 297.28 220.442 297.8 219.669 298.84C218.896 299.88 218.509 301.2 218.509 302.8ZM231.589 311.36C231.589 314.8 230.709 317.347 228.949 319C227.216 320.68 224.522 321.52 220.869 321.52C219.589 321.52 218.309 321.4 217.029 321.16C215.749 320.947 214.562 320.653 213.469 320.28L214.509 315.28C215.442 315.653 216.416 315.947 217.429 316.16C218.469 316.373 219.642 316.48 220.949 316.48C222.656 316.48 223.856 316.107 224.549 315.36C225.269 314.613 225.629 313.653 225.629 312.48V311.72C224.989 312.013 224.322 312.24 223.629 312.4C222.962 312.533 222.229 312.6 221.429 312.6C218.522 312.6 216.296 311.747 214.749 310.04C213.202 308.307 212.429 305.893 212.429 302.8C212.429 301.253 212.669 299.853 213.149 298.6C213.629 297.32 214.322 296.227 215.229 295.32C216.162 294.413 217.296 293.72 218.629 293.24C219.962 292.733 221.469 292.48 223.149 292.48C223.869 292.48 224.602 292.52 225.349 292.6C226.122 292.653 226.882 292.733 227.629 292.84C228.376 292.947 229.082 293.08 229.749 293.24C230.442 293.373 231.056 293.52 231.589 293.68V311.36ZM256.139 314C255.846 313.04 255.512 312.053 255.139 311.04C254.792 310.027 254.446 309.013 254.099 308H243.299C242.952 309.013 242.592 310.027 242.219 311.04C241.872 312.053 241.552 313.04 241.259 314H234.779C235.819 311.013 236.806 308.253 237.739 305.72C238.672 303.187 239.579 300.8 240.459 298.56C241.366 296.32 242.246 294.2 243.099 292.2C243.979 290.173 244.886 288.2 245.819 286.28H251.779C252.686 288.2 253.579 290.173 254.459 292.2C255.339 294.2 256.219 296.32 257.099 298.56C258.006 300.8 258.926 303.187 259.859 305.72C260.792 308.253 261.779 311.013 262.819 314H256.139ZM248.659 292.56C248.526 292.96 248.326 293.507 248.059 294.2C247.792 294.893 247.486 295.693 247.139 296.6C246.792 297.507 246.406 298.507 245.979 299.6C245.579 300.693 245.166 301.84 244.739 303.04H252.619C252.192 301.84 251.779 300.693 251.379 299.6C250.979 298.507 250.592 297.507 250.219 296.6C249.872 295.693 249.566 294.893 249.299 294.2C249.032 293.507 248.819 292.96 248.659 292.56ZM266.407 286.28H272.647V314H266.407V286.28Z" fill="white"/>
<g clip-path="url(#clip0_37_4488)">
<path d="M0 439C0 410.281 23.2812 387 52 387H360C388.719 387 412 410.281 412 439V917H0V439Z" fill="white"/>
<path d="M114.956 465V447.5H126.406V449.65H117.231V454.975H125.631V457.15H117.231V465H114.956ZM133.721 465.275C132.621 465.275 131.638 465.017 130.771 464.5C129.921 463.967 129.246 463.225 128.746 462.275C128.263 461.325 128.021 460.225 128.021 458.975C128.021 457.725 128.263 456.633 128.746 455.7C129.246 454.75 129.921 454.017 130.771 453.5C131.638 452.967 132.621 452.7 133.721 452.7C134.821 452.7 135.796 452.967 136.646 453.5C137.513 454.017 138.188 454.75 138.671 455.7C139.171 456.633 139.421 457.725 139.421 458.975C139.421 460.225 139.171 461.325 138.671 462.275C138.188 463.225 137.513 463.967 136.646 464.5C135.796 465.017 134.821 465.275 133.721 465.275ZM133.721 463.225C134.738 463.225 135.563 462.85 136.196 462.1C136.846 461.333 137.171 460.292 137.171 458.975C137.171 457.658 136.846 456.625 136.196 455.875C135.563 455.125 134.738 454.75 133.721 454.75C132.704 454.75 131.871 455.125 131.221 455.875C130.588 456.625 130.271 457.658 130.271 458.975C130.271 460.292 130.588 461.333 131.221 462.1C131.871 462.85 132.704 463.225 133.721 463.225ZM142.123 465V453H144.173L144.298 454.875C144.632 454.225 145.132 453.7 145.798 453.3C146.482 452.9 147.215 452.7 147.998 452.7C148.265 452.7 148.515 452.717 148.748 452.75C148.982 452.783 149.182 452.817 149.348 452.85V455.025C149.165 454.975 148.932 454.933 148.648 454.9C148.365 454.867 148.057 454.85 147.723 454.85C146.79 454.85 145.998 455.158 145.348 455.775C144.698 456.375 144.373 457.167 144.373 458.15V465H142.123ZM156.421 470.175C154.088 470.175 152.346 469.258 151.196 467.425L152.996 466.2C153.746 467.467 154.888 468.1 156.421 468.1C157.504 468.1 158.321 467.75 158.871 467.05C159.421 466.367 159.696 465.3 159.696 463.85V462.525C159.296 463.025 158.804 463.417 158.221 463.7C157.654 463.983 157.021 464.125 156.321 464.125C155.288 464.125 154.363 463.9 153.546 463.45C152.729 463 152.088 462.35 151.621 461.5C151.171 460.633 150.946 459.6 150.946 458.4C150.946 457.183 151.171 456.158 151.621 455.325C152.088 454.475 152.729 453.825 153.546 453.375C154.363 452.925 155.288 452.7 156.321 452.7C157.054 452.7 157.721 452.858 158.321 453.175C158.938 453.475 159.454 453.9 159.871 454.45L159.946 453H161.921V463.85C161.921 465.917 161.446 467.483 160.496 468.55C159.563 469.633 158.204 470.175 156.421 470.175ZM156.471 462.15C157.454 462.15 158.263 461.808 158.896 461.125C159.529 460.442 159.846 459.533 159.846 458.4C159.846 457.267 159.529 456.367 158.896 455.7C158.263 455.033 157.454 454.7 156.471 454.7C155.504 454.7 154.713 455.033 154.096 455.7C153.496 456.367 153.196 457.267 153.196 458.4C153.196 459.533 153.496 460.442 154.096 461.125C154.713 461.808 155.504 462.15 156.471 462.15ZM170.342 465.275C169.242 465.275 168.259 465.017 167.392 464.5C166.542 463.967 165.867 463.225 165.367 462.275C164.884 461.325 164.642 460.225 164.642 458.975C164.642 457.725 164.884 456.633 165.367 455.7C165.867 454.75 166.542 454.017 167.392 453.5C168.259 452.967 169.242 452.7 170.342 452.7C171.442 452.7 172.417 452.967 173.267 453.5C174.134 454.017 174.809 454.75 175.292 455.7C175.792 456.633 176.042 457.725 176.042 458.975C176.042 460.225 175.792 461.325 175.292 462.275C174.809 463.225 174.134 463.967 173.267 464.5C172.417 465.017 171.442 465.275 170.342 465.275ZM170.342 463.225C171.359 463.225 172.184 462.85 172.817 462.1C173.467 461.333 173.792 460.292 173.792 458.975C173.792 457.658 173.467 456.625 172.817 455.875C172.184 455.125 171.359 454.75 170.342 454.75C169.326 454.75 168.492 455.125 167.842 455.875C167.209 456.625 166.892 457.658 166.892 458.975C166.892 460.292 167.209 461.333 167.842 462.1C168.492 462.85 169.326 463.225 170.342 463.225ZM183.544 465.275C182.411 465.275 181.553 465.058 180.969 464.625C180.386 464.175 180.094 463.325 180.094 462.075V454.95H177.669V453H180.094V448.7H182.319V453H185.794V454.95H182.319V461.6C182.319 462.25 182.461 462.692 182.744 462.925C183.044 463.142 183.486 463.25 184.069 463.25C184.369 463.25 184.678 463.208 184.994 463.125C185.328 463.025 185.594 462.925 185.794 462.825V464.9C185.528 465.017 185.186 465.108 184.769 465.175C184.353 465.242 183.944 465.275 183.544 465.275ZM195.523 465V447.5H203.348C204.998 447.5 206.273 447.883 207.173 448.65C208.089 449.417 208.548 450.633 208.548 452.3C208.548 453.983 208.089 455.217 207.173 456C206.273 456.783 204.998 457.175 203.348 457.175H197.798V465H195.523ZM197.798 455H203.073C204.073 455 204.831 454.792 205.348 454.375C205.881 453.942 206.148 453.25 206.148 452.3C206.148 451.367 205.881 450.692 205.348 450.275C204.831 449.858 204.073 449.65 203.073 449.65H197.798V455ZM214.62 465.2C213.403 465.233 212.395 464.958 211.595 464.375C210.811 463.775 210.42 462.917 210.42 461.8C210.42 460.983 210.678 460.275 211.195 459.675C211.728 459.075 212.403 458.608 213.22 458.275C214.053 457.925 214.911 457.75 215.795 457.75C216.311 457.717 216.786 457.767 217.22 457.9C217.653 458.017 218.028 458.192 218.345 458.425V456.925C218.345 455.992 218.145 455.383 217.745 455.1C217.361 454.817 216.761 454.675 215.945 454.675C215.245 454.675 214.495 454.8 213.695 455.05C212.911 455.3 212.245 455.617 211.695 456L210.645 454.25C211.328 453.817 212.136 453.45 213.07 453.15C214.02 452.85 214.978 452.7 215.945 452.7C217.478 452.7 218.62 453.008 219.37 453.625C220.12 454.225 220.495 455.325 220.495 456.925V462.95C220.495 463.267 220.578 463.45 220.745 463.5C220.911 463.55 221.286 463.508 221.87 463.375V464.825C221.653 464.908 221.378 464.992 221.045 465.075C220.711 465.158 220.37 465.2 220.02 465.2C219.486 465.2 219.103 465.1 218.87 464.9C218.636 464.7 218.478 464.342 218.395 463.825C217.945 464.275 217.378 464.608 216.695 464.825C216.011 465.042 215.32 465.167 214.62 465.2ZM214.645 463.225C215.345 463.208 215.978 463.108 216.545 462.925C217.128 462.725 217.586 462.45 217.92 462.1C218.253 461.733 218.403 461.3 218.37 460.8C218.336 460.333 218.095 460 217.645 459.8C217.211 459.6 216.653 459.517 215.97 459.55C215.353 459.567 214.786 459.683 214.27 459.9C213.753 460.1 213.336 460.367 213.02 460.7C212.72 461.033 212.57 461.408 212.57 461.825C212.586 462.292 212.778 462.65 213.145 462.9C213.511 463.133 214.011 463.242 214.645 463.225ZM228.624 465.25C227.607 465.25 226.657 465.067 225.774 464.7C224.89 464.333 224.14 463.767 223.524 463L224.999 461.55C225.899 462.7 227.14 463.275 228.724 463.275C229.457 463.275 230.04 463.142 230.474 462.875C230.907 462.608 231.124 462.167 231.124 461.55C231.124 461.05 230.899 460.683 230.449 460.45C229.999 460.2 229.199 459.967 228.049 459.75C227.299 459.6 226.624 459.4 226.024 459.15C225.44 458.9 224.974 458.542 224.624 458.075C224.274 457.592 224.099 456.967 224.099 456.2C224.099 455.467 224.299 454.842 224.699 454.325C225.099 453.792 225.624 453.383 226.274 453.1C226.94 452.817 227.674 452.675 228.474 452.675C230.424 452.675 231.907 453.3 232.924 454.55L231.599 456.075C231.232 455.592 230.782 455.242 230.249 455.025C229.715 454.792 229.132 454.675 228.499 454.675C227.782 454.675 227.249 454.825 226.899 455.125C226.549 455.408 226.374 455.75 226.374 456.15C226.374 456.617 226.574 456.958 226.974 457.175C227.374 457.392 228.099 457.617 229.149 457.85C229.982 458.033 230.715 458.275 231.349 458.575C231.999 458.875 232.499 459.267 232.849 459.75C233.215 460.233 233.399 460.858 233.399 461.625C233.399 462.775 232.957 463.667 232.074 464.3C231.207 464.933 230.057 465.25 228.624 465.25ZM240.123 465.25C239.106 465.25 238.156 465.067 237.273 464.7C236.389 464.333 235.639 463.767 235.023 463L236.498 461.55C237.398 462.7 238.639 463.275 240.223 463.275C240.956 463.275 241.539 463.142 241.973 462.875C242.406 462.608 242.623 462.167 242.623 461.55C242.623 461.05 242.398 460.683 241.948 460.45C241.498 460.2 240.698 459.967 239.548 459.75C238.798 459.6 238.123 459.4 237.523 459.15C236.939 458.9 236.473 458.542 236.123 458.075C235.773 457.592 235.598 456.967 235.598 456.2C235.598 455.467 235.798 454.842 236.198 454.325C236.598 453.792 237.123 453.383 237.773 453.1C238.439 452.817 239.173 452.675 239.973 452.675C241.923 452.675 243.406 453.3 244.423 454.55L243.098 456.075C242.731 455.592 242.281 455.242 241.748 455.025C241.214 454.792 240.631 454.675 239.998 454.675C239.281 454.675 238.748 454.825 238.398 455.125C238.048 455.408 237.873 455.75 237.873 456.15C237.873 456.617 238.073 456.958 238.473 457.175C238.873 457.392 239.598 457.617 240.648 457.85C241.481 458.033 242.214 458.275 242.848 458.575C243.498 458.875 243.998 459.267 244.348 459.75C244.714 460.233 244.898 460.858 244.898 461.625C244.898 462.775 244.456 463.667 243.573 464.3C242.706 464.933 241.556 465.25 240.123 465.25ZM249.433 465L245.833 453H247.983L250.433 461.7L252.883 453H254.708L257.158 461.7L259.633 453H261.783L258.158 465H256.283L253.808 456.25L251.333 465H249.433ZM268.584 465.275C267.484 465.275 266.501 465.017 265.634 464.5C264.784 463.967 264.109 463.225 263.609 462.275C263.126 461.325 262.884 460.225 262.884 458.975C262.884 457.725 263.126 456.633 263.609 455.7C264.109 454.75 264.784 454.017 265.634 453.5C266.501 452.967 267.484 452.7 268.584 452.7C269.684 452.7 270.659 452.967 271.509 453.5C272.376 454.017 273.051 454.75 273.534 455.7C274.034 456.633 274.284 457.725 274.284 458.975C274.284 460.225 274.034 461.325 273.534 462.275C273.051 463.225 272.376 463.967 271.509 464.5C270.659 465.017 269.684 465.275 268.584 465.275ZM268.584 463.225C269.601 463.225 270.426 462.85 271.059 462.1C271.709 461.333 272.034 460.292 272.034 458.975C272.034 457.658 271.709 456.625 271.059 455.875C270.426 455.125 269.601 454.75 268.584 454.75C267.568 454.75 266.734 455.125 266.084 455.875C265.451 456.625 265.134 457.658 265.134 458.975C265.134 460.292 265.451 461.333 266.084 462.1C266.734 462.85 267.568 463.225 268.584 463.225ZM276.987 465V453H279.037L279.162 454.875C279.495 454.225 279.995 453.7 280.662 453.3C281.345 452.9 282.078 452.7 282.862 452.7C283.128 452.7 283.378 452.717 283.612 452.75C283.845 452.783 284.045 452.817 284.212 452.85V455.025C284.028 454.975 283.795 454.933 283.512 454.9C283.228 454.867 282.92 454.85 282.587 454.85C281.653 454.85 280.862 455.158 280.212 455.775C279.562 456.375 279.237 457.167 279.237 458.15V465H276.987ZM291.509 465.275C290.409 465.275 289.426 465.025 288.559 464.525C287.709 464.008 287.034 463.283 286.534 462.35C286.051 461.4 285.809 460.283 285.809 459C285.809 457.7 286.051 456.583 286.534 455.65C287.034 454.7 287.709 453.975 288.559 453.475C289.426 452.958 290.409 452.7 291.509 452.7C292.243 452.7 292.909 452.858 293.509 453.175C294.126 453.492 294.643 453.942 295.059 454.525V447.075H297.284V465H295.309L295.234 463.275C294.818 463.892 294.284 464.383 293.634 464.75C293.001 465.1 292.293 465.275 291.509 465.275ZM291.584 463.225C292.601 463.225 293.434 462.85 294.084 462.1C294.751 461.35 295.084 460.317 295.084 459C295.084 457.667 294.751 456.625 294.084 455.875C293.434 455.125 292.601 454.75 291.584 454.75C290.568 454.75 289.726 455.125 289.059 455.875C288.393 456.625 288.059 457.667 288.059 459C288.059 460.317 288.393 461.35 289.059 462.1C289.726 462.85 290.568 463.225 291.584 463.225Z" fill="black"/>
<rect x="16" y="519" width="380" height="56" rx="8" stroke="#424242"/>
<path d="M32.048 557.456C31.8773 557.456 31.696 557.44 31.504 557.408C31.3013 557.376 31.1307 557.339 30.992 557.296V556.336C31.12 556.379 31.264 556.411 31.424 556.432C31.584 556.464 31.7493 556.48 31.92 556.48C32.4533 556.48 32.8213 556.352 33.024 556.096C33.2373 555.851 33.344 555.408 33.344 554.768V546.336H34.32V554.768C34.32 555.749 34.128 556.443 33.744 556.848C33.3707 557.253 32.8053 557.456 32.048 557.456ZM33.84 544.672C33.6373 544.672 33.4613 544.603 33.312 544.464C33.1733 544.315 33.104 544.139 33.104 543.936C33.104 543.723 33.1733 543.547 33.312 543.408C33.4613 543.269 33.6373 543.2 33.84 543.2C34.032 543.2 34.1973 543.269 34.336 543.408C34.4853 543.547 34.56 543.723 34.56 543.936C34.56 544.139 34.4853 544.315 34.336 544.464C34.1973 544.603 34.032 544.672 33.84 544.672ZM40.0696 554.176C39.387 554.176 38.779 554.005 38.2456 553.664C37.7123 553.323 37.291 552.853 36.9816 552.256C36.6723 551.648 36.5176 550.949 36.5176 550.16C36.5176 549.371 36.6723 548.677 36.9816 548.08C37.291 547.472 37.7123 546.997 38.2456 546.656C38.779 546.315 39.387 546.144 40.0696 546.144C40.763 546.144 41.3763 546.315 41.9096 546.656C42.443 546.997 42.8643 547.472 43.1736 548.08C43.483 548.677 43.6376 549.371 43.6376 550.16C43.6376 550.949 43.483 551.648 43.1736 552.256C42.8643 552.853 42.443 553.323 41.9096 553.664C41.3763 554.005 40.763 554.176 40.0696 554.176ZM40.0696 553.264C40.571 553.264 41.0136 553.136 41.3976 552.88C41.7923 552.624 42.1016 552.267 42.3256 551.808C42.5496 551.339 42.6616 550.789 42.6616 550.16C42.6616 549.531 42.5496 548.987 42.3256 548.528C42.1016 548.059 41.7923 547.696 41.3976 547.44C41.0136 547.184 40.571 547.056 40.0696 547.056C39.323 547.056 38.7043 547.339 38.2136 547.904C37.7336 548.459 37.4936 549.211 37.4936 550.16C37.4936 551.099 37.7336 551.851 38.2136 552.416C38.7043 552.981 39.323 553.264 40.0696 553.264ZM45.5746 554V542.448H46.5506V547.424C46.7746 547.061 47.0893 546.757 47.4946 546.512C47.9106 546.267 48.38 546.144 48.9026 546.144C49.724 546.144 50.3853 546.405 50.8866 546.928C51.388 547.451 51.6386 548.197 51.6386 549.168V554H50.6786V549.312C50.6786 548.565 50.4973 548.005 50.1346 547.632C49.7826 547.259 49.324 547.072 48.7586 547.072C48.332 547.072 47.948 547.168 47.6066 547.36C47.276 547.541 47.0146 547.792 46.8226 548.112C46.6413 548.421 46.5506 548.768 46.5506 549.152V554H45.5746ZM54.0278 554V546.336H54.9398L54.9718 547.424C55.2171 547.061 55.5424 546.757 55.9478 546.512C56.3638 546.267 56.8331 546.144 57.3558 546.144C58.1771 546.144 58.8384 546.405 59.3398 546.928C59.8411 547.451 60.0918 548.197 60.0918 549.168V554H59.1318V549.312C59.1318 548.565 58.9504 548.005 58.5878 547.632C58.2358 547.259 57.7771 547.072 57.2118 547.072C56.7851 547.072 56.4011 547.168 56.0598 547.36C55.7291 547.541 55.4678 547.792 55.2758 548.112C55.0944 548.421 55.0038 548.768 55.0038 549.152V554H54.0278ZM65.1049 554.176C64.4222 554.176 63.8035 554.043 63.2489 553.776C62.6942 553.509 62.2462 553.131 61.9049 552.64L62.6089 552.048C62.8649 552.443 63.2115 552.747 63.6489 552.96C64.0969 553.173 64.5929 553.28 65.1369 553.28C65.6595 553.28 66.1022 553.168 66.4649 552.944C66.8382 552.709 67.0249 552.347 67.0249 551.856C67.0249 551.419 66.8489 551.115 66.4969 550.944C66.1449 550.773 65.6062 550.613 64.8809 550.464C64.4329 550.368 64.0062 550.251 63.6009 550.112C63.2062 549.973 62.8862 549.765 62.6409 549.488C62.3955 549.2 62.2729 548.805 62.2729 548.304C62.2729 547.845 62.3955 547.456 62.6409 547.136C62.8969 546.816 63.2329 546.571 63.6489 546.4C64.0649 546.229 64.5075 546.144 64.9769 546.144C66.2355 546.144 67.1582 546.592 67.7449 547.488L67.0889 548.08C66.6515 547.387 65.9529 547.04 64.9929 547.04C64.4382 547.04 64.0115 547.163 63.7129 547.408C63.4142 547.643 63.2649 547.936 63.2649 548.288C63.2649 548.683 63.4249 548.965 63.7449 549.136C64.0755 549.296 64.5822 549.451 65.2649 549.6C65.7449 549.707 66.1929 549.84 66.6089 550C67.0355 550.16 67.3769 550.384 67.6329 550.672C67.8889 550.96 68.0169 551.36 68.0169 551.872C68.0169 552.555 67.7502 553.109 67.2169 553.536C66.6942 553.963 65.9902 554.176 65.1049 554.176ZM72.929 554.176C72.2463 554.176 71.6383 554.005 71.105 553.664C70.5717 553.323 70.1503 552.853 69.841 552.256C69.5317 551.648 69.377 550.949 69.377 550.16C69.377 549.371 69.5317 548.677 69.841 548.08C70.1503 547.472 70.5717 546.997 71.105 546.656C71.6383 546.315 72.2463 546.144 72.929 546.144C73.6223 546.144 74.2357 546.315 74.769 546.656C75.3023 546.997 75.7237 547.472 76.033 548.08C76.3423 548.677 76.497 549.371 76.497 550.16C76.497 550.949 76.3423 551.648 76.033 552.256C75.7237 552.853 75.3023 553.323 74.769 553.664C74.2357 554.005 73.6223 554.176 72.929 554.176ZM72.929 553.264C73.4303 553.264 73.873 553.136 74.257 552.88C74.6517 552.624 74.961 552.267 75.185 551.808C75.409 551.339 75.521 550.789 75.521 550.16C75.521 549.531 75.409 548.987 75.185 548.528C74.961 548.059 74.6517 547.696 74.257 547.44C73.873 547.184 73.4303 547.056 72.929 547.056C72.1823 547.056 71.5637 547.339 71.073 547.904C70.593 548.459 70.353 549.211 70.353 550.16C70.353 551.099 70.593 551.851 71.073 552.416C71.5637 552.981 72.1823 553.264 72.929 553.264ZM78.434 554V546.336H79.346L79.378 547.424C79.6233 547.061 79.9487 546.757 80.354 546.512C80.77 546.267 81.2393 546.144 81.762 546.144C82.5833 546.144 83.2447 546.405 83.746 546.928C84.2473 547.451 84.498 548.197 84.498 549.168V554H83.538V549.312C83.538 548.565 83.3567 548.005 82.994 547.632C82.642 547.259 82.1833 547.072 81.618 547.072C81.1913 547.072 80.8073 547.168 80.466 547.36C80.1353 547.541 79.874 547.792 79.682 548.112C79.5007 548.421 79.41 548.768 79.41 549.152V554H78.434ZM90.0071 554.176C89.3245 554.176 88.7165 554.011 88.1831 553.68C87.6498 553.339 87.2285 552.869 86.9191 552.272C86.6098 551.664 86.4551 550.96 86.4551 550.16C86.4551 549.36 86.6098 548.661 86.9191 548.064C87.2285 547.467 87.6498 547.003 88.1831 546.672C88.7165 546.331 89.3245 546.16 90.0071 546.16C90.5831 546.16 91.0951 546.299 91.5431 546.576C91.9911 546.843 92.3485 547.211 92.6151 547.68V542.448H93.5911V554H92.6951L92.6791 552.592C92.4018 553.083 92.0338 553.472 91.5751 553.76C91.1165 554.037 90.5938 554.176 90.0071 554.176ZM90.0391 553.264C90.5405 553.264 90.9831 553.136 91.3671 552.88C91.7618 552.624 92.0711 552.267 92.2951 551.808C92.5191 551.339 92.6311 550.789 92.6311 550.16C92.6311 549.531 92.5191 548.987 92.2951 548.528C92.0711 548.069 91.7618 547.712 91.3671 547.456C90.9831 547.2 90.5405 547.072 90.0391 547.072C89.5378 547.072 89.0898 547.2 88.6951 547.456C88.3005 547.712 87.9911 548.069 87.7671 548.528C87.5431 548.987 87.4311 549.531 87.4311 550.16C87.4311 550.789 87.5431 551.339 87.7671 551.808C87.9911 552.267 88.3005 552.624 88.6951 552.88C89.0898 553.136 89.5378 553.264 90.0391 553.264ZM99.1009 554.176C98.4182 554.176 97.8102 554.005 97.2769 553.664C96.7435 553.323 96.3222 552.853 96.0129 552.256C95.7035 551.648 95.5489 550.949 95.5489 550.16C95.5489 549.371 95.7035 548.677 96.0129 548.08C96.3222 547.472 96.7435 546.997 97.2769 546.656C97.8102 546.315 98.4182 546.144 99.1009 546.144C99.7942 546.144 100.408 546.315 100.941 546.656C101.474 546.997 101.896 547.472 102.205 548.08C102.514 548.677 102.669 549.371 102.669 550.16C102.669 550.949 102.514 551.648 102.205 552.256C101.896 552.853 101.474 553.323 100.941 553.664C100.408 554.005 99.7942 554.176 99.1009 554.176ZM99.1009 553.264C99.6022 553.264 100.045 553.136 100.429 552.88C100.824 552.624 101.133 552.267 101.357 551.808C101.581 551.339 101.693 550.789 101.693 550.16C101.693 549.531 101.581 548.987 101.357 548.528C101.133 548.059 100.824 547.696 100.429 547.44C100.045 547.184 99.6022 547.056 99.1009 547.056C98.3542 547.056 97.7355 547.339 97.2449 547.904C96.7649 548.459 96.5249 549.211 96.5249 550.16C96.5249 551.099 96.7649 551.851 97.2449 552.416C97.7355 552.981 98.3542 553.264 99.1009 553.264ZM107.742 554.176C107.049 554.176 106.43 554.016 105.886 553.696C105.353 553.365 104.931 552.901 104.622 552.304C104.323 551.696 104.174 550.981 104.174 550.16C104.174 549.36 104.323 548.661 104.622 548.064C104.931 547.467 105.353 547.003 105.886 546.672C106.419 546.331 107.027 546.16 107.71 546.16C108.403 546.16 108.99 546.336 109.47 546.688C109.961 547.029 110.334 547.477 110.59 548.032C110.846 548.576 110.974 549.152 110.974 549.76V550.08H105.15C105.129 551.04 105.353 551.819 105.822 552.416C106.302 553.003 106.947 553.296 107.758 553.296C108.355 553.296 108.857 553.147 109.262 552.848C109.667 552.539 109.998 552.085 110.254 551.488L111.054 551.952C110.371 553.435 109.267 554.176 107.742 554.176ZM105.214 549.248H110.014C109.961 548.832 109.827 548.453 109.614 548.112C109.411 547.771 109.145 547.499 108.814 547.296C108.494 547.093 108.126 546.992 107.71 546.992C107.059 546.992 106.51 547.195 106.062 547.6C105.625 547.995 105.342 548.544 105.214 549.248ZM118.629 554.208C117.487 554.208 116.458 553.984 115.541 553.536C114.623 553.088 113.898 552.448 113.365 551.616C112.831 550.784 112.565 549.787 112.565 548.624C112.565 547.771 112.714 546.976 113.013 546.24C113.322 545.504 113.754 544.864 114.309 544.32C114.863 543.765 115.514 543.339 116.261 543.04C117.007 542.731 117.818 542.576 118.693 542.576C119.429 542.576 120.122 542.715 120.773 542.992C121.434 543.269 122.015 543.653 122.517 544.144C123.029 544.624 123.429 545.189 123.717 545.84C124.015 546.48 124.165 547.168 124.165 547.904C124.165 548.512 124.042 549.067 123.797 549.568C123.551 550.059 123.183 550.453 122.693 550.752C122.202 551.04 121.589 551.184 120.852 551.184C120.074 551.184 119.594 550.949 119.413 550.48C118.975 550.949 118.378 551.184 117.621 551.184C117.13 551.184 116.709 551.067 116.357 550.832C116.005 550.587 115.765 550.24 115.637 549.792C115.509 549.333 115.541 548.779 115.733 548.128C115.914 547.371 116.255 546.779 116.757 546.352C117.269 545.925 117.85 545.712 118.501 545.712C119.258 545.712 119.823 545.989 120.197 546.544L120.389 545.84H121.189L120.245 549.632C120.17 549.92 120.186 550.123 120.293 550.24C120.41 550.357 120.65 550.416 121.013 550.416C121.759 550.416 122.33 550.187 122.725 549.728C123.13 549.259 123.333 548.651 123.333 547.904C123.333 547.275 123.21 546.688 122.965 546.144C122.719 545.589 122.383 545.109 121.957 544.704C121.53 544.288 121.034 543.963 120.469 543.728C119.914 543.493 119.322 543.376 118.693 543.376C117.711 543.376 116.821 543.595 116.021 544.032C115.221 544.469 114.586 545.083 114.117 545.872C113.647 546.661 113.413 547.579 113.413 548.624C113.413 549.616 113.631 550.475 114.069 551.2C114.517 551.915 115.13 552.464 115.909 552.848C116.698 553.232 117.605 553.424 118.629 553.424C119.429 553.424 120.149 553.285 120.789 553.008C121.429 552.731 121.994 552.347 122.485 551.856L122.933 552.464C122.41 553.019 121.775 553.451 121.029 553.76C120.293 554.059 119.493 554.208 118.629 554.208ZM117.701 550.4C118.053 550.4 118.399 550.309 118.741 550.128C119.093 549.947 119.359 549.584 119.541 549.04L119.941 547.424C119.866 547.136 119.695 546.907 119.429 546.736C119.173 546.565 118.874 546.48 118.533 546.48C118.106 546.48 117.711 546.635 117.349 546.944C116.986 547.243 116.73 547.664 116.581 548.208C116.378 548.859 116.367 549.387 116.549 549.792C116.741 550.197 117.125 550.4 117.701 550.4ZM126.09 554V546.336H127.002L127.034 547.424C127.28 547.061 127.605 546.757 128.01 546.512C128.426 546.267 128.896 546.144 129.418 546.144C130.24 546.144 130.901 546.405 131.402 546.928C131.904 547.451 132.154 548.197 132.154 549.168V554H131.194V549.312C131.194 548.565 131.013 548.005 130.65 547.632C130.298 547.259 129.84 547.072 129.274 547.072C128.848 547.072 128.464 547.168 128.122 547.36C127.792 547.541 127.53 547.792 127.338 548.112C127.157 548.421 127.066 548.768 127.066 549.152V554H126.09ZM137.663 554.176C136.981 554.176 136.373 554.005 135.839 553.664C135.306 553.323 134.885 552.853 134.575 552.256C134.266 551.648 134.111 550.949 134.111 550.16C134.111 549.371 134.266 548.677 134.575 548.08C134.885 547.472 135.306 546.997 135.839 546.656C136.373 546.315 136.981 546.144 137.663 546.144C138.357 546.144 138.97 546.315 139.503 546.656C140.037 546.997 140.458 547.472 140.767 548.08C141.077 548.677 141.231 549.371 141.231 550.16C141.231 550.949 141.077 551.648 140.767 552.256C140.458 552.853 140.037 553.323 139.503 553.664C138.97 554.005 138.357 554.176 137.663 554.176ZM137.663 553.264C138.165 553.264 138.607 553.136 138.991 552.88C139.386 552.624 139.695 552.267 139.919 551.808C140.143 551.339 140.255 550.789 140.255 550.16C140.255 549.531 140.143 548.987 139.919 548.528C139.695 548.059 139.386 547.696 138.991 547.44C138.607 547.184 138.165 547.056 137.663 547.056C136.917 547.056 136.298 547.339 135.807 547.904C135.327 548.459 135.087 549.211 135.087 550.16C135.087 551.099 135.327 551.851 135.807 552.416C136.298 552.981 136.917 553.264 137.663 553.264ZM143.168 554V546.336H144.08L144.128 547.536C144.299 547.141 144.582 546.811 144.976 546.544C145.371 546.277 145.819 546.144 146.32 546.144C146.939 546.144 147.446 546.288 147.84 546.576C148.246 546.864 148.518 547.264 148.656 547.776C148.838 547.307 149.126 546.917 149.52 546.608C149.915 546.299 150.422 546.144 151.04 546.144C151.83 546.144 152.448 546.395 152.896 546.896C153.344 547.387 153.568 548.128 153.568 549.12V554H152.592V549.264C152.592 548.453 152.438 547.883 152.128 547.552C151.819 547.221 151.403 547.056 150.88 547.056C150.475 547.056 150.118 547.163 149.808 547.376C149.51 547.579 149.275 547.851 149.104 548.192C148.944 548.523 148.864 548.885 148.864 549.28V554H147.888V549.264C147.888 548.453 147.728 547.883 147.408 547.552C147.099 547.221 146.683 547.056 146.16 547.056C145.755 547.056 145.398 547.163 145.088 547.376C144.79 547.589 144.555 547.867 144.384 548.208C144.224 548.539 144.144 548.891 144.144 549.264V554H143.168ZM157.998 554.144C157.251 554.155 156.643 553.984 156.174 553.632C155.715 553.28 155.486 552.768 155.486 552.096C155.486 551.584 155.656 551.136 155.998 550.752C156.35 550.368 156.792 550.069 157.326 549.856C157.87 549.632 158.43 549.52 159.006 549.52C159.795 549.52 160.419 549.707 160.878 550.08V548.768C160.878 548.053 160.728 547.589 160.43 547.376C160.131 547.152 159.651 547.04 158.99 547.04C158.563 547.04 158.088 547.12 157.566 547.28C157.043 547.429 156.6 547.621 156.238 547.856L155.774 547.088C156.19 546.821 156.691 546.597 157.278 546.416C157.875 546.235 158.446 546.144 158.99 546.144C159.96 546.144 160.675 546.331 161.134 546.704C161.592 547.077 161.822 547.765 161.822 548.768V553.008C161.822 553.211 161.875 553.328 161.982 553.36C162.099 553.381 162.35 553.355 162.734 553.28V553.968C162.627 554.011 162.483 554.048 162.302 554.08C162.12 554.123 161.95 554.144 161.79 554.144C161.427 554.144 161.192 554.069 161.086 553.92C160.979 553.771 160.915 553.488 160.894 553.072C160.563 553.435 160.126 553.701 159.582 553.872C159.038 554.043 158.51 554.133 157.998 554.144ZM158.046 553.264C158.558 553.253 159.032 553.173 159.47 553.024C159.918 552.875 160.27 552.661 160.526 552.384C160.792 552.096 160.915 551.749 160.894 551.344C160.862 551.013 160.68 550.768 160.35 550.608C160.019 550.437 159.592 550.357 159.07 550.368C158.632 550.368 158.211 550.443 157.806 550.592C157.4 550.741 157.07 550.949 156.814 551.216C156.568 551.472 156.446 551.771 156.446 552.112C156.446 552.507 156.595 552.8 156.894 552.992C157.192 553.173 157.576 553.264 158.046 553.264ZM164.784 554V546.336H165.744V554H164.784ZM165.264 544.672C165.061 544.672 164.885 544.603 164.736 544.464C164.587 544.315 164.512 544.139 164.512 543.936C164.512 543.723 164.587 543.547 164.736 543.408C164.885 543.269 165.061 543.2 165.264 543.2C165.467 543.2 165.637 543.269 165.776 543.408C165.915 543.547 165.984 543.723 165.984 543.936C165.984 544.139 165.915 544.315 165.776 544.464C165.637 544.603 165.467 544.672 165.264 544.672ZM168.372 554V542.448H169.348V554H168.372ZM172.499 554.176C172.243 554.176 172.03 554.091 171.859 553.92C171.688 553.739 171.603 553.531 171.603 553.296C171.603 553.051 171.688 552.843 171.859 552.672C172.03 552.491 172.243 552.4 172.499 552.4C172.744 552.4 172.952 552.491 173.123 552.672C173.294 552.843 173.379 553.051 173.379 553.296C173.379 553.531 173.294 553.739 173.123 553.92C172.952 554.091 172.744 554.176 172.499 554.176ZM178.742 554.176C178.059 554.176 177.451 554.011 176.918 553.68C176.384 553.339 175.963 552.864 175.654 552.256C175.344 551.648 175.19 550.949 175.19 550.16C175.19 549.371 175.344 548.677 175.654 548.08C175.963 547.472 176.384 547.003 176.918 546.672C177.451 546.331 178.059 546.16 178.742 546.16C179.286 546.16 179.787 546.272 180.246 546.496C180.715 546.709 181.115 547.029 181.446 547.456L180.678 548.032C180.198 547.392 179.552 547.072 178.742 547.072C177.995 547.072 177.376 547.355 176.886 547.92C176.406 548.475 176.166 549.221 176.166 550.16C176.166 551.099 176.406 551.851 176.886 552.416C177.376 552.981 177.995 553.264 178.742 553.264C179.552 553.264 180.198 552.944 180.678 552.304L181.446 552.88C180.763 553.744 179.862 554.176 178.742 554.176ZM186.195 554.176C185.512 554.176 184.904 554.005 184.371 553.664C183.837 553.323 183.416 552.853 183.107 552.256C182.797 551.648 182.643 550.949 182.643 550.16C182.643 549.371 182.797 548.677 183.107 548.08C183.416 547.472 183.837 546.997 184.371 546.656C184.904 546.315 185.512 546.144 186.195 546.144C186.888 546.144 187.501 546.315 188.035 546.656C188.568 546.997 188.989 547.472 189.299 548.08C189.608 548.677 189.763 549.371 189.763 550.16C189.763 550.949 189.608 551.648 189.299 552.256C188.989 552.853 188.568 553.323 188.035 553.664C187.501 554.005 186.888 554.176 186.195 554.176ZM186.195 553.264C186.696 553.264 187.139 553.136 187.523 552.88C187.917 552.624 188.227 552.267 188.451 551.808C188.675 551.339 188.787 550.789 188.787 550.16C188.787 549.531 188.675 548.987 188.451 548.528C188.227 548.059 187.917 547.696 187.523 547.44C187.139 547.184 186.696 547.056 186.195 547.056C185.448 547.056 184.829 547.339 184.339 547.904C183.859 548.459 183.619 549.211 183.619 550.16C183.619 551.099 183.859 551.851 184.339 552.416C184.829 552.981 185.448 553.264 186.195 553.264ZM191.7 554V546.336H192.612L192.66 547.536C192.83 547.141 193.113 546.811 193.508 546.544C193.902 546.277 194.35 546.144 194.852 546.144C195.47 546.144 195.977 546.288 196.372 546.576C196.777 546.864 197.049 547.264 197.188 547.776C197.369 547.307 197.657 546.917 198.052 546.608C198.446 546.299 198.953 546.144 199.572 546.144C200.361 546.144 200.98 546.395 201.428 546.896C201.876 547.387 202.1 548.128 202.1 549.12V554H201.124V549.264C201.124 548.453 200.969 547.883 200.66 547.552C200.35 547.221 199.934 547.056 199.412 547.056C199.006 547.056 198.649 547.163 198.34 547.376C198.041 547.579 197.806 547.851 197.636 548.192C197.476 548.523 197.396 548.885 197.396 549.28V554H196.42V549.264C196.42 548.453 196.26 547.883 195.94 547.552C195.63 547.221 195.214 547.056 194.692 547.056C194.286 547.056 193.929 547.163 193.62 547.376C193.321 547.589 193.086 547.867 192.916 548.208C192.756 548.539 192.676 548.891 192.676 549.264V554H191.7Z" fill="#424242"/>
<g clip-path="url(#clip1_37_4488)">
<rect x="27.1729" y="508" width="54" height="23" fill="#FAFAFA"/>
<path d="M40.6617 525V516.04H46.2297V516.782H41.4425V520.034H45.8073V520.802H41.4425V524.245H46.3833V525H40.6617ZM47.9462 525V518.869H48.6758L48.7142 519.829C48.8508 519.513 49.0769 519.249 49.3926 519.035C49.7084 518.822 50.0668 518.715 50.4678 518.715C50.9628 518.715 51.3681 518.83 51.6838 519.061C52.0081 519.291 52.2257 519.611 52.3366 520.021C52.4817 519.645 52.7121 519.334 53.0278 519.086C53.3436 518.839 53.7489 518.715 54.2438 518.715C54.8753 518.715 55.3702 518.916 55.7286 519.317C56.087 519.709 56.2662 520.302 56.2662 521.096V525H55.4854V521.211C55.4854 520.563 55.3617 520.106 55.1142 519.842C54.8668 519.577 54.534 519.445 54.1158 519.445C53.7916 519.445 53.5057 519.53 53.2582 519.701C53.0193 519.863 52.8316 520.081 52.695 520.354C52.567 520.618 52.503 520.908 52.503 521.224V525H51.7222V521.211C51.7222 520.563 51.5942 520.106 51.3382 519.842C51.0908 519.577 50.758 519.445 50.3398 519.445C50.0156 519.445 49.7297 519.53 49.4822 519.701C49.2433 519.871 49.0556 520.093 48.919 520.366C48.791 520.631 48.727 520.913 48.727 521.211V525H47.9462ZM59.8096 525.115C59.2123 525.124 58.7259 524.987 58.3504 524.706C57.9835 524.424 57.8 524.014 57.8 523.477C57.8 523.067 57.9366 522.709 58.2096 522.402C58.4912 522.094 58.8454 521.855 59.272 521.685C59.7072 521.506 60.1552 521.416 60.616 521.416C61.2475 521.416 61.7467 521.565 62.1136 521.864V520.814C62.1136 520.243 61.9942 519.871 61.7552 519.701C61.5163 519.522 61.1323 519.432 60.6032 519.432C60.2619 519.432 59.8822 519.496 59.464 519.624C59.0459 519.743 58.6918 519.897 58.4016 520.085L58.0304 519.47C58.3632 519.257 58.7643 519.078 59.2336 518.933C59.7115 518.788 60.168 518.715 60.6032 518.715C61.3798 518.715 61.9515 518.865 62.3184 519.163C62.6854 519.462 62.8688 520.012 62.8688 520.814V524.206C62.8688 524.369 62.9115 524.462 62.9968 524.488C63.0907 524.505 63.2912 524.484 63.5984 524.424V524.974C63.5131 525.009 63.3979 525.038 63.2528 525.064C63.1078 525.098 62.9712 525.115 62.8432 525.115C62.5531 525.115 62.3654 525.055 62.28 524.936C62.1947 524.817 62.1435 524.59 62.1264 524.258C61.8619 524.548 61.512 524.761 61.0768 524.898C60.6416 525.034 60.2192 525.107 59.8096 525.115ZM59.848 524.411C60.2576 524.403 60.6374 524.339 60.9872 524.219C61.3456 524.1 61.6272 523.929 61.832 523.707C62.0454 523.477 62.1435 523.199 62.1264 522.875C62.1008 522.611 61.9558 522.414 61.6912 522.286C61.4267 522.15 61.0854 522.086 60.6672 522.094C60.3174 522.094 59.9803 522.154 59.656 522.274C59.3318 522.393 59.0672 522.559 58.8624 522.773C58.6662 522.978 58.568 523.217 58.568 523.49C58.568 523.805 58.6875 524.04 58.9264 524.194C59.1654 524.339 59.4726 524.411 59.848 524.411ZM65.2388 525V518.869H66.0068V525H65.2388ZM65.6228 517.538C65.4607 517.538 65.3199 517.482 65.2004 517.371C65.081 517.252 65.0212 517.111 65.0212 516.949C65.0212 516.778 65.081 516.637 65.2004 516.526C65.3199 516.415 65.4607 516.36 65.6228 516.36C65.785 516.36 65.9215 516.415 66.0324 516.526C66.1434 516.637 66.1988 516.778 66.1988 516.949C66.1988 517.111 66.1434 517.252 66.0324 517.371C65.9215 517.482 65.785 517.538 65.6228 517.538ZM68.1087 525V515.758H68.8895V525H68.1087Z" fill="#424242"/>
</g>
<path d="M191.916 856.166C191.106 856.166 190.393 855.974 189.779 855.59C189.164 855.206 188.682 854.665 188.332 853.965C187.991 853.265 187.82 852.446 187.82 851.507C187.82 850.569 187.991 849.754 188.332 849.062C188.682 848.363 189.164 847.821 189.779 847.437C190.393 847.044 191.106 846.848 191.916 846.848C192.625 846.848 193.256 847.002 193.811 847.309C194.374 847.607 194.839 848.034 195.206 848.589L194.515 848.998C194.225 848.563 193.858 848.226 193.414 847.987C192.97 847.748 192.471 847.629 191.916 847.629C191.276 847.629 190.709 847.787 190.214 848.102C189.719 848.41 189.331 848.853 189.049 849.434C188.768 850.014 188.627 850.705 188.627 851.507C188.627 852.309 188.768 853.005 189.049 853.594C189.331 854.174 189.719 854.622 190.214 854.938C190.709 855.245 191.276 855.398 191.916 855.398C192.471 855.398 192.97 855.279 193.414 855.04C193.858 854.801 194.225 854.464 194.515 854.029L195.206 854.451C194.839 854.989 194.374 855.411 193.811 855.718C193.256 856.017 192.625 856.166 191.916 856.166ZM198.392 856.115C197.795 856.124 197.308 855.987 196.933 855.706C196.566 855.424 196.382 855.014 196.382 854.477C196.382 854.067 196.519 853.709 196.792 853.402C197.073 853.094 197.428 852.855 197.854 852.685C198.289 852.506 198.737 852.416 199.198 852.416C199.83 852.416 200.329 852.565 200.696 852.864V851.814C200.696 851.243 200.576 850.871 200.337 850.701C200.099 850.522 199.715 850.432 199.185 850.432C198.844 850.432 198.464 850.496 198.046 850.624C197.628 850.743 197.274 850.897 196.984 851.085L196.613 850.47C196.945 850.257 197.347 850.078 197.816 849.933C198.294 849.788 198.75 849.715 199.185 849.715C199.962 849.715 200.534 849.865 200.901 850.163C201.268 850.462 201.451 851.012 201.451 851.814V855.206C201.451 855.369 201.494 855.462 201.579 855.488C201.673 855.505 201.873 855.484 202.181 855.424V855.974C202.095 856.009 201.98 856.038 201.835 856.064C201.69 856.098 201.553 856.115 201.425 856.115C201.135 856.115 200.948 856.055 200.862 855.936C200.777 855.817 200.726 855.59 200.709 855.258C200.444 855.548 200.094 855.761 199.659 855.898C199.224 856.034 198.801 856.107 198.392 856.115ZM198.43 855.411C198.84 855.403 199.22 855.339 199.569 855.219C199.928 855.1 200.209 854.929 200.414 854.707C200.628 854.477 200.726 854.199 200.709 853.875C200.683 853.611 200.538 853.414 200.273 853.286C200.009 853.15 199.668 853.086 199.249 853.094C198.9 853.094 198.563 853.154 198.238 853.274C197.914 853.393 197.649 853.559 197.445 853.773C197.248 853.978 197.15 854.217 197.15 854.49C197.15 854.805 197.27 855.04 197.509 855.194C197.748 855.339 198.055 855.411 198.43 855.411ZM203.603 856V849.869H204.333L204.359 850.739C204.555 850.449 204.815 850.206 205.139 850.01C205.472 849.813 205.848 849.715 206.266 849.715C206.923 849.715 207.452 849.924 207.853 850.342C208.254 850.761 208.455 851.358 208.455 852.134V856H207.687V852.25C207.687 851.652 207.542 851.204 207.251 850.906C206.97 850.607 206.603 850.458 206.151 850.458C205.809 850.458 205.502 850.534 205.229 850.688C204.965 850.833 204.755 851.034 204.602 851.29C204.457 851.537 204.384 851.814 204.384 852.122V856H203.603ZM212.862 856.141C212.316 856.141 211.829 856.009 211.403 855.744C210.976 855.471 210.639 855.091 210.392 854.605C210.144 854.118 210.02 853.559 210.02 852.928C210.02 852.297 210.144 851.742 210.392 851.264C210.639 850.778 210.976 850.402 211.403 850.138C211.829 849.865 212.316 849.728 212.862 849.728C213.297 849.728 213.698 849.818 214.065 849.997C214.441 850.167 214.761 850.423 215.025 850.765L214.411 851.226C214.027 850.714 213.51 850.458 212.862 850.458C212.265 850.458 211.77 850.684 211.377 851.136C210.993 851.58 210.801 852.177 210.801 852.928C210.801 853.679 210.993 854.281 211.377 854.733C211.77 855.185 212.265 855.411 212.862 855.411C213.51 855.411 214.027 855.155 214.411 854.643L215.025 855.104C214.479 855.795 213.758 856.141 212.862 856.141ZM218.837 856.141C218.283 856.141 217.788 856.013 217.352 855.757C216.926 855.492 216.589 855.121 216.341 854.643C216.102 854.157 215.983 853.585 215.983 852.928C215.983 852.288 216.102 851.729 216.341 851.251C216.589 850.773 216.926 850.402 217.352 850.138C217.779 849.865 218.266 849.728 218.812 849.728C219.366 849.728 219.836 849.869 220.22 850.15C220.612 850.423 220.911 850.782 221.116 851.226C221.32 851.661 221.423 852.122 221.423 852.608V852.864H216.764C216.747 853.632 216.926 854.255 217.301 854.733C217.685 855.202 218.202 855.437 218.85 855.437C219.328 855.437 219.729 855.317 220.053 855.078C220.378 854.831 220.642 854.468 220.847 853.99L221.487 854.362C220.941 855.548 220.058 856.141 218.837 856.141ZM216.815 852.198H220.655C220.612 851.866 220.506 851.563 220.335 851.29C220.173 851.017 219.959 850.799 219.695 850.637C219.439 850.475 219.144 850.394 218.812 850.394C218.291 850.394 217.852 850.556 217.493 850.88C217.143 851.196 216.917 851.635 216.815 852.198ZM223.041 856V846.758H223.822V856H223.041Z" fill="#212121"/>
<rect x="16" y="783" width="380" height="56" rx="8" fill="#212121"/>
<path d="M179.385 817.179C178.634 817.179 177.943 817.021 177.311 816.706C176.688 816.39 176.189 815.857 175.814 815.106L177.055 814.402C177.311 814.828 177.623 815.165 177.99 815.413C178.356 815.652 178.839 815.771 179.436 815.771C180.033 815.771 180.451 815.665 180.69 815.451C180.938 815.229 181.062 814.931 181.062 814.555C181.062 814.316 181.006 814.111 180.895 813.941C180.793 813.77 180.571 813.612 180.23 813.467C179.897 813.314 179.38 813.16 178.681 813.006C177.853 812.81 177.239 812.499 176.838 812.072C176.445 811.645 176.249 811.103 176.249 810.446C176.249 809.926 176.372 809.469 176.62 809.077C176.876 808.676 177.23 808.364 177.682 808.142C178.143 807.921 178.681 807.81 179.295 807.81C180.106 807.81 180.788 807.989 181.343 808.347C181.898 808.697 182.32 809.111 182.61 809.589L181.446 810.485C181.3 810.28 181.13 810.084 180.934 809.896C180.737 809.7 180.507 809.542 180.242 809.422C179.978 809.294 179.658 809.23 179.282 809.23C178.839 809.23 178.476 809.329 178.194 809.525C177.921 809.713 177.785 809.998 177.785 810.382C177.785 810.553 177.823 810.719 177.9 810.882C177.985 811.035 178.164 811.185 178.438 811.33C178.719 811.475 179.15 811.615 179.73 811.752C180.754 811.982 181.492 812.328 181.945 812.789C182.397 813.25 182.623 813.83 182.623 814.53C182.623 815.383 182.324 816.04 181.727 816.501C181.138 816.953 180.358 817.179 179.385 817.179ZM184.134 817V808.04H190.124V809.41H185.606V811.739H189.727V813.122H185.606V815.63H190.265V817H184.134ZM191.634 817V808.04H193.106L197.33 814.402V808.04H198.827V817H197.407L193.106 810.459V817H191.634ZM200.634 817V808.04H203.514C204.41 808.04 205.182 808.206 205.831 808.539C206.488 808.872 206.991 809.371 207.341 810.037C207.699 810.702 207.879 811.53 207.879 812.52C207.879 813.501 207.699 814.325 207.341 814.99C206.991 815.656 206.488 816.159 205.831 816.501C205.182 816.834 204.41 817 203.514 817H200.634ZM202.106 815.63H203.399C204.32 815.63 205.037 815.366 205.549 814.837C206.07 814.299 206.33 813.527 206.33 812.52C206.33 811.505 206.07 810.732 205.549 810.203C205.037 809.674 204.32 809.41 203.399 809.41H202.106V815.63ZM216.584 817.205C215.774 817.205 215.048 817.013 214.408 816.629C213.777 816.245 213.282 815.703 212.923 815.003C212.565 814.295 212.386 813.467 212.386 812.52C212.386 811.564 212.565 810.737 212.923 810.037C213.282 809.329 213.777 808.782 214.408 808.398C215.048 808.006 215.774 807.81 216.584 807.81C217.395 807.81 218.112 808.006 218.735 808.398C219.366 808.782 219.861 809.329 220.219 810.037C220.586 810.737 220.77 811.564 220.77 812.52C220.77 813.467 220.586 814.295 220.219 815.003C219.861 815.703 219.366 816.245 218.735 816.629C218.112 817.013 217.395 817.205 216.584 817.205ZM216.584 815.771C217.122 815.771 217.587 815.639 217.979 815.374C218.372 815.101 218.675 814.722 218.888 814.235C219.11 813.74 219.221 813.169 219.221 812.52C219.221 811.863 219.11 811.291 218.888 810.805C218.675 810.31 218.372 809.93 217.979 809.666C217.587 809.393 217.122 809.256 216.584 809.256C216.055 809.256 215.59 809.393 215.189 809.666C214.788 809.93 214.476 810.31 214.255 810.805C214.041 811.291 213.935 811.863 213.935 812.52C213.935 813.169 214.041 813.74 214.255 814.235C214.476 814.722 214.788 815.101 215.189 815.374C215.59 815.639 216.055 815.771 216.584 815.771ZM224.159 817V809.41H221.458V808.04H228.345V809.41H225.657V817H224.159ZM229.596 817V808.04H233.692C234.529 808.04 235.19 808.236 235.676 808.629C236.171 809.021 236.419 809.683 236.419 810.613C236.419 811.543 236.171 812.209 235.676 812.61C235.19 813.011 234.529 813.211 233.692 813.211H231.068V817H229.596ZM231.068 811.829H233.488C233.923 811.829 234.26 811.735 234.499 811.547C234.738 811.359 234.857 811.048 234.857 810.613C234.857 810.186 234.738 809.879 234.499 809.691C234.26 809.503 233.923 809.41 233.488 809.41H231.068V811.829Z" fill="white"/>
</g>
<defs>
<clipPath id="clip0_37_4488">
<path d="M0 439C0 410.281 23.2812 387 52 387H360C388.719 387 412 410.281 412 439V917H0V439Z" fill="white"/>
</clipPath>
<clipPath id="clip1_37_4488">
<rect width="54" height="23" fill="white" transform="translate(27.1729 508)"/>
</clipPath>
</defs>
</svg>
