<svg width="412" height="917" viewBox="0 0 412 917" fill="none" xmlns="http://www.w3.org/2000/svg">
<rect width="412" height="917" fill="#DDEDFF"/>
<path d="M138.085 355.532L134.501 356.632L132.094 351.061L126.656 352.023L124.173 348.148L122.211 349.405L125.531 354.587L130.685 353.675L133.185 359.475L138.578 357.82L138.085 355.532Z" fill="#50BFA5"/>
<path d="M367.914 555.908L364.33 557.008L361.923 551.437L356.485 552.399L354.002 548.524L352.041 549.781L355.361 554.963L360.515 554.052L363.015 559.852L368.408 558.197L367.914 555.908Z" fill="#50BFA5"/>
<path d="M116.002 621.863C116.002 621.863 96.8779 557.043 95.3439 542.745C93.8099 528.447 104.504 532.877 104.504 532.877C104.504 532.877 95.5039 505.632 102.013 499.165C108.522 492.698 114.386 504.752 114.386 504.752C114.386 504.752 116.355 471.678 123.286 471.666C136.205 471.643 135.95 507.736 135.95 507.736C135.95 507.736 139.25 493.605 146.164 497.479C156.596 503.321 141.636 531.639 141.636 531.639C141.636 531.639 154.928 531.649 159.597 538.351C167.981 550.381 116.002 621.863 116.002 621.863Z" fill="#50BFA5"/>
<path d="M122.254 613.286C122.254 613.286 67.1229 604.067 55.1309 594.298C43.1389 584.529 55.008 580.124 55.008 580.124C55.008 580.124 27.308 565.924 27.633 556.272C27.958 546.62 41.713 551.526 41.713 551.526C41.713 551.526 18.3769 524.916 23.9019 519.863C34.1919 510.45 61.17 538.112 61.17 538.112C61.17 538.112 53.16 524.957 61.596 522.875C74.319 519.736 83.7089 552.175 83.7089 552.175C83.7089 552.175 81.323 539.365 90.096 541.075C105.836 544.131 122.254 613.286 122.254 613.286Z" fill="#50BFA5"/>
<path d="M90.0955 541.07C81.3015 539.48 83.7084 552.17 83.7084 552.17C83.7084 552.17 74.3185 519.733 61.5955 522.87C53.1595 524.952 61.1694 538.107 61.1694 538.107C61.1694 538.107 34.1914 510.445 23.9014 519.858L122.068 613.296C120.325 604.377 104.839 543.736 90.0955 541.07Z" fill="#3C8F7C"/>
<path d="M137.939 620.89C137.939 620.89 108.905 591.364 94.2843 588.29C79.6633 585.216 82.2932 595.618 82.2932 595.618C82.2932 595.618 53.2843 570.25 46.5623 576.396C39.8403 582.542 47.1112 588.477 47.1112 588.477C47.1112 588.477 22.9483 584.196 19.4893 592.125C14.1743 604.309 53.9132 610.941 53.9132 610.941C53.9132 610.941 37.2603 612.095 41.1223 619.735C46.9463 631.255 137.939 620.89 137.939 620.89Z" fill="#355389"/>
<path d="M19.4883 592.124C22.9473 584.195 47.1104 588.476 47.1104 588.476C47.1104 588.476 39.8383 582.542 46.5613 576.395C53.2843 570.248 81.3904 592.167 81.3904 592.167C81.3904 592.167 74.7634 579.5 89.3844 582.574C104.005 585.648 137.938 620.89 137.938 620.89L19.4883 592.124Z" fill="#466EB6"/>
<path d="M184.163 316.372C174.39 317.98 171.488 330.807 179.612 336.544C181.065 337.588 182.094 339.119 182.512 340.858L183.991 346.824C184.188 347.617 184.676 348.307 185.358 348.756C186.04 349.206 186.867 349.382 187.673 349.249L191.373 348.64C192.179 348.507 192.905 348.076 193.407 347.432C193.91 346.788 194.151 345.978 194.083 345.164C193.569 339.004 192.934 336.77 194.936 334.022C200.795 325.985 193.938 314.763 184.163 316.372Z" fill="#F7CC7F"/>
<path d="M185.16 342.449C184.524 337.172 183.631 331.6 183.327 330.02C177.727 330.329 179.854 324.42 182.439 326.825C183.136 327.546 183.595 328.464 183.754 329.454C185.616 329.285 187.429 328.757 189.09 327.899C188.899 326.861 188.949 325.794 189.236 324.779C189.785 323.521 191.379 323.179 192.028 324.404C192.15 324.639 192.222 324.897 192.241 325.161C192.26 325.425 192.225 325.691 192.139 325.941C191.597 326.963 190.715 327.765 189.646 328.208C189.941 332.408 190.346 336.631 190.863 340.795L190.334 340.86C189.828 336.76 189.424 332.605 189.134 328.476C187.485 329.295 185.698 329.803 183.864 329.976C184.247 331.996 185.095 337.427 185.692 342.382L185.16 342.449ZM180.666 328.775C181.013 329.073 181.421 329.291 181.862 329.415C182.302 329.539 182.764 329.565 183.215 329.491C183.072 328.635 182.675 327.842 182.077 327.215C180.689 325.923 179.831 327.875 180.666 328.775ZM189.725 324.991C189.49 325.847 189.449 326.745 189.606 327.619C190.473 327.244 191.188 326.59 191.637 325.76C191.758 325.469 191.76 325.143 191.644 324.851C191.528 324.559 191.302 324.324 191.015 324.195C190.95 324.178 189.939 324.5 189.725 324.992V324.991Z" fill="#FAE0B2"/>
<path d="M182.468 340.711C182.481 340.761 182.499 340.811 182.511 340.859L183.99 346.825C184.186 347.618 184.674 348.308 185.356 348.757C186.038 349.207 186.865 349.382 187.671 349.25L191.371 348.641C192.177 348.508 192.903 348.077 193.405 347.433C193.907 346.789 194.149 345.979 194.081 345.165C193.852 342.425 193.601 340.465 193.567 338.885L182.468 340.711Z" fill="#96D9C9"/>
<path d="M176.919 311.916L173.997 306.582C173.861 306.334 173.83 306.042 173.909 305.771C173.988 305.499 174.172 305.271 174.42 305.135C174.668 304.999 174.96 304.967 175.231 305.047C175.503 305.126 175.731 305.31 175.867 305.558L178.789 310.893C178.925 311.141 178.957 311.433 178.877 311.704C178.798 311.975 178.614 312.204 178.366 312.34C178.118 312.476 177.826 312.507 177.555 312.428C177.284 312.349 177.055 312.165 176.919 311.917V311.916Z" fill="#FAE0B2"/>
<path d="M170.531 324.82L164.161 324.263C164.021 324.251 163.885 324.211 163.761 324.146C163.637 324.082 163.527 323.993 163.437 323.886C163.347 323.779 163.279 323.655 163.237 323.521C163.195 323.388 163.179 323.247 163.192 323.108C163.204 322.968 163.243 322.833 163.308 322.709C163.373 322.584 163.461 322.474 163.568 322.384C163.676 322.294 163.8 322.226 163.933 322.184C164.067 322.142 164.207 322.127 164.347 322.139L170.717 322.696C170.856 322.708 170.992 322.748 171.116 322.812C171.24 322.877 171.35 322.965 171.44 323.073C171.53 323.18 171.598 323.304 171.64 323.437C171.682 323.571 171.698 323.711 171.686 323.851C171.673 323.99 171.634 324.126 171.569 324.25C171.504 324.374 171.416 324.485 171.309 324.575C171.202 324.665 171.078 324.732 170.944 324.775C170.81 324.817 170.67 324.832 170.531 324.82Z" fill="#FAE0B2"/>
<path d="M164.214 344.35C164.116 344.25 164.038 344.132 163.985 344.003C163.932 343.873 163.905 343.734 163.906 343.594C163.907 343.454 163.936 343.316 163.99 343.186C164.044 343.057 164.124 342.94 164.223 342.842C165.793 341.291 167.507 339.894 169.341 338.667C169.458 338.589 169.588 338.534 169.726 338.507C169.863 338.479 170.005 338.479 170.143 338.506C170.28 338.533 170.411 338.587 170.528 338.665C170.644 338.743 170.745 338.843 170.822 338.96C170.9 339.076 170.954 339.207 170.982 339.345C171.009 339.482 171.009 339.624 170.981 339.761C170.953 339.899 170.899 340.03 170.821 340.146C170.742 340.263 170.642 340.362 170.525 340.44C168.805 341.591 167.198 342.904 165.725 344.359C165.626 344.458 165.507 344.536 165.377 344.589C165.247 344.642 165.108 344.669 164.968 344.668C164.828 344.668 164.689 344.639 164.559 344.584C164.43 344.53 164.313 344.45 164.214 344.35Z" fill="#FAE0B2"/>
<path d="M192.657 311.628C192.385 311.555 192.153 311.377 192.011 311.134C191.87 310.89 191.831 310.6 191.902 310.328C192.625 307.622 193.065 304.848 193.216 302.051C193.224 301.911 193.259 301.774 193.319 301.648C193.38 301.522 193.464 301.409 193.569 301.315C193.673 301.222 193.794 301.149 193.926 301.103C194.058 301.056 194.198 301.036 194.338 301.044C194.478 301.051 194.615 301.086 194.741 301.147C194.867 301.207 194.98 301.292 195.074 301.396C195.167 301.501 195.24 301.622 195.286 301.754C195.333 301.886 195.353 302.026 195.345 302.166C195.186 305.11 194.723 308.029 193.962 310.878C193.888 311.15 193.709 311.382 193.465 311.523C193.22 311.663 192.93 311.701 192.657 311.628Z" fill="#FAE0B2"/>
<path d="M199.217 319.817C199.136 319.546 199.165 319.254 199.299 319.005C199.432 318.756 199.66 318.57 199.93 318.489L206.552 316.489C206.822 316.41 207.112 316.44 207.36 316.574C207.607 316.708 207.791 316.935 207.873 317.204C207.954 317.473 207.926 317.763 207.794 318.012C207.662 318.26 207.437 318.446 207.168 318.53L200.545 320.53C200.274 320.611 199.983 320.582 199.734 320.448C199.485 320.315 199.299 320.087 199.217 319.817Z" fill="#FAE0B2"/>
<path d="M210.097 337.435C209.999 337.435 209.902 337.421 209.808 337.395C207.508 336.748 205.285 335.857 203.176 334.737C202.934 334.6 202.756 334.374 202.678 334.108C202.601 333.841 202.63 333.555 202.76 333.31C202.891 333.064 203.111 332.88 203.376 332.795C203.64 332.71 203.927 332.732 204.176 332.855C206.151 333.903 208.232 334.738 210.385 335.343C210.632 335.413 210.846 335.57 210.987 335.785C211.128 336 211.186 336.259 211.151 336.514C211.116 336.769 210.99 337.003 210.796 337.172C210.602 337.341 210.354 337.435 210.097 337.435Z" fill="#FAE0B2"/>
<path d="M307.097 384.558L303.756 376.658L295.356 374.931C295.141 374.887 294.942 374.783 294.783 374.632C294.623 374.48 294.509 374.287 294.453 374.075C294.398 373.862 294.403 373.638 294.468 373.428C294.533 373.218 294.655 373.03 294.821 372.886L301.302 367.267L300.347 358.742C300.323 358.523 300.36 358.302 300.454 358.104C300.549 357.905 300.697 357.737 300.882 357.618C301.068 357.5 301.282 357.435 301.502 357.432C301.722 357.429 301.939 357.487 302.127 357.601L309.473 362.029L317.286 358.487C317.486 358.396 317.708 358.363 317.926 358.392C318.144 358.421 318.35 358.51 318.52 358.649C318.69 358.788 318.818 358.973 318.889 359.181C318.959 359.389 318.971 359.613 318.921 359.827L316.98 368.183L322.763 374.519C322.911 374.681 323.011 374.882 323.051 375.098C323.091 375.315 323.07 375.538 322.99 375.743C322.91 375.948 322.774 376.126 322.598 376.257C322.422 376.389 322.212 376.469 321.993 376.488L313.447 377.224L309.208 384.682C309.099 384.873 308.939 385.03 308.746 385.135C308.553 385.24 308.334 385.289 308.114 385.276C307.894 385.263 307.683 385.189 307.503 385.062C307.323 384.935 307.183 384.761 307.097 384.558Z" fill="#F7CC7F"/>
<path d="M360.285 357.448L358.911 362.979L349.767 361.752L346.76 369.591L339.768 369.791L339.868 373.331L349.221 373.063L352.069 365.634L361.581 366.91L363.648 358.587L360.285 357.448Z" fill="#F48C7F"/>
<path d="M278.821 622.587H118.087C115.084 622.531 112.226 621.285 110.142 619.123C108.057 616.961 106.917 614.06 106.971 611.057V604.202C106.917 601.199 108.057 598.298 110.141 596.136C112.226 593.974 115.084 592.728 118.087 592.672H278.818C275.257 596.758 273.271 601.98 273.216 607.4C273.161 612.819 275.041 618.08 278.518 622.238L278.821 622.587Z" fill="#B75742"/>
<path d="M276.337 596.104H187.187C184.184 596.16 181.327 597.406 179.242 599.568C177.158 601.73 176.017 604.631 176.071 607.634C176.017 610.637 177.158 613.538 179.243 615.7C181.327 617.861 184.185 619.107 187.187 619.163H276.344C274.301 615.664 273.224 611.686 273.222 607.634C273.221 603.583 274.296 599.604 276.337 596.104Z" fill="#FAE0B2"/>
<path d="M222.353 571.901C222.403 571.795 222.423 571.678 222.413 571.561C222.403 571.445 222.362 571.333 222.295 571.237C222.228 571.141 222.137 571.065 222.031 571.015C221.925 570.966 221.808 570.945 221.691 570.955H136.643C129.977 570.955 124.573 575.818 124.573 581.818C124.573 587.818 129.973 592.681 136.643 592.681H221.715C221.832 592.691 221.95 592.67 222.057 592.62C222.163 592.57 222.254 592.493 222.322 592.397C222.389 592.301 222.429 592.188 222.439 592.071C222.449 591.954 222.428 591.836 222.378 591.73C220.725 588.688 219.857 585.281 219.852 581.819C219.848 578.356 220.708 574.947 222.353 571.901Z" fill="#86B1F2"/>
<path d="M221.816 572.977H179.666C171.842 572.977 165.5 577.052 165.5 582.077C165.5 587.102 171.842 591.177 179.666 591.177H222.093C220.668 588.363 219.903 585.262 219.855 582.109C219.807 578.956 220.478 575.833 221.816 572.977Z" fill="#F7CC7F"/>
<path d="M210.931 577.292H205.442C204.261 577.292 203.305 577.692 203.305 578.177V578.256H210.932L210.931 577.292Z" fill="#B75742"/>
<path d="M215.614 579.512C215.614 578.286 214.18 577.292 212.414 577.292H205.37C206.711 577.292 207.799 578.046 207.799 578.976L207.766 602.776L211.658 599.715L215.625 602.776L215.614 579.512Z" fill="#F47458"/>
<path d="M206.716 570.171H157.231C152.843 570.171 149.285 565.949 149.285 560.741C149.285 555.533 152.843 551.31 157.231 551.31H206.716C204.864 553.992 203.842 557.16 203.78 560.419C203.717 563.678 204.615 566.883 206.363 569.635L206.716 570.171Z" fill="#FAE0B2"/>
<path d="M149.289 560.741C149.289 555.533 152.931 551.31 157.422 551.31H207.658C207.779 551.3 207.892 551.243 207.971 551.15C208.05 551.058 208.089 550.938 208.079 550.817C208.087 550.697 208.046 550.579 207.968 550.489C207.889 550.398 207.778 550.342 207.658 550.333H127.965C123.008 550.333 118.989 554.992 118.989 560.741C118.989 566.489 123.008 571.149 127.965 571.149H207.658C207.778 571.14 207.889 571.084 207.968 570.993C208.047 570.903 208.087 570.785 208.08 570.665C208.089 570.544 208.05 570.424 207.971 570.331C207.892 570.239 207.78 570.182 207.658 570.172H157.422C152.931 570.171 149.289 565.949 149.289 560.741Z" fill="#466EB6"/>
<path d="M198.073 555.945H192.584C191.403 555.945 190.447 556.334 190.447 556.813V556.891H198.073V555.945Z" fill="#184655"/>
<path d="M202.758 558.12C202.758 556.92 201.324 555.943 199.558 555.943H192.513C193.854 555.943 194.942 556.683 194.942 557.594L194.909 580.934L198.801 577.934L202.768 580.934L202.758 558.12Z" fill="#3C8F7C"/>
<path d="M285.561 411.775L292.867 409.853L287.915 475.894L279.151 476.186L283.572 414.175C283.612 413.617 283.825 413.086 284.182 412.656C284.538 412.225 285.021 411.917 285.561 411.775Z" fill="#184655"/>
<path d="M288.57 477.777C288.403 477.792 288.236 477.79 288.07 477.77C287.334 477.64 286.676 477.234 286.23 476.635C285.784 476.036 285.584 475.289 285.67 474.547L290.532 412.447C290.54 412.086 290.621 411.73 290.77 411.401C290.92 411.072 291.134 410.777 291.401 410.534C291.669 410.291 291.982 410.104 292.324 409.986C292.665 409.868 293.027 409.821 293.387 409.847C294.123 409.977 294.781 410.383 295.227 410.982C295.673 411.581 295.873 412.328 295.787 413.07L290.925 475.17C290.903 475.812 290.654 476.426 290.224 476.903C289.793 477.38 289.207 477.69 288.57 477.777Z" fill="#F7CC7F"/>
<path d="M221.335 481.084C221.335 481.13 221.335 481.175 221.344 481.221C221.573 483.747 223.531 485.637 225.716 485.441L287.416 479.919C289.602 479.719 291.188 477.519 290.959 474.99C290.949 474.883 290.935 474.778 290.919 474.674L221.335 481.084Z" fill="#F7CC7F"/>
<path d="M264.297 547.785C260.257 550.025 247.908 546.097 247.908 545.742C247.731 549.117 234.08 582.149 234.08 582.149L234.091 592.312C234.091 592.312 262.218 593.653 261.813 591.167C261.408 588.681 259.896 590.298 254.285 585.604C253.785 585.187 245.909 583.359 248.041 578.696C252.336 569.305 261.452 553.648 264.297 547.785Z" fill="#F7A491"/>
<path d="M233.167 592.675L263.956 592.683C265.067 592.57 265.327 591.666 264.935 591.117C264.127 589.985 258.226 587.317 254.26 585.547C247.351 586.354 235.206 583.697 234.095 582.122C231.17 586.039 232.547 592.548 233.167 592.675Z" fill="#3C8F7C"/>
<path d="M226.413 524.068C225.997 522.819 252.922 511.393 254.127 512.698C256.259 515.007 239.559 558.354 239.559 558.354L258.745 564.216C258.745 564.216 278.692 514.136 277.859 504.977C277.026 495.818 267.034 485.409 245.384 492.07C223.734 498.731 226.413 524.068 226.413 524.068Z" fill="#355389"/>
<path d="M282.16 553.483C277.145 552.725 272.08 552.342 267.008 552.338C267.564 556.538 270.263 578.068 269.769 579.391C268.527 582.637 266.271 585.396 263.337 587.259C263.337 587.259 284.244 606.123 285.506 603.944C286.768 601.765 284.574 602.057 283.206 594.87C283.085 594.232 280.062 584.2 279.875 578.789C279.52 568.468 282.004 559.213 282.16 553.483Z" fill="#F7A491"/>
<path d="M275.452 483.043C272.535 481.487 264.963 481.432 256.638 481.972C240.406 483.049 224.378 486.194 208.943 491.333L198.61 494.755L198.644 484.161C198.644 484.161 165.774 478.661 164.63 486.808C162.908 499.076 165.045 523.982 175.997 529.541C210.014 546.808 257.685 502.032 257.857 507.891C258.089 515.758 264.722 545.035 266.417 557.853C271.133 557.935 279.236 557.931 282.75 557.124C283.434 532.016 283.755 487.47 275.452 483.043Z" fill="#466EB6"/>
<path d="M262.7 587.7L286.2 606.474C287.131 607.09 287.9 606.557 287.949 605.883C288.041 604.495 285.169 598.691 283.223 594.809C277.367 591.054 269.644 581.262 269.783 579.34C267.307 581.431 262.3 587.208 262.7 587.7Z" fill="#3C8F7C"/>
<path d="M209.504 380.647C208.714 373.43 207.883 366.187 201.904 360.897C197.062 356.616 190.904 355.891 184.821 358.181C167.575 364.67 176.461 379.981 154.472 395.428C147.639 400.228 140.108 403.51 134.964 409.972C127.764 419.016 130.482 429.894 137.044 437.157C168.444 471.909 203.501 424.976 206.018 413.71C207.887 405.328 210.012 385.292 209.504 380.647Z" fill="#13375B"/>
<path d="M203.127 421.229C201.54 418.314 199.802 415.483 197.92 412.748C195.259 408.019 188.386 405.626 188.386 405.626C188.386 405.626 186.086 405.673 183.447 405.802C183.355 406.131 183.183 406.432 182.947 406.679C181.955 407.423 176.269 406.462 172.596 408.956C160.286 419.508 163.69 470.656 164.659 486.81L202.149 487.165C202.149 487.165 197.423 452.406 205.04 443.475C210.351 437.255 206.933 428.243 203.127 421.229Z" fill="#50BFA5"/>
<path d="M186.228 388.323C186.228 388.323 184.167 403.04 182.728 406.617C181.289 410.194 190.642 417.842 198.428 420.164C206.214 422.486 196.049 412.264 196.372 408.441C196.695 404.618 198.109 386.516 198.109 386.516L186.228 388.323Z" fill="#F7A491"/>
<path d="M197.714 391.706C197.942 388.711 198.107 386.515 198.107 386.515L186.23 388.323C186.23 388.323 185.93 390.052 185.599 392.497C190.414 395.29 194.744 394.409 197.714 391.706Z" fill="#F47458"/>
<path d="M189.954 361.441C186.86 362.304 184.175 364.242 182.382 366.908C179.491 371.319 177.508 384.308 187.029 390.368C196.55 396.428 203.954 387.855 204.077 379.492C204.2 371.129 202.407 359.966 189.954 361.441Z" fill="#F7A491"/>
<path d="M206.255 376.873C205.443 378.891 203.831 380.144 202.655 379.673C201.479 379.202 201.185 377.18 201.997 375.162C202.809 373.144 204.42 371.891 205.597 372.362C206.774 372.833 207.068 374.857 206.255 376.873Z" fill="#F7A491"/>
<path d="M191.359 361.164C191.359 361.164 185.39 374.552 180.146 375.747C174.902 376.942 174.978 383.679 174.978 383.679C174.978 383.679 175.095 368.123 180.01 364.555C184.925 360.987 191.359 361.164 191.359 361.164Z" fill="#13375B"/>
<path d="M182.229 378.532C182.919 380.706 182.287 382.847 180.818 383.313C179.349 383.779 177.598 382.396 176.907 380.221C176.216 378.046 176.849 375.906 178.318 375.44C179.787 374.974 181.538 376.358 182.229 378.532Z" fill="#F7A491"/>
<path d="M249.287 475.183C247.037 474.37 243.687 474.269 243.745 473.971C243.971 472.771 253.908 476.624 252.565 474.871C251.818 473.895 244.381 470.435 242.573 471.007C240.819 471.561 229.302 474.793 229.302 474.793L197.826 467.416C197.826 467.416 189.881 449.362 189.106 433.851C183.193 434.571 177.492 436.504 172.36 439.53C175.112 454.363 181.803 478.407 189.199 482.919C192.31 484.819 229.459 480.647 229.459 480.647C229.459 480.647 237.645 480.069 238.983 479.554C239.998 479.163 242.61 477.693 244.031 477.29C247.261 476.375 253.015 478.671 253.031 478.039C253.045 477.579 251.585 476.014 249.287 475.183Z" fill="#F7A491"/>
<path d="M189.298 417.279C188.998 412.506 187.188 407.898 182.109 406.414C180.527 405.994 178.868 405.957 177.269 406.308C175.67 406.658 174.178 407.385 172.916 408.429C169.924 410.873 169.088 414.794 169.102 418.504C169.062 427.036 169.78 435.555 171.247 443.96C177.141 440.83 183.561 438.809 190.185 438C190.183 437.95 189.699 423.587 189.298 417.279Z" fill="#96D9C9"/>
<path d="M91.7813 426.284L42.9814 417.197C42.7485 417.154 42.5264 417.066 42.3278 416.937C42.1292 416.808 41.9578 416.641 41.8236 416.446C41.6895 416.251 41.5952 416.032 41.5461 415.8C41.4969 415.569 41.4939 415.33 41.5373 415.097L47.6503 382.269C47.738 381.799 48.0083 381.383 48.4019 381.113C48.7955 380.842 49.2804 380.739 49.7503 380.825L98.5503 389.912C98.7834 389.955 99.0056 390.044 99.2043 390.173C99.4029 390.303 99.5742 390.47 99.7083 390.665C99.8424 390.861 99.9367 391.081 99.9858 391.313C100.035 391.544 100.038 391.784 99.9943 392.017L93.8813 424.84C93.7936 425.309 93.5233 425.725 93.1297 425.996C92.736 426.266 92.2512 426.37 91.7813 426.284Z" fill="#F7CC7F"/>
<path d="M68.5483 388.756L53.6943 385.99C53.2247 385.902 52.8091 385.632 52.5384 385.238C52.2677 384.845 52.1641 384.36 52.2503 383.89L53.1803 378.89C53.2231 378.657 53.3115 378.435 53.4403 378.236C53.569 378.038 53.7357 377.866 53.9308 377.732C54.1258 377.598 54.3454 377.504 54.577 377.455C54.8086 377.405 55.0476 377.403 55.2804 377.446L70.1344 380.212C70.604 380.3 71.0196 380.57 71.2902 380.964C71.5609 381.357 71.6645 381.842 71.5783 382.312L70.6483 387.312C70.5606 387.781 70.2903 388.197 69.8967 388.468C69.5031 388.738 69.0182 388.842 68.5483 388.756Z" fill="#F7CC7F"/>
<path d="M93.9997 425.029C93.8773 425.462 93.5974 425.834 93.2148 426.072C92.8321 426.309 92.3744 426.395 91.9317 426.313L42.8147 417.167C42.3737 417.085 41.9791 416.841 41.7077 416.484C41.4363 416.127 41.3076 415.682 41.3467 415.235L43.9178 385.809C43.9397 385.558 44.0139 385.315 44.1355 385.094C44.2572 384.874 44.4236 384.681 44.6241 384.529C44.8246 384.377 45.0547 384.268 45.2997 384.21C45.5447 384.152 45.7992 384.146 46.0467 384.192L100.611 394.353C100.858 394.398 101.093 394.494 101.3 394.636C101.508 394.777 101.683 394.96 101.816 395.174C101.948 395.387 102.035 395.626 102.07 395.874C102.104 396.123 102.087 396.376 102.018 396.618L93.9997 425.029Z" fill="#FAE0B2"/>
<path d="M317.817 317.508L309.461 319.789L307.661 309.663L310.396 309.177L311.663 316.309L317.085 314.828L317.817 317.508Z" fill="#50BFA5"/>
<path d="M51.6006 456.577C53.965 456.525 56.2983 457.122 58.3466 458.305C59.8589 459.197 61.1027 460.48 61.9467 462.02L61.5586 462.288C60.3796 460.926 58.8103 459.961 57.0636 459.523C55.4185 459.114 53.7004 459.097 52.0476 459.474L51.6006 456.577Z" fill="#355389"/>
<path d="M61.7476 462.154C61.7476 462.154 48.9977 464.282 50.1867 474.242C51.3757 484.202 64.8266 491.951 76.8316 485.791C92.9816 477.504 86.6026 456.436 75.1076 454.806C63.6126 453.176 61.7476 462.154 61.7476 462.154Z" fill="#F47458"/>
<path d="M67.1566 457.768C67.1566 457.768 70.4825 454.353 77.7715 457.46C85.0605 460.567 85.5876 475.06 79.0866 474.214C72.5856 473.368 61.9596 459.858 67.1566 457.768Z" fill="#F48C7F"/>
<path d="M154.869 325.444L102.434 344.15C102.032 344.293 101.606 344.356 101.179 344.335C100.753 344.313 100.335 344.208 99.9498 344.025C99.5643 343.843 99.2185 343.586 98.9323 343.269C98.646 342.953 98.4249 342.583 98.2816 342.181L88.6027 315.047C88.3134 314.235 88.3583 313.342 88.7276 312.563C89.0968 311.785 89.7601 311.185 90.5717 310.895L143.011 292.189C143.413 292.046 143.839 291.983 144.265 292.004C144.691 292.025 145.109 292.131 145.495 292.313C145.88 292.496 146.226 292.753 146.512 293.07C146.798 293.386 147.019 293.756 147.163 294.158L156.842 321.292C156.985 321.694 157.047 322.12 157.026 322.547C157.004 322.973 156.899 323.391 156.715 323.777C156.532 324.162 156.275 324.508 155.958 324.794C155.641 325.08 155.271 325.301 154.869 325.444Z" fill="#059995"/>
<path d="M120.111 318.47C120.801 320.406 120.901 322.503 120.399 324.496C119.897 326.489 118.816 328.289 117.291 329.667C115.766 331.045 113.867 331.941 111.834 332.24C109.801 332.539 107.724 332.228 105.867 331.347C104.01 330.466 102.456 329.054 101.402 327.29C100.347 325.526 99.8396 323.489 99.9428 321.436C100.046 319.384 100.756 317.408 101.982 315.758C103.208 314.109 104.896 312.86 106.832 312.17C108.117 311.711 109.481 311.511 110.844 311.579C112.207 311.648 113.543 311.984 114.776 312.569C116.009 313.154 117.115 313.977 118.03 314.989C118.946 316.001 119.652 317.184 120.111 318.47Z" fill="white"/>
<path d="M111.812 317.02C112.016 317.591 112.046 318.209 111.898 318.797C111.75 319.384 111.431 319.915 110.981 320.321C110.532 320.728 109.972 320.992 109.373 321.08C108.773 321.168 108.161 321.077 107.613 320.817C107.066 320.557 106.608 320.141 106.297 319.621C105.986 319.101 105.836 318.501 105.866 317.895C105.896 317.29 106.105 316.708 106.467 316.221C106.828 315.735 107.326 315.367 107.896 315.163C108.275 315.028 108.678 314.968 109.08 314.988C109.481 315.009 109.876 315.108 110.239 315.28C110.603 315.453 110.929 315.695 111.199 315.994C111.469 316.292 111.677 316.641 111.812 317.02Z" fill="#86B1F2"/>
<path d="M110.446 322.807L110.761 322.695C111.942 322.273 113.243 322.339 114.377 322.876C115.51 323.413 116.384 324.379 116.805 325.561L107.581 328.851C107.373 328.266 107.281 327.646 107.312 327.025C107.343 326.405 107.496 325.797 107.762 325.236C108.028 324.674 108.402 324.171 108.863 323.754C109.323 323.338 109.861 323.016 110.446 322.807V322.807Z" fill="#86B1F2"/>
<path d="M121.403 312.795C121.09 312.796 120.787 312.686 120.548 312.484C120.308 312.283 120.148 312.004 120.095 311.696C120.041 311.387 120.099 311.07 120.257 310.801C120.415 310.531 120.663 310.325 120.958 310.221L143.882 302.044C144.213 301.926 144.578 301.944 144.896 302.095C145.214 302.246 145.459 302.517 145.577 302.848C145.696 303.18 145.677 303.545 145.526 303.863C145.375 304.181 145.104 304.426 144.773 304.544L121.849 312.721C121.706 312.771 121.555 312.796 121.403 312.795Z" fill="white"/>
<path d="M127.591 318.512C127.279 318.511 126.978 318.4 126.739 318.199C126.501 317.998 126.341 317.719 126.288 317.412C126.235 317.104 126.292 316.788 126.449 316.518C126.606 316.249 126.853 316.043 127.146 315.938L145.046 309.551C145.378 309.433 145.743 309.451 146.061 309.602C146.379 309.753 146.624 310.024 146.742 310.355C146.86 310.687 146.842 311.052 146.691 311.37C146.54 311.688 146.269 311.933 145.937 312.051L128.037 318.438C127.894 318.488 127.743 318.513 127.591 318.512Z" fill="white"/>
<path d="M236.347 530.109H109.726C108.791 530.109 107.866 530.293 107.002 530.651C106.138 531.009 105.353 531.533 104.692 532.194C104.031 532.856 103.507 533.64 103.149 534.504C102.791 535.368 102.607 536.294 102.607 537.229V543.217C102.607 545.105 103.358 546.916 104.693 548.251C106.028 549.586 107.838 550.336 109.726 550.336H236.347L236.281 550.267C233.676 547.554 232.226 543.936 232.239 540.175C232.251 536.413 233.724 532.804 236.347 530.109Z" fill="#F47458"/>
<path d="M234.105 533.103H166.416C164.528 533.103 162.716 533.853 161.381 535.188C160.046 536.523 159.296 538.334 159.296 540.223C159.296 541.158 159.48 542.084 159.838 542.947C160.196 543.811 160.72 544.596 161.381 545.257C162.043 545.918 162.827 546.442 163.691 546.8C164.555 547.158 165.481 547.342 166.416 547.342H234.104C232.881 545.168 232.239 542.716 232.239 540.222C232.239 537.728 232.882 535.276 234.105 533.103Z" fill="#FAE0B2"/>
<path d="M339.979 530.691L330.379 506.611C330.264 506.323 330.207 506.015 330.211 505.705C330.215 505.395 330.28 505.089 330.403 504.804C330.525 504.519 330.703 504.261 330.925 504.044C331.147 503.828 331.41 503.658 331.698 503.543L366.236 489.777C366.817 489.545 367.467 489.554 368.042 489.801C368.618 490.049 369.071 490.514 369.303 491.096L378.903 515.176C379.018 515.464 379.075 515.772 379.071 516.082C379.067 516.392 379.001 516.698 378.879 516.983C378.756 517.268 378.579 517.526 378.357 517.742C378.135 517.959 377.872 518.129 377.584 518.244L343.046 532.01C342.464 532.242 341.814 532.233 341.239 531.985C340.664 531.738 340.211 531.272 339.979 530.691Z" fill="#FAE0B2"/>
<path d="M372.561 516.767L363.936 495.129C363.869 494.962 363.872 494.775 363.943 494.61C364.014 494.445 364.147 494.315 364.314 494.248C364.397 494.215 364.485 494.198 364.574 494.2C364.663 494.201 364.751 494.22 364.833 494.255C364.914 494.29 364.989 494.341 365.051 494.405C365.113 494.469 365.161 494.544 365.194 494.627L373.819 516.266C373.852 516.348 373.869 516.437 373.867 516.526C373.866 516.615 373.848 516.702 373.813 516.784C373.777 516.866 373.727 516.94 373.663 517.002C373.599 517.064 373.524 517.113 373.441 517.146C373.359 517.179 373.27 517.195 373.181 517.194C373.092 517.193 373.004 517.174 372.923 517.139C372.841 517.104 372.767 517.053 372.705 516.989C372.643 516.925 372.594 516.85 372.561 516.767Z" fill="#466EB6"/>
<path d="M368.45 513.916L361.369 496.15C361.303 495.983 361.305 495.796 361.377 495.631C361.448 495.466 361.581 495.336 361.748 495.27C361.915 495.204 362.102 495.206 362.267 495.277C362.432 495.348 362.562 495.482 362.628 495.649L369.709 513.415C369.742 513.498 369.759 513.586 369.757 513.675C369.756 513.764 369.738 513.852 369.702 513.933C369.667 514.015 369.617 514.089 369.553 514.151C369.489 514.213 369.414 514.262 369.331 514.295C369.248 514.328 369.16 514.344 369.071 514.343C368.982 514.342 368.894 514.323 368.812 514.288C368.73 514.253 368.656 514.202 368.594 514.138C368.532 514.074 368.483 513.999 368.45 513.916Z" fill="#466EB6"/>
<path d="M367.427 518.812L358.802 497.173C358.769 497.09 358.753 497.002 358.754 496.913C358.755 496.824 358.774 496.736 358.809 496.655C358.844 496.573 358.895 496.499 358.959 496.437C359.022 496.375 359.098 496.326 359.18 496.293C359.347 496.227 359.534 496.229 359.699 496.3C359.864 496.371 359.994 496.505 360.06 496.672L368.685 518.311C368.718 518.394 368.735 518.482 368.733 518.571C368.732 518.66 368.714 518.748 368.679 518.829C368.643 518.911 368.593 518.985 368.529 519.047C368.465 519.109 368.39 519.158 368.307 519.191C368.14 519.257 367.954 519.255 367.789 519.184C367.624 519.112 367.494 518.979 367.427 518.812Z" fill="#466EB6"/>
<path d="M362.893 514.898L356.236 498.198C356.17 498.031 356.173 497.845 356.244 497.68C356.314 497.515 356.448 497.385 356.615 497.318C356.781 497.252 356.968 497.254 357.133 497.325C357.298 497.396 357.428 497.529 357.495 497.696L364.151 514.396C364.218 514.563 364.215 514.749 364.144 514.914C364.073 515.079 363.939 515.209 363.773 515.276C363.606 515.342 363.42 515.339 363.255 515.268C363.09 515.198 362.96 515.064 362.893 514.898Z" fill="#466EB6"/>
<path d="M372.327 492.822L372.154 492.386C372.141 492.348 372.12 492.313 372.094 492.284C372.067 492.254 372.034 492.23 371.998 492.213C371.962 492.196 371.923 492.186 371.883 492.185C371.843 492.183 371.803 492.19 371.765 492.204L368.487 493.511C368.45 493.526 368.417 493.549 368.389 493.578C368.361 493.606 368.339 493.64 368.324 493.678C368.309 493.715 368.302 493.755 368.303 493.795C368.304 493.835 368.313 493.874 368.329 493.911L368.503 494.347C368.516 494.385 368.537 494.419 368.564 494.449C368.591 494.479 368.623 494.503 368.66 494.52C368.696 494.537 368.735 494.546 368.775 494.548C368.815 494.549 368.855 494.543 368.892 494.529L372.17 493.222C372.207 493.206 372.241 493.184 372.269 493.155C372.297 493.126 372.318 493.092 372.333 493.055C372.348 493.018 372.355 492.978 372.354 492.938C372.353 492.898 372.344 492.858 372.327 492.822Z" fill="#355389"/>
<path d="M373.071 494.685L372.897 494.249C372.884 494.211 372.864 494.176 372.837 494.147C372.81 494.117 372.778 494.093 372.741 494.076C372.705 494.059 372.666 494.049 372.626 494.048C372.586 494.046 372.546 494.053 372.508 494.067L369.23 495.374C369.193 495.389 369.16 495.412 369.132 495.441C369.104 495.47 369.082 495.503 369.067 495.541C369.053 495.578 369.046 495.618 369.047 495.658C369.048 495.698 369.057 495.737 369.073 495.774L369.247 496.21C369.261 496.247 369.281 496.282 369.308 496.312C369.335 496.341 369.367 496.365 369.403 496.382C369.44 496.399 369.479 496.408 369.518 496.41C369.558 496.411 369.598 496.405 369.635 496.391L372.913 495.085C372.95 495.069 372.984 495.047 373.012 495.018C373.04 494.989 373.062 494.956 373.077 494.918C373.092 494.881 373.099 494.841 373.098 494.801C373.097 494.761 373.088 494.721 373.071 494.685Z" fill="#355389"/>
<path d="M373.814 496.549L373.64 496.113C373.626 496.075 373.606 496.04 373.579 496.011C373.552 495.981 373.52 495.957 373.483 495.94C373.447 495.923 373.408 495.913 373.368 495.912C373.328 495.91 373.288 495.917 373.251 495.931L369.973 497.238C369.936 497.253 369.902 497.276 369.874 497.305C369.846 497.334 369.824 497.367 369.81 497.405C369.795 497.442 369.788 497.482 369.789 497.522C369.79 497.562 369.799 497.601 369.816 497.638L369.99 498.074C370.003 498.112 370.023 498.146 370.05 498.176C370.077 498.206 370.109 498.23 370.146 498.247C370.182 498.264 370.221 498.273 370.261 498.275C370.301 498.276 370.341 498.27 370.379 498.256L373.657 496.949C373.694 496.933 373.727 496.911 373.755 496.882C373.783 496.853 373.805 496.819 373.819 496.782C373.834 496.745 373.841 496.705 373.84 496.665C373.839 496.625 373.83 496.585 373.814 496.549Z" fill="#355389"/>
<path d="M374.558 498.413L374.384 497.977C374.37 497.939 374.35 497.904 374.323 497.875C374.296 497.845 374.264 497.821 374.228 497.804C374.191 497.787 374.152 497.777 374.112 497.776C374.072 497.774 374.032 497.781 373.995 497.795L370.717 499.102C370.68 499.118 370.646 499.14 370.619 499.169C370.591 499.198 370.568 499.232 370.554 499.269C370.539 499.306 370.532 499.346 370.533 499.386C370.534 499.426 370.543 499.465 370.56 499.502L370.734 499.938C370.747 499.976 370.768 500.01 370.795 500.04C370.821 500.069 370.854 500.093 370.89 500.11C370.926 500.127 370.966 500.137 371.005 500.138C371.045 500.14 371.085 500.133 371.123 500.119L374.401 498.813C374.438 498.797 374.471 498.775 374.499 498.746C374.527 498.717 374.549 498.683 374.564 498.646C374.578 498.609 374.585 498.569 374.584 498.529C374.583 498.489 374.574 498.449 374.558 498.413Z" fill="#355389"/>
<path d="M375.299 500.276L375.126 499.84C375.113 499.802 375.092 499.767 375.065 499.738C375.038 499.708 375.006 499.684 374.97 499.667C374.934 499.65 374.894 499.64 374.854 499.639C374.814 499.637 374.774 499.644 374.737 499.658L371.459 500.965C371.422 500.98 371.389 501.003 371.361 501.032C371.333 501.061 371.311 501.094 371.296 501.132C371.281 501.169 371.274 501.209 371.275 501.249C371.276 501.289 371.285 501.328 371.302 501.365L371.476 501.801C371.489 501.839 371.51 501.873 371.536 501.903C371.563 501.933 371.596 501.957 371.632 501.974C371.668 501.991 371.708 502 371.748 502.002C371.788 502.003 371.827 501.997 371.865 501.983L375.143 500.676C375.18 500.66 375.213 500.637 375.241 500.609C375.269 500.58 375.291 500.546 375.305 500.509C375.32 500.471 375.327 500.432 375.326 500.392C375.324 500.352 375.315 500.312 375.299 500.276Z" fill="#355389"/>
<path d="M376.041 502.14L375.867 501.705C375.854 501.667 375.834 501.632 375.807 501.603C375.78 501.573 375.747 501.549 375.711 501.532C375.675 501.515 375.636 501.505 375.596 501.504C375.556 501.502 375.516 501.509 375.478 501.523L372.2 502.83C372.163 502.845 372.13 502.868 372.102 502.897C372.074 502.926 372.052 502.959 372.037 502.997C372.023 503.034 372.016 503.074 372.017 503.114C372.018 503.154 372.027 503.193 372.043 503.23L372.217 503.665C372.231 503.703 372.251 503.737 372.278 503.767C372.305 503.797 372.337 503.821 372.373 503.838C372.41 503.855 372.449 503.864 372.489 503.866C372.529 503.867 372.569 503.861 372.606 503.847L375.884 502.541C375.921 502.525 375.955 502.503 375.983 502.474C376.011 502.445 376.033 502.411 376.048 502.374C376.062 502.336 376.069 502.296 376.068 502.256C376.067 502.216 376.058 502.176 376.041 502.14Z" fill="#355389"/>
<path d="M376.785 504.004L376.611 503.568C376.598 503.53 376.578 503.495 376.551 503.466C376.524 503.436 376.491 503.412 376.455 503.395C376.419 503.378 376.38 503.368 376.34 503.367C376.3 503.365 376.26 503.372 376.223 503.386L372.944 504.692C372.908 504.707 372.874 504.73 372.846 504.759C372.818 504.788 372.796 504.821 372.782 504.859C372.767 504.896 372.76 504.936 372.761 504.976C372.762 505.016 372.771 505.055 372.787 505.092L372.962 505.528C372.975 505.566 372.995 505.6 373.022 505.63C373.049 505.66 373.081 505.684 373.118 505.701C373.154 505.718 373.193 505.727 373.233 505.729C373.273 505.73 373.313 505.724 373.35 505.71L376.629 504.403C376.665 504.387 376.699 504.365 376.726 504.336C376.754 504.307 376.776 504.274 376.791 504.236C376.805 504.199 376.813 504.16 376.812 504.12C376.811 504.08 376.802 504.04 376.785 504.004Z" fill="#355389"/>
<path d="M377.528 505.868L377.354 505.432C377.341 505.394 377.321 505.359 377.294 505.33C377.267 505.3 377.234 505.276 377.198 505.259C377.162 505.242 377.123 505.232 377.083 505.231C377.043 505.229 377.003 505.236 376.965 505.25L373.687 506.557C373.65 506.572 373.617 506.595 373.589 506.624C373.561 506.652 373.538 506.686 373.524 506.724C373.509 506.761 373.502 506.801 373.503 506.841C373.504 506.881 373.513 506.92 373.529 506.957L373.703 507.393C373.716 507.431 373.737 507.465 373.764 507.495C373.791 507.525 373.823 507.549 373.859 507.566C373.896 507.583 373.935 507.592 373.975 507.594C374.015 507.595 374.055 507.589 374.092 507.575L377.37 506.269C377.407 506.254 377.441 506.231 377.469 506.202C377.497 506.173 377.52 506.139 377.534 506.102C377.549 506.064 377.556 506.024 377.555 505.984C377.554 505.944 377.545 505.905 377.528 505.868Z" fill="#355389"/>
<path d="M378.271 507.735L378.098 507.299C378.085 507.261 378.064 507.226 378.037 507.197C378.01 507.167 377.978 507.143 377.941 507.126C377.905 507.109 377.866 507.099 377.826 507.098C377.786 507.096 377.746 507.103 377.709 507.117L374.431 508.424C374.394 508.439 374.36 508.462 374.332 508.491C374.304 508.52 374.283 508.553 374.268 508.591C374.253 508.628 374.246 508.668 374.247 508.708C374.248 508.748 374.257 508.787 374.274 508.824L374.447 509.259C374.46 509.297 374.481 509.331 374.507 509.361C374.534 509.391 374.567 509.415 374.603 509.432C374.639 509.449 374.678 509.458 374.718 509.46C374.758 509.461 374.798 509.455 374.836 509.441L378.114 508.134C378.151 508.118 378.184 508.096 378.212 508.067C378.24 508.038 378.262 508.005 378.276 507.967C378.291 507.93 378.298 507.891 378.297 507.851C378.296 507.811 378.287 507.771 378.271 507.735Z" fill="#355389"/>
<path d="M379.015 509.595L378.841 509.159C378.827 509.121 378.807 509.086 378.78 509.057C378.753 509.027 378.721 509.003 378.684 508.986C378.648 508.969 378.609 508.959 378.569 508.958C378.529 508.956 378.489 508.963 378.452 508.977L375.174 510.284C375.137 510.299 375.103 510.322 375.075 510.351C375.047 510.379 375.025 510.413 375.01 510.451C374.995 510.488 374.988 510.528 374.989 510.568C374.99 510.608 374.999 510.647 375.016 510.684L375.19 511.12C375.203 511.158 375.223 511.192 375.25 511.222C375.277 511.252 375.31 511.275 375.346 511.292C375.382 511.309 375.422 511.319 375.462 511.32C375.501 511.322 375.541 511.315 375.579 511.301L378.857 509.995C378.894 509.98 378.927 509.957 378.955 509.928C378.983 509.9 379.005 509.866 379.02 509.828C379.035 509.791 379.042 509.751 379.041 509.711C379.04 509.671 379.031 509.632 379.015 509.595Z" fill="#355389"/>
<path d="M379.756 511.459L379.582 511.023C379.569 510.985 379.548 510.95 379.521 510.921C379.494 510.891 379.462 510.867 379.426 510.851C379.389 510.834 379.35 510.824 379.31 510.823C379.27 510.821 379.23 510.828 379.193 510.842L375.915 512.148C375.878 512.163 375.845 512.186 375.817 512.215C375.789 512.243 375.767 512.278 375.752 512.315C375.738 512.352 375.731 512.392 375.732 512.432C375.733 512.472 375.742 512.511 375.758 512.548L375.932 512.984C375.945 513.022 375.966 513.056 375.993 513.086C376.019 513.116 376.052 513.14 376.088 513.157C376.124 513.174 376.164 513.183 376.204 513.185C376.244 513.186 376.284 513.18 376.321 513.166L379.599 511.859C379.636 511.843 379.669 511.821 379.697 511.792C379.725 511.763 379.747 511.729 379.762 511.692C379.776 511.655 379.784 511.615 379.783 511.575C379.782 511.535 379.772 511.495 379.756 511.459Z" fill="#355389"/>
<path d="M380.498 513.322L380.325 512.886C380.312 512.848 380.292 512.813 380.265 512.784C380.238 512.754 380.205 512.73 380.169 512.713C380.133 512.696 380.094 512.686 380.054 512.685C380.014 512.683 379.974 512.69 379.936 512.704L376.658 514.011C376.621 514.026 376.588 514.049 376.56 514.078C376.532 514.107 376.51 514.14 376.495 514.178C376.481 514.215 376.474 514.255 376.475 514.295C376.476 514.335 376.485 514.374 376.501 514.411L376.674 514.847C376.687 514.885 376.708 514.919 376.735 514.949C376.762 514.979 376.794 515.003 376.83 515.02C376.867 515.037 376.906 515.046 376.946 515.048C376.986 515.049 377.026 515.043 377.063 515.029L380.341 513.722C380.378 513.706 380.412 513.684 380.44 513.655C380.468 513.626 380.489 513.592 380.504 513.555C380.519 513.518 380.526 513.478 380.525 513.438C380.524 513.398 380.515 513.358 380.498 513.322Z" fill="#355389"/>
<path d="M389.555 511.403L375.847 530.922C375.816 530.965 375.792 531.013 375.776 531.064L374.376 535.353C374.341 535.461 374.341 535.578 374.377 535.687C374.412 535.795 374.482 535.889 374.575 535.955C374.667 536.022 374.779 536.057 374.893 536.055C375.007 536.054 375.117 536.016 375.209 535.948L378.878 533.183C378.922 533.149 378.962 533.109 378.994 533.063L392.737 513.494C392.778 513.435 392.808 513.368 392.823 513.297C392.838 513.226 392.838 513.153 392.824 513.081C392.81 513.01 392.782 512.943 392.741 512.883C392.7 512.823 392.648 512.772 392.587 512.733L390.28 511.26C390.164 511.186 390.024 511.16 389.889 511.187C389.754 511.214 389.634 511.291 389.555 511.403Z" fill="#B75742"/>
<path d="M378.983 533.085L378.949 533.133L375.409 535.801L374.444 535.155L375.768 531.09C376.913 531.63 377.991 532.299 378.983 533.085Z" fill="#F7CC7F"/>
<path d="M250.684 300.096C252.657 301.671 256.09 306.738 260.469 310.296C263.031 312.377 265.004 311.847 268.274 312.243C283.789 314.118 279.585 317.29 281.445 317.601C280.917 318.817 276.083 329.092 275.18 331.169C274.881 332.044 274.273 332.779 273.47 333.237C272.667 333.694 271.724 333.842 270.82 333.653C267.612 333.209 264.374 332.88 261.22 332.195C253.12 330.439 248.62 326.389 242.814 321.471C242.092 320.936 241.584 320.162 241.379 319.288C241.174 318.413 241.285 317.494 241.693 316.694C244.289 310.953 247.294 305.406 250.684 300.096Z" fill="#059995"/>
<path d="M283.128 329.961C283.058 333.342 283.317 334.021 281.865 333.508C280.991 333.187 280.141 332.807 279.319 332.371C278.736 332.071 278.719 331.671 279.187 331.199C279.876 330.507 280.587 329.834 281.272 329.163C281.035 328.504 281.037 327.783 281.277 327.125C281.517 326.467 281.98 325.915 282.585 325.563C282.838 325.415 282.653 325.729 284.814 320.756C277.669 319.874 272.627 319.283 263.914 318.211C261.625 317.94 259.466 317.001 257.708 315.511C251.481 310.302 245.257 305.09 239.034 299.877C238.839 299.736 238.675 299.556 238.553 299.347C238.432 299.139 238.355 298.908 238.329 298.668C238.302 298.429 238.326 298.186 238.399 297.957C238.473 297.727 238.593 297.515 238.753 297.335C238.994 297.079 239.3 296.892 239.638 296.796C239.977 296.699 240.335 296.696 240.675 296.787C242.665 297.036 262.175 299.46 264.151 299.687C266.698 299.965 269.103 300.999 271.057 302.656C277.174 307.778 283.298 312.891 289.431 317.995C290.271 318.695 290.499 319.34 290.204 320.121C290.136 320.328 290.027 320.519 289.884 320.683C289.741 320.847 289.566 320.982 289.371 321.078C289.175 321.174 288.963 321.231 288.745 321.244C288.528 321.258 288.31 321.228 288.104 321.156C287.331 320.989 286.989 321.222 286.723 321.938C285.523 325.172 284.684 325.888 284.973 327.069C285.189 327.983 284.106 329.565 283.128 329.961Z" fill="#86B1F2"/>
<path d="M315.487 559.644L319.042 563.034C327.45 571.053 334.308 580.554 339.269 591.061L339.813 592.215C339.813 592.215 349.122 593.037 350.422 584.622C342.341 575.541 335.471 565.452 329.984 554.605L328.301 550.669L315.487 559.644Z" fill="#466EB6"/>
<path d="M328.294 550.658C328.751 551.313 326.254 553.844 322.717 556.31C319.18 558.776 315.927 560.275 315.47 559.621C315.013 558.967 317.526 556.405 321.063 553.938C324.6 551.471 327.837 550.004 328.294 550.658Z" fill="#86B1F2"/>
<path d="M328.308 550.68L328.297 550.667C328.297 550.667 321.211 556.667 318.29 557.277L319.19 558.505C320.405 557.837 321.582 557.103 322.715 556.305C326.213 553.872 328.692 551.372 328.308 550.68Z" fill="#355389"/>
<path d="M337.775 568.096C337.788 569.13 337.393 573.596 329.968 575.455C330.456 576.122 330.936 576.793 331.408 577.469C336.108 576.08 338.221 573.669 339.171 571.83C339.321 571.54 339.503 571.149 339.623 570.848C338.996 569.938 338.38 569.02 337.775 568.096Z" fill="#B75742"/>
<path d="M330.633 574.135L319.706 573.744L322.295 575.944L320.748 578.752L331.09 576.115L330.633 574.135Z" fill="#B75742"/>
<path d="M331.63 576.677L327.747 583.44L330.477 582.4L331.529 584.548L333.354 577.435L331.63 576.677Z" fill="#B75742"/>
<path d="M333.112 578.51C332.401 578.582 331.685 578.439 331.055 578.102C330.425 577.764 329.911 577.246 329.577 576.614C329.244 575.982 329.106 575.265 329.183 574.555C329.259 573.844 329.546 573.173 330.006 572.626C330.466 572.079 331.079 571.682 331.766 571.486C332.453 571.29 333.183 571.303 333.863 571.524C334.542 571.745 335.14 572.164 335.58 572.727C336.02 573.29 336.282 573.971 336.333 574.684C336.413 575.618 336.119 576.546 335.515 577.264C334.911 577.981 334.047 578.429 333.112 578.51Z" fill="#F47458"/>
<path d="M356.305 425.061L333.294 404.527C331.794 403.193 332.421 400.447 334.484 399.279L352.849 388.879C353.354 388.55 353.949 388.388 354.551 388.416C355.152 388.445 355.73 388.661 356.201 389.036L379.212 409.57C380.712 410.904 380.085 413.65 378.022 414.818L359.657 425.218C359.153 425.546 358.558 425.708 357.956 425.68C357.354 425.652 356.777 425.435 356.305 425.061Z" fill="#9BC1F9"/>
<path d="M355.215 408.727L353.297 392.951C353.276 392.635 353.362 392.322 353.54 392.06C353.718 391.799 353.978 391.605 354.28 391.509C354.411 391.456 354.552 391.434 354.692 391.445C354.833 391.456 354.969 391.499 355.09 391.572C355.211 391.644 355.313 391.743 355.39 391.862C355.466 391.98 355.513 392.115 355.529 392.255L357.295 406.772L374.744 410.991C374.881 411.031 375.007 411.1 375.114 411.195C375.221 411.289 375.305 411.407 375.361 411.538C375.417 411.669 375.444 411.811 375.438 411.953C375.432 412.096 375.395 412.235 375.329 412.362C375.221 412.656 375.015 412.903 374.746 413.062C374.476 413.221 374.16 413.281 373.851 413.233L355.215 408.727Z" fill="white"/>
<path d="M54.7294 336.465L57.1084 341.17L62.4823 340.996L64.7754 346.459L70.4424 344.509L73.3074 350.573L78.7463 349.421L82.4574 354.804L80.4203 356.204L77.6454 352.179L71.9054 353.395L69.1504 347.566L63.3893 349.549L60.8594 343.521L55.6113 343.691L53.4114 339.33L49.9883 340.162L49.4033 337.762L54.7294 336.465Z" fill="#F7CC7F"/>
<path d="M342.505 456.831L347.389 458.816L351.326 455.155L356.644 457.768L359.635 452.575L365.779 455.264L369.123 450.822L375.457 452.443L374.844 454.843L370.108 453.631L366.579 458.318L360.673 455.733L357.632 461.013L351.764 458.13L347.919 461.705L343.392 459.865L341.358 462.741L339.337 461.312L342.505 456.831Z" fill="#50BFA5"/>
<path d="M76.4307 114.17C75.7507 112.606 74.7081 111.382 73.3027 110.498C71.9201 109.591 70.2881 109.138 68.4067 109.138C66.6387 109.138 65.0521 109.546 63.6467 110.362C62.2414 111.178 61.1307 112.345 60.3147 113.864C59.4987 115.36 59.0907 117.105 59.0907 119.1C59.0907 121.095 59.4987 122.851 60.3147 124.37C61.1307 125.889 62.2414 127.056 63.6467 127.872C65.0521 128.688 66.6387 129.096 68.4067 129.096C70.0614 129.096 71.5461 128.745 72.8607 128.042C74.1981 127.317 75.2634 126.297 76.0567 124.982C76.8727 123.645 77.3374 122.092 77.4507 120.324H67.4547V118.386H79.9667V120.12C79.8534 122.205 79.2867 124.098 78.2667 125.798C77.2467 127.475 75.8754 128.801 74.1527 129.776C72.4527 130.751 70.5374 131.238 68.4067 131.238C66.2081 131.238 64.2134 130.728 62.4227 129.708C60.6321 128.665 59.2154 127.226 58.1727 125.39C57.1527 123.531 56.6427 121.435 56.6427 119.1C56.6427 116.765 57.1527 114.68 58.1727 112.844C59.2154 110.985 60.6321 109.546 62.4227 108.526C64.2134 107.483 66.2081 106.962 68.4067 106.962C70.9454 106.962 73.1667 107.597 75.0707 108.866C76.9747 110.135 78.3574 111.903 79.2187 114.17H76.4307ZM85.5164 108.934C85.0404 108.934 84.6324 108.764 84.2924 108.424C83.9524 108.084 83.7824 107.665 83.7824 107.166C83.7824 106.667 83.9524 106.259 84.2924 105.942C84.6324 105.602 85.0404 105.432 85.5164 105.432C85.9924 105.432 86.4004 105.602 86.7404 105.942C87.0804 106.259 87.2504 106.667 87.2504 107.166C87.2504 107.665 87.0804 108.084 86.7404 108.424C86.4004 108.764 85.9924 108.934 85.5164 108.934ZM86.7064 112.436V131H84.3264V112.436H86.7064ZM98.692 128.688L104.948 112.436H107.464L100.018 131H97.332L89.886 112.436H92.436L98.692 128.688ZM127.486 120.766C127.486 121.582 127.463 122.205 127.418 122.636H112.016C112.084 124.041 112.424 125.243 113.036 126.24C113.648 127.237 114.452 127.997 115.45 128.518C116.447 129.017 117.535 129.266 118.714 129.266C120.255 129.266 121.547 128.892 122.59 128.144C123.655 127.396 124.358 126.387 124.698 125.118H127.214C126.76 126.931 125.786 128.416 124.29 129.572C122.816 130.705 120.958 131.272 118.714 131.272C116.968 131.272 115.404 130.887 114.022 130.116C112.639 129.323 111.551 128.212 110.758 126.784C109.987 125.333 109.602 123.645 109.602 121.718C109.602 119.791 109.987 118.103 110.758 116.652C111.528 115.201 112.605 114.091 113.988 113.32C115.37 112.549 116.946 112.164 118.714 112.164C120.482 112.164 122.023 112.549 123.338 113.32C124.675 114.091 125.695 115.133 126.398 116.448C127.123 117.74 127.486 119.179 127.486 120.766ZM125.072 120.698C125.094 119.315 124.811 118.137 124.222 117.162C123.655 116.187 122.873 115.451 121.876 114.952C120.878 114.453 119.79 114.204 118.612 114.204C116.844 114.204 115.336 114.771 114.09 115.904C112.843 117.037 112.152 118.635 112.016 120.698H125.072ZM154.94 125.356H144.128L142.054 131H139.538L148.208 107.54H150.894L159.53 131H157.014L154.94 125.356ZM154.226 123.384L149.534 110.532L144.842 123.384H154.226ZM169.742 131.272C167.611 131.272 165.866 130.785 164.506 129.81C163.169 128.813 162.421 127.464 162.262 125.764H164.71C164.823 126.807 165.311 127.657 166.172 128.314C167.056 128.949 168.235 129.266 169.708 129.266C171 129.266 172.009 128.96 172.734 128.348C173.482 127.736 173.856 126.977 173.856 126.07C173.856 125.435 173.652 124.914 173.244 124.506C172.836 124.098 172.315 123.781 171.68 123.554C171.068 123.305 170.229 123.044 169.164 122.772C167.781 122.409 166.659 122.047 165.798 121.684C164.937 121.321 164.2 120.789 163.588 120.086C162.999 119.361 162.704 118.397 162.704 117.196C162.704 116.289 162.976 115.451 163.52 114.68C164.064 113.909 164.835 113.297 165.832 112.844C166.829 112.391 167.963 112.164 169.232 112.164C171.227 112.164 172.836 112.674 174.06 113.694C175.284 114.691 175.941 116.074 176.032 117.842H173.652C173.584 116.754 173.153 115.881 172.36 115.224C171.589 114.544 170.524 114.204 169.164 114.204C167.963 114.204 166.988 114.487 166.24 115.054C165.492 115.621 165.118 116.323 165.118 117.162C165.118 117.887 165.333 118.488 165.764 118.964C166.217 119.417 166.773 119.78 167.43 120.052C168.087 120.301 168.971 120.585 170.082 120.902C171.419 121.265 172.485 121.616 173.278 121.956C174.071 122.296 174.751 122.795 175.318 123.452C175.885 124.109 176.179 124.982 176.202 126.07C176.202 127.067 175.93 127.963 175.386 128.756C174.842 129.527 174.083 130.139 173.108 130.592C172.133 131.045 171.011 131.272 169.742 131.272ZM187.074 131.272C184.943 131.272 183.198 130.785 181.838 129.81C180.501 128.813 179.753 127.464 179.594 125.764H182.042C182.155 126.807 182.643 127.657 183.504 128.314C184.388 128.949 185.567 129.266 187.04 129.266C188.332 129.266 189.341 128.96 190.066 128.348C190.814 127.736 191.188 126.977 191.188 126.07C191.188 125.435 190.984 124.914 190.576 124.506C190.168 124.098 189.647 123.781 189.012 123.554C188.4 123.305 187.561 123.044 186.496 122.772C185.113 122.409 183.991 122.047 183.13 121.684C182.269 121.321 181.532 120.789 180.92 120.086C180.331 119.361 180.036 118.397 180.036 117.196C180.036 116.289 180.308 115.451 180.852 114.68C181.396 113.909 182.167 113.297 183.164 112.844C184.161 112.391 185.295 112.164 186.564 112.164C188.559 112.164 190.168 112.674 191.392 113.694C192.616 114.691 193.273 116.074 193.364 117.842H190.984C190.916 116.754 190.485 115.881 189.692 115.224C188.921 114.544 187.856 114.204 186.496 114.204C185.295 114.204 184.32 114.487 183.572 115.054C182.824 115.621 182.45 116.323 182.45 117.162C182.45 117.887 182.665 118.488 183.096 118.964C183.549 119.417 184.105 119.78 184.762 120.052C185.419 120.301 186.303 120.585 187.414 120.902C188.751 121.265 189.817 121.616 190.61 121.956C191.403 122.296 192.083 122.795 192.65 123.452C193.217 124.109 193.511 124.982 193.534 126.07C193.534 127.067 193.262 127.963 192.718 128.756C192.174 129.527 191.415 130.139 190.44 130.592C189.465 131.045 188.343 131.272 187.074 131.272ZM214.81 120.766C214.81 121.582 214.787 122.205 214.742 122.636H199.34C199.408 124.041 199.748 125.243 200.36 126.24C200.972 127.237 201.777 127.997 202.774 128.518C203.771 129.017 204.859 129.266 206.038 129.266C207.579 129.266 208.871 128.892 209.914 128.144C210.979 127.396 211.682 126.387 212.022 125.118H214.538C214.085 126.931 213.11 128.416 211.614 129.572C210.141 130.705 208.282 131.272 206.038 131.272C204.293 131.272 202.729 130.887 201.346 130.116C199.963 129.323 198.875 128.212 198.082 126.784C197.311 125.333 196.926 123.645 196.926 121.718C196.926 119.791 197.311 118.103 198.082 116.652C198.853 115.201 199.929 114.091 201.312 113.32C202.695 112.549 204.27 112.164 206.038 112.164C207.806 112.164 209.347 112.549 210.662 113.32C211.999 114.091 213.019 115.133 213.722 116.448C214.447 117.74 214.81 119.179 214.81 120.766ZM212.396 120.698C212.419 119.315 212.135 118.137 211.546 117.162C210.979 116.187 210.197 115.451 209.2 114.952C208.203 114.453 207.115 114.204 205.936 114.204C204.168 114.204 202.661 114.771 201.414 115.904C200.167 117.037 199.476 118.635 199.34 120.698H212.396ZM225.556 131.272C223.426 131.272 221.68 130.785 220.32 129.81C218.983 128.813 218.235 127.464 218.076 125.764H220.524C220.638 126.807 221.125 127.657 221.986 128.314C222.87 128.949 224.049 129.266 225.522 129.266C226.814 129.266 227.823 128.96 228.548 128.348C229.296 127.736 229.67 126.977 229.67 126.07C229.67 125.435 229.466 124.914 229.058 124.506C228.65 124.098 228.129 123.781 227.494 123.554C226.882 123.305 226.044 123.044 224.978 122.772C223.596 122.409 222.474 122.047 221.612 121.684C220.751 121.321 220.014 120.789 219.402 120.086C218.813 119.361 218.518 118.397 218.518 117.196C218.518 116.289 218.79 115.451 219.334 114.68C219.878 113.909 220.649 113.297 221.646 112.844C222.644 112.391 223.777 112.164 225.046 112.164C227.041 112.164 228.65 112.674 229.874 113.694C231.098 114.691 231.756 116.074 231.846 117.842H229.466C229.398 116.754 228.968 115.881 228.174 115.224C227.404 114.544 226.338 114.204 224.978 114.204C223.777 114.204 222.802 114.487 222.054 115.054C221.306 115.621 220.932 116.323 220.932 117.162C220.932 117.887 221.148 118.488 221.578 118.964C222.032 119.417 222.587 119.78 223.244 120.052C223.902 120.301 224.786 120.585 225.896 120.902C227.234 121.265 228.299 121.616 229.092 121.956C229.886 122.296 230.566 122.795 231.132 123.452C231.699 124.109 231.994 124.982 232.016 126.07C232.016 127.067 231.744 127.963 231.2 128.756C230.656 129.527 229.897 130.139 228.922 130.592C227.948 131.045 226.826 131.272 225.556 131.272ZM242.888 131.272C240.758 131.272 239.012 130.785 237.652 129.81C236.315 128.813 235.567 127.464 235.408 125.764H237.856C237.97 126.807 238.457 127.657 239.318 128.314C240.202 128.949 241.381 129.266 242.854 129.266C244.146 129.266 245.155 128.96 245.88 128.348C246.628 127.736 247.002 126.977 247.002 126.07C247.002 125.435 246.798 124.914 246.39 124.506C245.982 124.098 245.461 123.781 244.826 123.554C244.214 123.305 243.376 123.044 242.31 122.772C240.928 122.409 239.806 122.047 238.944 121.684C238.083 121.321 237.346 120.789 236.734 120.086C236.145 119.361 235.85 118.397 235.85 117.196C235.85 116.289 236.122 115.451 236.666 114.68C237.21 113.909 237.981 113.297 238.978 112.844C239.976 112.391 241.109 112.164 242.378 112.164C244.373 112.164 245.982 112.674 247.206 113.694C248.43 114.691 249.088 116.074 249.178 117.842H246.798C246.73 116.754 246.3 115.881 245.506 115.224C244.736 114.544 243.67 114.204 242.31 114.204C241.109 114.204 240.134 114.487 239.386 115.054C238.638 115.621 238.264 116.323 238.264 117.162C238.264 117.887 238.48 118.488 238.91 118.964C239.364 119.417 239.919 119.78 240.576 120.052C241.234 120.301 242.118 120.585 243.228 120.902C244.566 121.265 245.631 121.616 246.424 121.956C247.218 122.296 247.898 122.795 248.464 123.452C249.031 124.109 249.326 124.982 249.348 126.07C249.348 127.067 249.076 127.963 248.532 128.756C247.988 129.527 247.229 130.139 246.254 130.592C245.28 131.045 244.158 131.272 242.888 131.272ZM275.928 112.096C278.104 112.096 279.872 112.787 281.232 114.17C282.615 115.53 283.306 117.513 283.306 120.12V131H280.96V120.392C280.96 118.375 280.473 116.833 279.498 115.768C278.524 114.703 277.198 114.17 275.52 114.17C273.775 114.17 272.381 114.748 271.338 115.904C270.296 117.06 269.774 118.737 269.774 120.936V131H267.428V120.392C267.428 118.375 266.941 116.833 265.966 115.768C264.992 114.703 263.654 114.17 261.954 114.17C260.209 114.17 258.815 114.748 257.772 115.904C256.73 117.06 256.208 118.737 256.208 120.936V131H253.828V112.436H256.208V115.632C256.798 114.476 257.636 113.603 258.724 113.014C259.812 112.402 261.025 112.096 262.362 112.096C263.972 112.096 265.377 112.481 266.578 113.252C267.802 114.023 268.686 115.156 269.23 116.652C269.729 115.179 270.579 114.057 271.78 113.286C273.004 112.493 274.387 112.096 275.928 112.096ZM305.388 120.766C305.388 121.582 305.365 122.205 305.32 122.636H289.918C289.986 124.041 290.326 125.243 290.938 126.24C291.55 127.237 292.355 127.997 293.352 128.518C294.349 129.017 295.437 129.266 296.616 129.266C298.157 129.266 299.449 128.892 300.492 128.144C301.557 127.396 302.26 126.387 302.6 125.118H305.116C304.663 126.931 303.688 128.416 302.192 129.572C300.719 130.705 298.86 131.272 296.616 131.272C294.871 131.272 293.307 130.887 291.924 130.116C290.541 129.323 289.453 128.212 288.66 126.784C287.889 125.333 287.504 123.645 287.504 121.718C287.504 119.791 287.889 118.103 288.66 116.652C289.431 115.201 290.507 114.091 291.89 113.32C293.273 112.549 294.848 112.164 296.616 112.164C298.384 112.164 299.925 112.549 301.24 113.32C302.577 114.091 303.597 115.133 304.3 116.448C305.025 117.74 305.388 119.179 305.388 120.766ZM302.974 120.698C302.997 119.315 302.713 118.137 302.124 117.162C301.557 116.187 300.775 115.451 299.778 114.952C298.781 114.453 297.693 114.204 296.514 114.204C294.746 114.204 293.239 114.771 291.992 115.904C290.745 117.037 290.054 118.635 289.918 120.698H302.974ZM318.446 112.096C320.668 112.096 322.481 112.787 323.886 114.17C325.292 115.53 325.994 117.513 325.994 120.12V131H323.648V120.392C323.648 118.375 323.138 116.833 322.118 115.768C321.121 114.703 319.75 114.17 318.004 114.17C316.214 114.17 314.786 114.737 313.72 115.87C312.655 117.003 312.122 118.669 312.122 120.868V131H309.742V112.436H312.122V115.598C312.712 114.465 313.562 113.603 314.672 113.014C315.783 112.402 317.041 112.096 318.446 112.096ZM334.352 114.442V125.968C334.352 127.101 334.567 127.883 334.998 128.314C335.429 128.745 336.188 128.96 337.276 128.96H339.452V131H336.902C335.225 131 333.978 130.615 333.162 129.844C332.346 129.051 331.938 127.759 331.938 125.968V114.442H329.354V112.436H331.938V107.778H334.352V112.436H339.452V114.442H334.352ZM349.769 131.272C347.639 131.272 345.893 130.785 344.533 129.81C343.196 128.813 342.448 127.464 342.289 125.764H344.737C344.851 126.807 345.338 127.657 346.199 128.314C347.083 128.949 348.262 129.266 349.735 129.266C351.027 129.266 352.036 128.96 352.761 128.348C353.509 127.736 353.883 126.977 353.883 126.07C353.883 125.435 353.679 124.914 353.271 124.506C352.863 124.098 352.342 123.781 351.707 123.554C351.095 123.305 350.257 123.044 349.191 122.772C347.809 122.409 346.687 122.047 345.825 121.684C344.964 121.321 344.227 120.789 343.615 120.086C343.026 119.361 342.731 118.397 342.731 117.196C342.731 116.289 343.003 115.451 343.547 114.68C344.091 113.909 344.862 113.297 345.859 112.844C346.857 112.391 347.99 112.164 349.259 112.164C351.254 112.164 352.863 112.674 354.087 113.694C355.311 114.691 355.969 116.074 356.059 117.842H353.679C353.611 116.754 353.181 115.881 352.387 115.224C351.617 114.544 350.551 114.204 349.191 114.204C347.99 114.204 347.015 114.487 346.267 115.054C345.519 115.621 345.145 116.323 345.145 117.162C345.145 117.887 345.361 118.488 345.791 118.964C346.245 119.417 346.8 119.78 347.457 120.052C348.115 120.301 348.999 120.585 350.109 120.902C351.447 121.265 352.512 121.616 353.305 121.956C354.099 122.296 354.779 122.795 355.345 123.452C355.912 124.109 356.207 124.982 356.229 126.07C356.229 127.067 355.957 127.963 355.413 128.756C354.869 129.527 354.11 130.139 353.135 130.592C352.161 131.045 351.039 131.272 349.769 131.272ZM166.638 182.238C164.44 182.238 162.445 181.728 160.654 180.708C158.864 179.665 157.447 178.226 156.404 176.39C155.384 174.531 154.874 172.435 154.874 170.1C154.874 167.765 155.384 165.68 156.404 163.844C157.447 161.985 158.864 160.546 160.654 159.526C162.445 158.483 164.44 157.962 166.638 157.962C168.86 157.962 170.866 158.483 172.656 159.526C174.447 160.546 175.852 161.985 176.872 163.844C177.892 165.68 178.402 167.765 178.402 170.1C178.402 172.435 177.892 174.531 176.872 176.39C175.852 178.226 174.447 179.665 172.656 180.708C170.866 181.728 168.86 182.238 166.638 182.238ZM166.638 180.164C168.406 180.164 169.993 179.756 171.398 178.94C172.804 178.124 173.914 176.957 174.73 175.438C175.546 173.897 175.954 172.117 175.954 170.1C175.954 168.083 175.546 166.315 174.73 164.796C173.914 163.277 172.804 162.11 171.398 161.294C169.993 160.478 168.406 160.07 166.638 160.07C164.87 160.07 163.284 160.478 161.878 161.294C160.473 162.11 159.362 163.277 158.546 164.796C157.73 166.315 157.322 168.083 157.322 170.1C157.322 172.117 157.73 173.897 158.546 175.438C159.362 176.957 160.473 178.124 161.878 178.94C163.284 179.756 164.87 180.164 166.638 180.164ZM191.461 163.096C193.682 163.096 195.496 163.787 196.901 165.17C198.306 166.53 199.009 168.513 199.009 171.12V182H196.663V171.392C196.663 169.375 196.153 167.833 195.133 166.768C194.136 165.703 192.764 165.17 191.019 165.17C189.228 165.17 187.8 165.737 186.735 166.87C185.67 168.003 185.137 169.669 185.137 171.868V182H182.757V163.436H185.137V166.598C185.726 165.465 186.576 164.603 187.687 164.014C188.798 163.402 190.056 163.096 191.461 163.096ZM206.653 156.84V182H204.273V156.84H206.653ZM213.232 159.934C212.756 159.934 212.348 159.764 212.008 159.424C211.668 159.084 211.498 158.665 211.498 158.166C211.498 157.667 211.668 157.259 212.008 156.942C212.348 156.602 212.756 156.432 213.232 156.432C213.708 156.432 214.116 156.602 214.456 156.942C214.796 157.259 214.966 157.667 214.966 158.166C214.966 158.665 214.796 159.084 214.456 159.424C214.116 159.764 213.708 159.934 213.232 159.934ZM214.422 163.436V182H212.042V163.436H214.422ZM228.516 163.096C230.737 163.096 232.55 163.787 233.956 165.17C235.361 166.53 236.064 168.513 236.064 171.12V182H233.718V171.392C233.718 169.375 233.208 167.833 232.188 166.768C231.19 165.703 229.819 165.17 228.074 165.17C226.283 165.17 224.855 165.737 223.79 166.87C222.724 168.003 222.192 169.669 222.192 171.868V182H219.812V163.436H222.192V166.598C222.781 165.465 223.631 164.603 224.742 164.014C225.852 163.402 227.11 163.096 228.516 163.096ZM258.123 171.766C258.123 172.582 258.101 173.205 258.055 173.636H242.653C242.721 175.041 243.061 176.243 243.673 177.24C244.285 178.237 245.09 178.997 246.087 179.518C247.085 180.017 248.173 180.266 249.351 180.266C250.893 180.266 252.185 179.892 253.227 179.144C254.293 178.396 254.995 177.387 255.335 176.118H257.851C257.398 177.931 256.423 179.416 254.927 180.572C253.454 181.705 251.595 182.272 249.351 182.272C247.606 182.272 246.042 181.887 244.659 181.116C243.277 180.323 242.189 179.212 241.395 177.784C240.625 176.333 240.239 174.645 240.239 172.718C240.239 170.791 240.625 169.103 241.395 167.652C242.166 166.201 243.243 165.091 244.625 164.32C246.008 163.549 247.583 163.164 249.351 163.164C251.119 163.164 252.661 163.549 253.975 164.32C255.313 165.091 256.333 166.133 257.035 167.448C257.761 168.74 258.123 170.179 258.123 171.766ZM255.709 171.698C255.732 170.315 255.449 169.137 254.859 168.162C254.293 167.187 253.511 166.451 252.513 165.952C251.516 165.453 250.428 165.204 249.249 165.204C247.481 165.204 245.974 165.771 244.727 166.904C243.481 168.037 242.789 169.635 242.653 171.698H255.709Z" fill="black"/>
<path d="M206 828C231.405 828 252 807.405 252 782C252 756.595 231.405 736 206 736C180.595 736 160 756.595 160 782C160 807.405 180.595 828 206 828Z" fill="#1B7BAB"/>
<path d="M203.759 772.896L211.439 780.574C211.594 780.729 211.717 780.912 211.801 781.115C211.885 781.317 211.928 781.534 211.928 781.753C211.928 781.972 211.885 782.189 211.801 782.392C211.717 782.594 211.594 782.778 211.439 782.932L203.759 790.612C203.444 790.914 203.023 791.079 202.587 791.074C202.151 791.069 201.734 790.894 201.426 790.585C201.118 790.277 200.943 789.86 200.938 789.424C200.933 788.988 201.099 788.568 201.4 788.253L207.892 781.761L201.4 775.269C201.098 774.954 200.93 774.532 200.934 774.095C200.937 773.658 201.112 773.24 201.42 772.929C201.728 772.619 202.145 772.442 202.582 772.435C203.019 772.428 203.442 772.592 203.759 772.893V772.896Z" fill="white"/>
</svg>
