<svg width="412" height="917" viewBox="0 0 412 917" fill="none" xmlns="http://www.w3.org/2000/svg">
<rect width="412" height="917" fill="#1B7BAB"/>
<path d="M269.578 275.919H256.798V256.749C256.788 248.278 253.419 240.158 247.429 234.168C241.44 228.179 233.319 224.809 224.849 224.799H186.509C178.038 224.809 169.918 228.179 163.928 234.168C157.939 240.158 154.569 248.278 154.559 256.749V275.919H141.779V256.749C141.793 244.89 146.51 233.521 154.895 225.135C163.281 216.75 174.65 212.033 186.509 212.019H224.849C236.707 212.033 248.077 216.75 256.462 225.135C264.848 233.521 269.565 244.89 269.578 256.749V275.919Z" fill="white"/>
<path d="M135.39 122.56C133.695 122.56 132.07 123.233 130.872 124.432C129.673 125.63 129 127.255 129 128.95V186.46H141.78V128.95C141.78 127.255 141.107 125.63 139.908 124.432C138.71 123.233 137.085 122.56 135.39 122.56Z" fill="white"/>
<path d="M129 97V109.78H160.95V154.51C160.95 166.373 165.662 177.75 174.051 186.138C182.439 194.527 193.816 199.239 205.679 199.239C217.542 199.239 228.92 194.527 237.308 186.138C245.696 177.75 250.409 166.373 250.409 154.51V109.78H282.359V97H129ZM173.73 109.78H237.629V128.95H173.73V109.78ZM205.679 186.459C197.206 186.459 189.079 183.093 183.087 177.101C177.096 171.11 173.73 162.983 173.73 154.51V141.73H237.629V154.51C237.629 162.983 234.263 171.11 228.271 177.101C222.279 183.093 214.153 186.459 205.679 186.459Z" fill="white"/>
<path d="M146.697 286.28C147.177 287.16 147.723 288.253 148.337 289.56C148.977 290.84 149.63 292.24 150.297 293.76C150.99 295.253 151.67 296.787 152.337 298.36C153.003 299.933 153.63 301.413 154.217 302.8C154.803 301.413 155.43 299.933 156.097 298.36C156.763 296.787 157.43 295.253 158.097 293.76C158.79 292.24 159.443 290.84 160.057 289.56C160.697 288.253 161.257 287.16 161.737 286.28H167.417C167.683 288.12 167.923 290.187 168.137 292.48C168.377 294.747 168.577 297.12 168.737 299.6C168.923 302.053 169.083 304.52 169.217 307C169.377 309.48 169.51 311.813 169.617 314H163.537C163.457 311.307 163.35 308.373 163.217 305.2C163.083 302.027 162.883 298.827 162.617 295.6C162.137 296.72 161.603 297.96 161.017 299.32C160.43 300.68 159.843 302.04 159.257 303.4C158.697 304.76 158.15 306.067 157.617 307.32C157.083 308.547 156.63 309.6 156.257 310.48H151.897C151.523 309.6 151.07 308.547 150.537 307.32C150.003 306.067 149.443 304.76 148.857 303.4C148.297 302.04 147.723 300.68 147.137 299.32C146.55 297.96 146.017 296.72 145.537 295.6C145.27 298.827 145.07 302.027 144.937 305.2C144.803 308.373 144.697 311.307 144.617 314H138.537C138.643 311.813 138.763 309.48 138.897 307C139.057 304.52 139.217 302.053 139.377 299.6C139.563 297.12 139.763 294.747 139.977 292.48C140.217 290.187 140.47 288.12 140.737 286.28H146.697ZM182.875 309.84C183.462 309.84 184.022 309.827 184.555 309.8C185.088 309.773 185.515 309.733 185.835 309.68V305.16C185.595 305.107 185.235 305.053 184.755 305C184.275 304.947 183.835 304.92 183.435 304.92C182.875 304.92 182.342 304.96 181.835 305.04C181.355 305.093 180.928 305.213 180.555 305.4C180.182 305.587 179.888 305.84 179.675 306.16C179.462 306.48 179.355 306.88 179.355 307.36C179.355 308.293 179.662 308.947 180.275 309.32C180.915 309.667 181.782 309.84 182.875 309.84ZM182.395 292.4C184.155 292.4 185.622 292.6 186.795 293C187.968 293.4 188.902 293.973 189.595 294.72C190.315 295.467 190.822 296.373 191.115 297.44C191.408 298.507 191.555 299.693 191.555 301V313.4C190.702 313.587 189.515 313.8 187.995 314.04C186.475 314.307 184.635 314.44 182.475 314.44C181.115 314.44 179.875 314.32 178.755 314.08C177.662 313.84 176.715 313.453 175.915 312.92C175.115 312.36 174.502 311.64 174.075 310.76C173.648 309.88 173.435 308.8 173.435 307.52C173.435 306.293 173.675 305.253 174.155 304.4C174.662 303.547 175.328 302.867 176.155 302.36C176.982 301.853 177.928 301.493 178.995 301.28C180.062 301.04 181.168 300.92 182.315 300.92C183.088 300.92 183.768 300.96 184.355 301.04C184.968 301.093 185.462 301.173 185.835 301.28V300.72C185.835 299.707 185.528 298.893 184.915 298.28C184.302 297.667 183.235 297.36 181.715 297.36C180.702 297.36 179.702 297.44 178.715 297.6C177.728 297.733 176.875 297.933 176.155 298.2L175.395 293.4C175.742 293.293 176.168 293.187 176.675 293.08C177.208 292.947 177.782 292.84 178.395 292.76C179.008 292.653 179.648 292.573 180.315 292.52C181.008 292.44 181.702 292.4 182.395 292.4ZM209.625 298.24C209.091 298.107 208.465 297.973 207.745 297.84C207.025 297.68 206.251 297.6 205.425 297.6C205.051 297.6 204.598 297.64 204.065 297.72C203.558 297.773 203.171 297.84 202.905 297.92V314H196.945V294.08C198.011 293.707 199.265 293.36 200.705 293.04C202.171 292.693 203.798 292.52 205.585 292.52C205.905 292.52 206.291 292.547 206.745 292.6C207.198 292.627 207.651 292.68 208.105 292.76C208.558 292.813 209.011 292.893 209.465 293C209.918 293.08 210.305 293.187 210.625 293.32L209.625 298.24ZM218.509 302.8C218.509 306.133 219.856 307.8 222.549 307.8C223.162 307.8 223.736 307.72 224.269 307.56C224.802 307.4 225.256 307.213 225.629 307V297.48C225.336 297.427 224.989 297.387 224.589 297.36C224.189 297.307 223.722 297.28 223.189 297.28C221.616 297.28 220.442 297.8 219.669 298.84C218.896 299.88 218.509 301.2 218.509 302.8ZM231.589 311.36C231.589 314.8 230.709 317.347 228.949 319C227.216 320.68 224.522 321.52 220.869 321.52C219.589 321.52 218.309 321.4 217.029 321.16C215.749 320.947 214.562 320.653 213.469 320.28L214.509 315.28C215.442 315.653 216.416 315.947 217.429 316.16C218.469 316.373 219.642 316.48 220.949 316.48C222.656 316.48 223.856 316.107 224.549 315.36C225.269 314.613 225.629 313.653 225.629 312.48V311.72C224.989 312.013 224.322 312.24 223.629 312.4C222.962 312.533 222.229 312.6 221.429 312.6C218.522 312.6 216.296 311.747 214.749 310.04C213.202 308.307 212.429 305.893 212.429 302.8C212.429 301.253 212.669 299.853 213.149 298.6C213.629 297.32 214.322 296.227 215.229 295.32C216.162 294.413 217.296 293.72 218.629 293.24C219.962 292.733 221.469 292.48 223.149 292.48C223.869 292.48 224.602 292.52 225.349 292.6C226.122 292.653 226.882 292.733 227.629 292.84C228.376 292.947 229.082 293.08 229.749 293.24C230.442 293.373 231.056 293.52 231.589 293.68V311.36ZM256.139 314C255.846 313.04 255.512 312.053 255.139 311.04C254.792 310.027 254.446 309.013 254.099 308H243.299C242.952 309.013 242.592 310.027 242.219 311.04C241.872 312.053 241.552 313.04 241.259 314H234.779C235.819 311.013 236.806 308.253 237.739 305.72C238.672 303.187 239.579 300.8 240.459 298.56C241.366 296.32 242.246 294.2 243.099 292.2C243.979 290.173 244.886 288.2 245.819 286.28H251.779C252.686 288.2 253.579 290.173 254.459 292.2C255.339 294.2 256.219 296.32 257.099 298.56C258.006 300.8 258.926 303.187 259.859 305.72C260.792 308.253 261.779 311.013 262.819 314H256.139ZM248.659 292.56C248.526 292.96 248.326 293.507 248.059 294.2C247.792 294.893 247.486 295.693 247.139 296.6C246.792 297.507 246.406 298.507 245.979 299.6C245.579 300.693 245.166 301.84 244.739 303.04H252.619C252.192 301.84 251.779 300.693 251.379 299.6C250.979 298.507 250.592 297.507 250.219 296.6C249.872 295.693 249.566 294.893 249.299 294.2C249.032 293.507 248.819 292.96 248.659 292.56ZM266.407 286.28H272.647V314H266.407V286.28Z" fill="white"/>
<g clip-path="url(#clip0_37_4589)">
<path d="M0 439C0 410.281 23.2812 387 52 387H360C388.719 387 412 410.281 412 439V917H0V439Z" fill="white"/>
<path d="M150.953 443.375C149.369 443.375 147.969 443 146.753 442.25C145.536 441.5 144.578 440.442 143.878 439.075C143.194 437.708 142.853 436.1 142.853 434.25C142.853 432.4 143.194 430.792 143.878 429.425C144.578 428.042 145.536 426.975 146.753 426.225C147.969 425.458 149.369 425.075 150.953 425.075C152.386 425.075 153.669 425.392 154.803 426.025C155.936 426.642 156.861 427.517 157.578 428.65L155.553 429.85C155.036 429.05 154.386 428.433 153.603 428C152.819 427.567 151.936 427.35 150.953 427.35C149.819 427.35 148.819 427.633 147.953 428.2C147.103 428.767 146.436 429.567 145.953 430.6C145.469 431.617 145.228 432.833 145.228 434.25C145.228 435.65 145.469 436.867 145.953 437.9C146.436 438.917 147.103 439.708 147.953 440.275C148.819 440.842 149.819 441.125 150.953 441.125C151.936 441.125 152.819 440.908 153.603 440.475C154.386 440.042 155.036 439.425 155.553 438.625L157.578 439.825C156.861 440.942 155.936 441.817 154.803 442.45C153.669 443.067 152.386 443.375 150.953 443.375ZM160.275 443V431H162.325L162.45 432.875C162.783 432.225 163.283 431.7 163.95 431.3C164.633 430.9 165.367 430.7 166.15 430.7C166.417 430.7 166.667 430.717 166.9 430.75C167.133 430.783 167.333 430.817 167.5 430.85V433.025C167.317 432.975 167.083 432.933 166.8 432.9C166.517 432.867 166.208 432.85 165.875 432.85C164.942 432.85 164.15 433.158 163.5 433.775C162.85 434.375 162.525 435.167 162.525 436.15V443H160.275ZM174.848 443.275C173.714 443.275 172.714 443.033 171.848 442.55C170.981 442.067 170.306 441.358 169.823 440.425C169.339 439.475 169.098 438.333 169.098 437C169.098 435.717 169.339 434.608 169.823 433.675C170.306 432.725 170.964 431.992 171.798 431.475C172.648 430.958 173.623 430.7 174.723 430.7C175.823 430.7 176.756 430.975 177.523 431.525C178.306 432.058 178.898 432.775 179.298 433.675C179.714 434.575 179.923 435.558 179.923 436.625V437.225H171.298C171.331 438.558 171.664 439.575 172.298 440.275C172.948 440.958 173.806 441.3 174.873 441.3C175.723 441.3 176.423 441.092 176.973 440.675C177.539 440.258 178.014 439.633 178.398 438.8L180.098 439.925C179.531 441.092 178.806 441.942 177.923 442.475C177.056 443.008 176.031 443.275 174.848 443.275ZM171.423 435.425H177.723C177.589 434.558 177.256 433.858 176.723 433.325C176.189 432.792 175.514 432.525 174.698 432.525C173.831 432.525 173.114 432.775 172.548 433.275C171.981 433.758 171.606 434.475 171.423 435.425ZM186.165 443.2C184.948 443.233 183.94 442.958 183.14 442.375C182.357 441.775 181.965 440.917 181.965 439.8C181.965 438.983 182.223 438.275 182.74 437.675C183.273 437.075 183.948 436.608 184.765 436.275C185.598 435.925 186.457 435.75 187.34 435.75C187.857 435.717 188.332 435.767 188.765 435.9C189.198 436.017 189.573 436.192 189.89 436.425V434.925C189.89 433.992 189.69 433.383 189.29 433.1C188.907 432.817 188.307 432.675 187.49 432.675C186.79 432.675 186.04 432.8 185.24 433.05C184.457 433.3 183.79 433.617 183.24 434L182.19 432.25C182.873 431.817 183.682 431.45 184.615 431.15C185.565 430.85 186.523 430.7 187.49 430.7C189.023 430.7 190.165 431.008 190.915 431.625C191.665 432.225 192.04 433.325 192.04 434.925V440.95C192.04 441.267 192.123 441.45 192.29 441.5C192.457 441.55 192.832 441.508 193.415 441.375V442.825C193.198 442.908 192.923 442.992 192.59 443.075C192.257 443.158 191.915 443.2 191.565 443.2C191.032 443.2 190.648 443.1 190.415 442.9C190.182 442.7 190.023 442.342 189.94 441.825C189.49 442.275 188.923 442.608 188.24 442.825C187.557 443.042 186.865 443.167 186.165 443.2ZM186.19 441.225C186.89 441.208 187.523 441.108 188.09 440.925C188.673 440.725 189.132 440.45 189.465 440.1C189.798 439.733 189.948 439.3 189.915 438.8C189.882 438.333 189.64 438 189.19 437.8C188.757 437.6 188.198 437.517 187.515 437.55C186.898 437.567 186.332 437.683 185.815 437.9C185.298 438.1 184.882 438.367 184.565 438.7C184.265 439.033 184.115 439.408 184.115 439.825C184.132 440.292 184.323 440.65 184.69 440.9C185.057 441.133 185.557 441.242 186.19 441.225ZM199.987 443.275C198.854 443.275 197.996 443.058 197.412 442.625C196.829 442.175 196.537 441.325 196.537 440.075V432.95H194.112V431H196.537V426.7H198.762V431H202.237V432.95H198.762V439.6C198.762 440.25 198.904 440.692 199.187 440.925C199.487 441.142 199.929 441.25 200.512 441.25C200.812 441.25 201.121 441.208 201.437 441.125C201.771 441.025 202.037 440.925 202.237 440.825V442.9C201.971 443.017 201.629 443.108 201.212 443.175C200.796 443.242 200.387 443.275 199.987 443.275ZM209.809 443.275C208.675 443.275 207.675 443.033 206.809 442.55C205.942 442.067 205.267 441.358 204.784 440.425C204.3 439.475 204.059 438.333 204.059 437C204.059 435.717 204.3 434.608 204.784 433.675C205.267 432.725 205.925 431.992 206.759 431.475C207.609 430.958 208.584 430.7 209.684 430.7C210.784 430.7 211.717 430.975 212.484 431.525C213.267 432.058 213.859 432.775 214.259 433.675C214.675 434.575 214.884 435.558 214.884 436.625V437.225H206.259C206.292 438.558 206.625 439.575 207.259 440.275C207.909 440.958 208.767 441.3 209.834 441.3C210.684 441.3 211.384 441.092 211.934 440.675C212.5 440.258 212.975 439.633 213.359 438.8L215.059 439.925C214.492 441.092 213.767 441.942 212.884 442.475C212.017 443.008 210.992 443.275 209.809 443.275ZM206.384 435.425H212.684C212.55 434.558 212.217 433.858 211.684 433.325C211.15 432.792 210.475 432.525 209.659 432.525C208.792 432.525 208.075 432.775 207.509 433.275C206.942 433.758 206.567 434.475 206.384 435.425ZM225.027 443V425.5H227.302L236.277 438.975V425.5H238.577V443H236.377L227.302 429.275V443H225.027ZM247.26 443.275C246.127 443.275 245.127 443.033 244.26 442.55C243.393 442.067 242.718 441.358 242.235 440.425C241.752 439.475 241.51 438.333 241.51 437C241.51 435.717 241.752 434.608 242.235 433.675C242.718 432.725 243.377 431.992 244.21 431.475C245.06 430.958 246.035 430.7 247.135 430.7C248.235 430.7 249.168 430.975 249.935 431.525C250.718 432.058 251.31 432.775 251.71 433.675C252.127 434.575 252.335 435.558 252.335 436.625V437.225H243.71C243.743 438.558 244.077 439.575 244.71 440.275C245.36 440.958 246.218 441.3 247.285 441.3C248.135 441.3 248.835 441.092 249.385 440.675C249.952 440.258 250.427 439.633 250.81 438.8L252.51 439.925C251.943 441.092 251.218 441.942 250.335 442.475C249.468 443.008 248.443 443.275 247.26 443.275ZM243.835 435.425H250.135C250.002 434.558 249.668 433.858 249.135 433.325C248.602 432.792 247.927 432.525 247.11 432.525C246.243 432.525 245.527 432.775 244.96 433.275C244.393 433.758 244.018 434.475 243.835 435.425ZM257.258 443L253.658 431H255.808L258.258 439.7L260.708 431H262.533L264.983 439.7L267.458 431H269.608L265.983 443H264.108L261.633 434.25L259.158 443H257.258ZM155.239 487V469.5H163.064C164.714 469.5 165.989 469.883 166.889 470.65C167.806 471.417 168.264 472.633 168.264 474.3C168.264 475.983 167.806 477.217 166.889 478C165.989 478.783 164.714 479.175 163.064 479.175H157.514V487H155.239ZM157.514 477H162.789C163.789 477 164.548 476.792 165.064 476.375C165.598 475.942 165.864 475.25 165.864 474.3C165.864 473.367 165.598 472.692 165.064 472.275C164.548 471.858 163.789 471.65 162.789 471.65H157.514V477ZM174.337 487.2C173.12 487.233 172.112 486.958 171.312 486.375C170.528 485.775 170.137 484.917 170.137 483.8C170.137 482.983 170.395 482.275 170.912 481.675C171.445 481.075 172.12 480.608 172.937 480.275C173.77 479.925 174.628 479.75 175.512 479.75C176.028 479.717 176.503 479.767 176.937 479.9C177.37 480.017 177.745 480.192 178.062 480.425V478.925C178.062 477.992 177.862 477.383 177.462 477.1C177.078 476.817 176.478 476.675 175.662 476.675C174.962 476.675 174.212 476.8 173.412 477.05C172.628 477.3 171.962 477.617 171.412 478L170.362 476.25C171.045 475.817 171.853 475.45 172.787 475.15C173.737 474.85 174.695 474.7 175.662 474.7C177.195 474.7 178.337 475.008 179.087 475.625C179.837 476.225 180.212 477.325 180.212 478.925V484.95C180.212 485.267 180.295 485.45 180.462 485.5C180.628 485.55 181.003 485.508 181.587 485.375V486.825C181.37 486.908 181.095 486.992 180.762 487.075C180.428 487.158 180.087 487.2 179.737 487.2C179.203 487.2 178.82 487.1 178.587 486.9C178.353 486.7 178.195 486.342 178.112 485.825C177.662 486.275 177.095 486.608 176.412 486.825C175.728 487.042 175.037 487.167 174.337 487.2ZM174.362 485.225C175.062 485.208 175.695 485.108 176.262 484.925C176.845 484.725 177.303 484.45 177.637 484.1C177.97 483.733 178.12 483.3 178.087 482.8C178.053 482.333 177.812 482 177.362 481.8C176.928 481.6 176.37 481.517 175.687 481.55C175.07 481.567 174.503 481.683 173.987 481.9C173.47 482.1 173.053 482.367 172.737 482.7C172.437 483.033 172.287 483.408 172.287 483.825C172.303 484.292 172.495 484.65 172.862 484.9C173.228 485.133 173.728 485.242 174.362 485.225ZM188.34 487.25C187.324 487.25 186.374 487.067 185.49 486.7C184.607 486.333 183.857 485.767 183.24 485L184.715 483.55C185.615 484.7 186.857 485.275 188.44 485.275C189.174 485.275 189.757 485.142 190.19 484.875C190.624 484.608 190.84 484.167 190.84 483.55C190.84 483.05 190.615 482.683 190.165 482.45C189.715 482.2 188.915 481.967 187.765 481.75C187.015 481.6 186.34 481.4 185.74 481.15C185.157 480.9 184.69 480.542 184.34 480.075C183.99 479.592 183.815 478.967 183.815 478.2C183.815 477.467 184.015 476.842 184.415 476.325C184.815 475.792 185.34 475.383 185.99 475.1C186.657 474.817 187.39 474.675 188.19 474.675C190.14 474.675 191.624 475.3 192.64 476.55L191.315 478.075C190.949 477.592 190.499 477.242 189.965 477.025C189.432 476.792 188.849 476.675 188.215 476.675C187.499 476.675 186.965 476.825 186.615 477.125C186.265 477.408 186.09 477.75 186.09 478.15C186.09 478.617 186.29 478.958 186.69 479.175C187.09 479.392 187.815 479.617 188.865 479.85C189.699 480.033 190.432 480.275 191.065 480.575C191.715 480.875 192.215 481.267 192.565 481.75C192.932 482.233 193.115 482.858 193.115 483.625C193.115 484.775 192.674 485.667 191.79 486.3C190.924 486.933 189.774 487.25 188.34 487.25ZM199.839 487.25C198.823 487.25 197.873 487.067 196.989 486.7C196.106 486.333 195.356 485.767 194.739 485L196.214 483.55C197.114 484.7 198.356 485.275 199.939 485.275C200.673 485.275 201.256 485.142 201.689 484.875C202.123 484.608 202.339 484.167 202.339 483.55C202.339 483.05 202.114 482.683 201.664 482.45C201.214 482.2 200.414 481.967 199.264 481.75C198.514 481.6 197.839 481.4 197.239 481.15C196.656 480.9 196.189 480.542 195.839 480.075C195.489 479.592 195.314 478.967 195.314 478.2C195.314 477.467 195.514 476.842 195.914 476.325C196.314 475.792 196.839 475.383 197.489 475.1C198.156 474.817 198.889 474.675 199.689 474.675C201.639 474.675 203.123 475.3 204.139 476.55L202.814 478.075C202.448 477.592 201.998 477.242 201.464 477.025C200.931 476.792 200.348 476.675 199.714 476.675C198.998 476.675 198.464 476.825 198.114 477.125C197.764 477.408 197.589 477.75 197.589 478.15C197.589 478.617 197.789 478.958 198.189 479.175C198.589 479.392 199.314 479.617 200.364 479.85C201.198 480.033 201.931 480.275 202.564 480.575C203.214 480.875 203.714 481.267 204.064 481.75C204.431 482.233 204.614 482.858 204.614 483.625C204.614 484.775 204.173 485.667 203.289 486.3C202.423 486.933 201.273 487.25 199.839 487.25ZM209.15 487L205.55 475H207.7L210.15 483.7L212.6 475H214.425L216.875 483.7L219.35 475H221.5L217.875 487H216L213.525 478.25L211.05 487H209.15ZM228.301 487.275C227.201 487.275 226.218 487.017 225.351 486.5C224.501 485.967 223.826 485.225 223.326 484.275C222.843 483.325 222.601 482.225 222.601 480.975C222.601 479.725 222.843 478.633 223.326 477.7C223.826 476.75 224.501 476.017 225.351 475.5C226.218 474.967 227.201 474.7 228.301 474.7C229.401 474.7 230.376 474.967 231.226 475.5C232.093 476.017 232.768 476.75 233.251 477.7C233.751 478.633 234.001 479.725 234.001 480.975C234.001 482.225 233.751 483.325 233.251 484.275C232.768 485.225 232.093 485.967 231.226 486.5C230.376 487.017 229.401 487.275 228.301 487.275ZM228.301 485.225C229.318 485.225 230.143 484.85 230.776 484.1C231.426 483.333 231.751 482.292 231.751 480.975C231.751 479.658 231.426 478.625 230.776 477.875C230.143 477.125 229.318 476.75 228.301 476.75C227.285 476.75 226.451 477.125 225.801 477.875C225.168 478.625 224.851 479.658 224.851 480.975C224.851 482.292 225.168 483.333 225.801 484.1C226.451 484.85 227.285 485.225 228.301 485.225ZM236.703 487V475H238.753L238.878 476.875C239.212 476.225 239.712 475.7 240.378 475.3C241.062 474.9 241.795 474.7 242.578 474.7C242.845 474.7 243.095 474.717 243.328 474.75C243.562 474.783 243.762 474.817 243.928 474.85V477.025C243.745 476.975 243.512 476.933 243.228 476.9C242.945 476.867 242.637 476.85 242.303 476.85C241.37 476.85 240.578 477.158 239.928 477.775C239.278 478.375 238.953 479.167 238.953 480.15V487H236.703ZM251.226 487.275C250.126 487.275 249.143 487.025 248.276 486.525C247.426 486.008 246.751 485.283 246.251 484.35C245.768 483.4 245.526 482.283 245.526 481C245.526 479.7 245.768 478.583 246.251 477.65C246.751 476.7 247.426 475.975 248.276 475.475C249.143 474.958 250.126 474.7 251.226 474.7C251.959 474.7 252.626 474.858 253.226 475.175C253.843 475.492 254.359 475.942 254.776 476.525V469.075H257.001V487H255.026L254.951 485.275C254.534 485.892 254.001 486.383 253.351 486.75C252.718 487.1 252.009 487.275 251.226 487.275ZM251.301 485.225C252.318 485.225 253.151 484.85 253.801 484.1C254.468 483.35 254.801 482.317 254.801 481C254.801 479.667 254.468 478.625 253.801 477.875C253.151 477.125 252.318 476.75 251.301 476.75C250.284 476.75 249.443 477.125 248.776 477.875C248.109 478.625 247.776 479.667 247.776 481C247.776 482.317 248.109 483.35 248.776 484.1C249.443 484.85 250.284 485.225 251.301 485.225Z" fill="black"/>
<path d="M191.916 856.166C191.106 856.166 190.393 855.974 189.779 855.59C189.164 855.206 188.682 854.665 188.332 853.965C187.991 853.265 187.82 852.446 187.82 851.507C187.82 850.569 187.991 849.754 188.332 849.062C188.682 848.363 189.164 847.821 189.779 847.437C190.393 847.044 191.106 846.848 191.916 846.848C192.625 846.848 193.256 847.002 193.811 847.309C194.374 847.607 194.839 848.034 195.206 848.589L194.515 848.998C194.225 848.563 193.858 848.226 193.414 847.987C192.97 847.748 192.471 847.629 191.916 847.629C191.276 847.629 190.709 847.787 190.214 848.102C189.719 848.41 189.331 848.853 189.049 849.434C188.768 850.014 188.627 850.705 188.627 851.507C188.627 852.309 188.768 853.005 189.049 853.594C189.331 854.174 189.719 854.622 190.214 854.938C190.709 855.245 191.276 855.398 191.916 855.398C192.471 855.398 192.97 855.279 193.414 855.04C193.858 854.801 194.225 854.464 194.515 854.029L195.206 854.451C194.839 854.989 194.374 855.411 193.811 855.718C193.256 856.017 192.625 856.166 191.916 856.166ZM198.392 856.115C197.795 856.124 197.308 855.987 196.933 855.706C196.566 855.424 196.382 855.014 196.382 854.477C196.382 854.067 196.519 853.709 196.792 853.402C197.073 853.094 197.428 852.855 197.854 852.685C198.289 852.506 198.737 852.416 199.198 852.416C199.83 852.416 200.329 852.565 200.696 852.864V851.814C200.696 851.243 200.576 850.871 200.337 850.701C200.099 850.522 199.715 850.432 199.185 850.432C198.844 850.432 198.464 850.496 198.046 850.624C197.628 850.743 197.274 850.897 196.984 851.085L196.613 850.47C196.945 850.257 197.347 850.078 197.816 849.933C198.294 849.788 198.75 849.715 199.185 849.715C199.962 849.715 200.534 849.865 200.901 850.163C201.268 850.462 201.451 851.012 201.451 851.814V855.206C201.451 855.369 201.494 855.462 201.579 855.488C201.673 855.505 201.873 855.484 202.181 855.424V855.974C202.095 856.009 201.98 856.038 201.835 856.064C201.69 856.098 201.553 856.115 201.425 856.115C201.135 856.115 200.948 856.055 200.862 855.936C200.777 855.817 200.726 855.59 200.709 855.258C200.444 855.548 200.094 855.761 199.659 855.898C199.224 856.034 198.801 856.107 198.392 856.115ZM198.43 855.411C198.84 855.403 199.22 855.339 199.569 855.219C199.928 855.1 200.209 854.929 200.414 854.707C200.628 854.477 200.726 854.199 200.709 853.875C200.683 853.611 200.538 853.414 200.273 853.286C200.009 853.15 199.668 853.086 199.249 853.094C198.9 853.094 198.563 853.154 198.238 853.274C197.914 853.393 197.649 853.559 197.445 853.773C197.248 853.978 197.15 854.217 197.15 854.49C197.15 854.805 197.27 855.04 197.509 855.194C197.748 855.339 198.055 855.411 198.43 855.411ZM203.603 856V849.869H204.333L204.359 850.739C204.555 850.449 204.815 850.206 205.139 850.01C205.472 849.813 205.848 849.715 206.266 849.715C206.923 849.715 207.452 849.924 207.853 850.342C208.254 850.761 208.455 851.358 208.455 852.134V856H207.687V852.25C207.687 851.652 207.542 851.204 207.251 850.906C206.97 850.607 206.603 850.458 206.151 850.458C205.809 850.458 205.502 850.534 205.229 850.688C204.965 850.833 204.755 851.034 204.602 851.29C204.457 851.537 204.384 851.814 204.384 852.122V856H203.603ZM212.862 856.141C212.316 856.141 211.829 856.009 211.403 855.744C210.976 855.471 210.639 855.091 210.392 854.605C210.144 854.118 210.02 853.559 210.02 852.928C210.02 852.297 210.144 851.742 210.392 851.264C210.639 850.778 210.976 850.402 211.403 850.138C211.829 849.865 212.316 849.728 212.862 849.728C213.297 849.728 213.698 849.818 214.065 849.997C214.441 850.167 214.761 850.423 215.025 850.765L214.411 851.226C214.027 850.714 213.51 850.458 212.862 850.458C212.265 850.458 211.77 850.684 211.377 851.136C210.993 851.58 210.801 852.177 210.801 852.928C210.801 853.679 210.993 854.281 211.377 854.733C211.77 855.185 212.265 855.411 212.862 855.411C213.51 855.411 214.027 855.155 214.411 854.643L215.025 855.104C214.479 855.795 213.758 856.141 212.862 856.141ZM218.837 856.141C218.283 856.141 217.788 856.013 217.352 855.757C216.926 855.492 216.589 855.121 216.341 854.643C216.102 854.157 215.983 853.585 215.983 852.928C215.983 852.288 216.102 851.729 216.341 851.251C216.589 850.773 216.926 850.402 217.352 850.138C217.779 849.865 218.266 849.728 218.812 849.728C219.366 849.728 219.836 849.869 220.22 850.15C220.612 850.423 220.911 850.782 221.116 851.226C221.32 851.661 221.423 852.122 221.423 852.608V852.864H216.764C216.747 853.632 216.926 854.255 217.301 854.733C217.685 855.202 218.202 855.437 218.85 855.437C219.328 855.437 219.729 855.317 220.053 855.078C220.378 854.831 220.642 854.468 220.847 853.99L221.487 854.362C220.941 855.548 220.058 856.141 218.837 856.141ZM216.815 852.198H220.655C220.612 851.866 220.506 851.563 220.335 851.29C220.173 851.017 219.959 850.799 219.695 850.637C219.439 850.475 219.144 850.394 218.812 850.394C218.291 850.394 217.852 850.556 217.493 850.88C217.143 851.196 216.917 851.635 216.815 852.198ZM223.041 856V846.758H223.822V856H223.041Z" fill="#212121"/>
<rect x="16" y="783" width="380" height="56" rx="8" fill="#212121"/>
<path d="M149.253 817.205C148.442 817.205 147.717 817.013 147.077 816.629C146.445 816.245 145.951 815.703 145.592 815.003C145.234 814.295 145.055 813.467 145.055 812.52C145.055 811.564 145.234 810.737 145.592 810.037C145.951 809.329 146.445 808.782 147.077 808.398C147.717 808.006 148.442 807.81 149.253 807.81C150.004 807.81 150.678 807.976 151.275 808.309C151.873 808.642 152.355 809.107 152.722 809.704L151.403 810.472C151.164 810.088 150.861 809.789 150.495 809.576C150.136 809.363 149.722 809.256 149.253 809.256C148.724 809.256 148.259 809.393 147.858 809.666C147.457 809.93 147.145 810.31 146.923 810.805C146.71 811.291 146.603 811.863 146.603 812.52C146.603 813.169 146.71 813.74 146.923 814.235C147.145 814.722 147.457 815.101 147.858 815.374C148.259 815.639 148.724 815.771 149.253 815.771C149.722 815.771 150.136 815.665 150.495 815.451C150.861 815.238 151.164 814.939 151.403 814.555L152.722 815.323C152.355 815.912 151.873 816.373 151.275 816.706C150.678 817.038 150.004 817.205 149.253 817.205ZM154.103 817V808.04H155.575V811.598H159.645V808.04H161.143V817H159.645V812.968H155.575V817H154.103ZM162.172 817L165.589 808.04H166.895L170.313 817H168.636L167.945 815.029H164.501L163.81 817H162.172ZM164.988 813.659H167.471L166.242 810.165L164.988 813.659ZM171.353 817V808.04H172.825L177.049 814.402V808.04H178.546V817H177.125L172.825 810.459V817H171.353ZM184.065 817.205C183.254 817.205 182.533 817.013 181.901 816.629C181.278 816.245 180.788 815.703 180.429 815.003C180.079 814.295 179.905 813.467 179.905 812.52C179.905 811.564 180.079 810.737 180.429 810.037C180.788 809.329 181.278 808.782 181.901 808.398C182.533 808.006 183.254 807.81 184.065 807.81C184.73 807.81 185.34 807.929 185.895 808.168C186.458 808.398 186.923 808.697 187.29 809.064L186.356 810.216C186.1 809.934 185.767 809.704 185.357 809.525C184.956 809.346 184.525 809.256 184.065 809.256C183.527 809.256 183.062 809.393 182.669 809.666C182.285 809.939 181.987 810.323 181.773 810.818C181.56 811.304 181.453 811.871 181.453 812.52C181.453 813.16 181.56 813.727 181.773 814.222C181.987 814.709 182.285 815.089 182.669 815.362C183.062 815.635 183.527 815.771 184.065 815.771C184.466 815.771 184.798 815.733 185.063 815.656C185.336 815.571 185.575 815.468 185.78 815.349V813.429H184.308V812.046H187.277V816.322C186.885 816.595 186.407 816.812 185.844 816.974C185.289 817.128 184.696 817.205 184.065 817.205ZM188.89 817V808.04H194.88V809.41H190.362V811.739H194.484V813.122H190.362V815.63H195.021V817H188.89ZM199.978 817V808.04H204.074C204.91 808.04 205.571 808.236 206.058 808.629C206.552 809.021 206.8 809.683 206.8 810.613C206.8 811.543 206.552 812.209 206.058 812.61C205.571 813.011 204.91 813.211 204.074 813.211H201.45V817H199.978ZM201.45 811.829H203.869C204.304 811.829 204.641 811.735 204.88 811.547C205.119 811.359 205.238 811.048 205.238 810.613C205.238 810.186 205.119 809.879 204.88 809.691C204.641 809.503 204.304 809.41 203.869 809.41H201.45V811.829ZM206.372 817L209.789 808.04H211.095L214.513 817H212.836L212.145 815.029H208.701L208.01 817H206.372ZM209.188 813.659H211.671L210.442 810.165L209.188 813.659ZM218.791 817.179C218.04 817.179 217.349 817.021 216.717 816.706C216.094 816.39 215.595 815.857 215.22 815.106L216.461 814.402C216.717 814.828 217.029 815.165 217.396 815.413C217.763 815.652 218.245 815.771 218.842 815.771C219.439 815.771 219.858 815.665 220.097 815.451C220.344 815.229 220.468 814.931 220.468 814.555C220.468 814.316 220.412 814.111 220.301 813.941C220.199 813.77 219.977 813.612 219.636 813.467C219.303 813.314 218.787 813.16 218.087 813.006C217.259 812.81 216.645 812.499 216.244 812.072C215.851 811.645 215.655 811.103 215.655 810.446C215.655 809.926 215.779 809.469 216.026 809.077C216.282 808.676 216.636 808.364 217.089 808.142C217.549 807.921 218.087 807.81 218.701 807.81C219.512 807.81 220.195 807.989 220.749 808.347C221.304 808.697 221.726 809.111 222.017 809.589L220.852 810.485C220.707 810.28 220.536 810.084 220.34 809.896C220.143 809.7 219.913 809.542 219.649 809.422C219.384 809.294 219.064 809.23 218.689 809.23C218.245 809.23 217.882 809.329 217.601 809.525C217.327 809.713 217.191 809.998 217.191 810.382C217.191 810.553 217.229 810.719 217.306 810.882C217.391 811.035 217.571 811.185 217.844 811.33C218.125 811.475 218.556 811.615 219.137 811.752C220.161 811.982 220.899 812.328 221.351 812.789C221.803 813.25 222.029 813.83 222.029 814.53C222.029 815.383 221.731 816.04 221.133 816.501C220.545 816.953 219.764 817.179 218.791 817.179ZM226.778 817.179C226.028 817.179 225.336 817.021 224.705 816.706C224.082 816.39 223.583 815.857 223.207 815.106L224.449 814.402C224.705 814.828 225.016 815.165 225.383 815.413C225.75 815.652 226.232 815.771 226.83 815.771C227.427 815.771 227.845 815.665 228.084 815.451C228.332 815.229 228.455 814.931 228.455 814.555C228.455 814.316 228.4 814.111 228.289 813.941C228.186 813.77 227.965 813.612 227.623 813.467C227.29 813.314 226.774 813.16 226.074 813.006C225.247 812.81 224.632 812.499 224.231 812.072C223.839 811.645 223.642 811.103 223.642 810.446C223.642 809.926 223.766 809.469 224.014 809.077C224.27 808.676 224.624 808.364 225.076 808.142C225.537 807.921 226.074 807.81 226.689 807.81C227.5 807.81 228.182 807.989 228.737 808.347C229.292 808.697 229.714 809.111 230.004 809.589L228.839 810.485C228.694 810.28 228.524 810.084 228.327 809.896C228.131 809.7 227.901 809.542 227.636 809.422C227.372 809.294 227.052 809.23 226.676 809.23C226.232 809.23 225.87 809.329 225.588 809.525C225.315 809.713 225.178 809.998 225.178 810.382C225.178 810.553 225.217 810.719 225.294 810.882C225.379 811.035 225.558 811.185 225.831 811.33C226.113 811.475 226.544 811.615 227.124 811.752C228.148 811.982 228.886 812.328 229.338 812.789C229.791 813.25 230.017 813.83 230.017 814.53C230.017 815.383 229.718 816.04 229.121 816.501C228.532 816.953 227.751 817.179 226.778 817.179ZM232.859 817L230.875 808.04H232.398L233.665 814.325L235.291 808.04H236.609L238.235 814.325L239.502 808.04H241.038L239.041 817H237.684L235.944 810.382L234.216 817H232.859ZM245.953 817.205C245.142 817.205 244.417 817.013 243.777 816.629C243.145 816.245 242.651 815.703 242.292 815.003C241.934 814.295 241.755 813.467 241.755 812.52C241.755 811.564 241.934 810.737 242.292 810.037C242.651 809.329 243.145 808.782 243.777 808.398C244.417 808.006 245.142 807.81 245.953 807.81C246.764 807.81 247.48 808.006 248.103 808.398C248.735 808.782 249.23 809.329 249.588 810.037C249.955 810.737 250.139 811.564 250.139 812.52C250.139 813.467 249.955 814.295 249.588 815.003C249.23 815.703 248.735 816.245 248.103 816.629C247.48 817.013 246.764 817.205 245.953 817.205ZM245.953 815.771C246.491 815.771 246.956 815.639 247.348 815.374C247.741 815.101 248.044 814.722 248.257 814.235C248.479 813.74 248.59 813.169 248.59 812.52C248.59 811.863 248.479 811.291 248.257 810.805C248.044 810.31 247.741 809.93 247.348 809.666C246.956 809.393 246.491 809.256 245.953 809.256C245.424 809.256 244.959 809.393 244.558 809.666C244.157 809.93 243.845 810.31 243.623 810.805C243.41 811.291 243.303 811.863 243.303 812.52C243.303 813.169 243.41 813.74 243.623 814.235C243.845 814.722 244.157 815.101 244.558 815.374C244.959 815.639 245.424 815.771 245.953 815.771ZM251.503 817V808.04H255.599C256.435 808.04 257.096 808.236 257.583 808.629C258.077 809.021 258.325 809.683 258.325 810.613C258.325 811.398 258.146 811.995 257.787 812.405C257.429 812.806 256.934 813.053 256.303 813.147L258.223 817H256.495L254.767 813.211H252.975V817H251.503ZM252.975 811.829H255.394C255.829 811.829 256.166 811.735 256.405 811.547C256.644 811.359 256.763 811.048 256.763 810.613C256.763 810.186 256.644 809.879 256.405 809.691C256.166 809.503 255.829 809.41 255.394 809.41H252.975V811.829ZM259.703 817V808.04H262.583C263.479 808.04 264.251 808.206 264.899 808.539C265.556 808.872 266.06 809.371 266.41 810.037C266.768 810.702 266.947 811.53 266.947 812.52C266.947 813.501 266.768 814.325 266.41 814.99C266.06 815.656 265.556 816.159 264.899 816.501C264.251 816.834 263.479 817 262.583 817H259.703ZM261.175 815.63H262.467C263.389 815.63 264.106 815.366 264.618 814.837C265.138 814.299 265.399 813.527 265.399 812.52C265.399 811.505 265.138 810.732 264.618 810.203C264.106 809.674 263.389 809.41 262.467 809.41H261.175V815.63Z" fill="white"/>
<path d="M16 525C16 520.582 19.5817 517 24 517H280H388C392.418 517 396 520.582 396 525V565C396 569.418 392.418 573 388 573H24C19.5817 573 16 569.418 16 565V525Z" stroke="#BDBDBD"/>
<mask id="mask0_37_4589" style="mask-type:luminance" maskUnits="userSpaceOnUse" x="372" y="537" width="16" height="16">
<rect x="372" y="537" width="16" height="16" fill="white"/>
</mask>
<g mask="url(#mask0_37_4589)">
<path fill-rule="evenodd" clip-rule="evenodd" d="M388 545C388 545 385 539.5 380 539.5C375 539.5 372 545 372 545C372 545 375 550.5 380 550.5C385 550.5 388 545 388 545ZM373.173 545C373.657 545.735 374.213 546.419 374.833 547.043C376.12 548.332 377.88 549.5 380 549.5C382.12 549.5 383.879 548.332 385.168 547.043C385.788 546.419 386.344 545.735 386.828 545C386.344 544.265 385.788 543.581 385.168 542.957C383.879 541.668 382.119 540.5 380 540.5C377.88 540.5 376.121 541.668 374.832 542.957C374.212 543.581 373.656 544.265 373.172 545L373.173 545Z" fill="#BEBEBE"/>
<path fill-rule="evenodd" clip-rule="evenodd" d="M380 542.5C378.619 542.5 377.5 543.619 377.5 545C377.5 546.381 378.619 547.5 380 547.5C381.381 547.5 382.5 546.381 382.5 545C382.5 543.619 381.381 542.5 380 542.5H380ZM376.5 545C376.5 543.75 377.167 542.594 378.25 541.969C379.333 541.344 380.667 541.344 381.75 541.969C382.833 542.594 383.5 543.75 383.5 545C383.5 546.25 382.833 547.406 381.75 548.031C380.667 548.656 379.333 548.656 378.25 548.031C377.167 547.406 376.5 546.25 376.5 545V545Z" fill="#BEBEBE"/>
</g>
<path d="M34.64 546.512L33.92 546.016L35.344 544.032L33.056 543.28L33.312 542.464L35.632 543.216V540.8H36.48V543.216L38.784 542.464L39.072 543.28L36.752 544.032L38.192 546.016L37.488 546.512L36.064 544.528L34.64 546.512ZM42.7494 546.512L42.0294 546.016L43.4534 544.032L41.1654 543.28L41.4214 542.464L43.7414 543.216V540.8H44.5894V543.216L46.8934 542.464L47.1814 543.28L44.8614 544.032L46.3014 546.016L45.5974 546.512L44.1734 544.528L42.7494 546.512ZM50.8588 546.512L50.1388 546.016L51.5628 544.032L49.2747 543.28L49.5308 542.464L51.8508 543.216V540.8H52.6988V543.216L55.0028 542.464L55.2908 543.28L52.9708 544.032L54.4108 546.016L53.7068 546.512L52.2828 544.528L50.8588 546.512ZM58.9681 546.512L58.2481 546.016L59.6721 544.032L57.3841 543.28L57.6401 542.464L59.9601 543.216V540.8H60.8081V543.216L63.1121 542.464L63.4001 543.28L61.0801 544.032L62.5201 546.016L61.8161 546.512L60.3921 544.528L58.9681 546.512ZM67.0775 546.512L66.3575 546.016L67.7815 544.032L65.4935 543.28L65.7495 542.464L68.0695 543.216V540.8H68.9175V543.216L71.2215 542.464L71.5095 543.28L69.1895 544.032L70.6295 546.016L69.9255 546.512L68.5015 544.528L67.0775 546.512ZM75.1869 546.512L74.4669 546.016L75.8909 544.032L73.6029 543.28L73.8589 542.464L76.1789 543.216V540.8H77.0269V543.216L79.3309 542.464L79.6189 543.28L77.2989 544.032L78.7389 546.016L78.0349 546.512L76.6109 544.528L75.1869 546.512ZM83.2963 546.512L82.5763 546.016L84.0003 544.032L81.7122 543.28L81.9683 542.464L84.2883 543.216V540.8H85.1363V543.216L87.4403 542.464L87.7283 543.28L85.4083 544.032L86.8483 546.016L86.1443 546.512L84.7203 544.528L83.2963 546.512ZM91.4056 546.512L90.6856 546.016L92.1096 544.032L89.8216 543.28L90.0776 542.464L92.3976 543.216V540.8H93.2456V543.216L95.5496 542.464L95.8376 543.28L93.5176 544.032L94.9576 546.016L94.2536 546.512L92.8296 544.528L91.4056 546.512ZM99.515 546.512L98.795 546.016L100.219 544.032L97.931 543.28L98.187 542.464L100.507 543.216V540.8H101.355V543.216L103.659 542.464L103.947 543.28L101.627 544.032L103.067 546.016L102.363 546.512L100.939 544.528L99.515 546.512ZM107.624 546.512L106.904 546.016L108.328 544.032L106.04 543.28L106.296 542.464L108.616 543.216V540.8H109.464V543.216L111.768 542.464L112.056 543.28L109.736 544.032L111.176 546.016L110.472 546.512L109.048 544.528L107.624 546.512ZM115.734 546.512L115.014 546.016L116.438 544.032L114.15 543.28L114.406 542.464L116.726 543.216V540.8H117.574V543.216L119.878 542.464L120.166 543.28L117.846 544.032L119.286 546.016L118.582 546.512L117.158 544.528L115.734 546.512ZM123.843 546.512L123.123 546.016L124.547 544.032L122.259 543.28L122.515 542.464L124.835 543.216V540.8H125.683V543.216L127.987 542.464L128.275 543.28L125.955 544.032L127.395 546.016L126.691 546.512L125.267 544.528L123.843 546.512ZM131.953 546.512L131.233 546.016L132.657 544.032L130.368 543.28L130.625 542.464L132.945 543.216V540.8H133.793V543.216L136.097 542.464L136.385 543.28L134.065 544.032L135.505 546.016L134.801 546.512L133.377 544.528L131.953 546.512ZM140.062 546.512L139.342 546.016L140.766 544.032L138.478 543.28L138.734 542.464L141.054 543.216V540.8H141.902V543.216L144.206 542.464L144.494 543.28L142.174 544.032L143.614 546.016L142.91 546.512L141.486 544.528L140.062 546.512ZM148.171 546.512L147.451 546.016L148.875 544.032L146.587 543.28L146.843 542.464L149.163 543.216V540.8H150.011V543.216L152.315 542.464L152.603 543.28L150.283 544.032L151.723 546.016L151.019 546.512L149.595 544.528L148.171 546.512Z" fill="#757575"/>
<g clip-path="url(#clip1_37_4589)">
<rect x="27" y="506" width="144" height="23" fill="#FAFAFA"/>
<path d="M39.0372 523.166C38.2266 523.166 37.514 522.974 36.8996 522.59C36.2852 522.206 35.8031 521.665 35.4532 520.965C35.1119 520.265 34.9412 519.446 34.9412 518.507C34.9412 517.569 35.1119 516.754 35.4532 516.062C35.8031 515.363 36.2852 514.821 36.8996 514.437C37.514 514.044 38.2266 513.848 39.0372 513.848C39.7455 513.848 40.377 514.002 40.9316 514.309C41.4948 514.607 41.9599 515.034 42.3268 515.589L41.6356 515.998C41.3455 515.563 40.9786 515.226 40.5348 514.987C40.0911 514.748 39.5919 514.629 39.0372 514.629C38.3972 514.629 37.8298 514.787 37.3348 515.102C36.8399 515.41 36.4516 515.853 36.17 516.434C35.8884 517.014 35.7476 517.705 35.7476 518.507C35.7476 519.309 35.8884 520.005 36.17 520.594C36.4516 521.174 36.8399 521.622 37.3348 521.938C37.8298 522.245 38.3972 522.398 39.0372 522.398C39.5919 522.398 40.0911 522.279 40.5348 522.04C40.9786 521.801 41.3455 521.464 41.6356 521.029L42.3268 521.451C41.9599 521.989 41.4948 522.411 40.9316 522.718C40.377 523.017 39.7455 523.166 39.0372 523.166ZM43.8743 523V516.869H44.6167L44.6551 517.931C44.8258 517.573 45.0946 517.283 45.4615 517.061C45.837 516.83 46.2509 516.715 46.7031 516.715C46.8226 516.715 46.9421 516.724 47.0615 516.741C47.1895 516.749 47.2962 516.766 47.3815 516.792V517.547C47.3047 517.53 47.1938 517.513 47.0487 517.496C46.9122 517.479 46.7714 517.47 46.6263 517.47C46.2679 517.47 45.9394 517.556 45.6407 517.726C45.3421 517.889 45.1031 518.11 44.9239 518.392C44.7533 518.665 44.6679 518.977 44.6679 519.326V523H43.8743ZM51.1956 523.141C50.641 523.141 50.146 523.013 49.7108 522.757C49.2842 522.492 48.9471 522.121 48.6996 521.643C48.4607 521.157 48.3412 520.585 48.3412 519.928C48.3412 519.288 48.4607 518.729 48.6996 518.251C48.9471 517.773 49.2842 517.402 49.7108 517.138C50.1375 516.865 50.6239 516.728 51.17 516.728C51.7247 516.728 52.194 516.869 52.578 517.15C52.9706 517.423 53.2692 517.782 53.474 518.226C53.6788 518.661 53.7812 519.122 53.7812 519.608V519.864H49.122C49.105 520.632 49.2842 521.255 49.6596 521.733C50.0436 522.202 50.5599 522.437 51.2084 522.437C51.6863 522.437 52.0874 522.317 52.4116 522.078C52.7359 521.831 53.0004 521.468 53.2052 520.99L53.8452 521.362C53.2991 522.548 52.4159 523.141 51.1956 523.141ZM49.1732 519.198H53.0132C52.9706 518.866 52.8639 518.563 52.6932 518.29C52.5311 518.017 52.3178 517.799 52.0532 517.637C51.7972 517.475 51.5028 517.394 51.17 517.394C50.6495 517.394 50.21 517.556 49.8516 517.88C49.5018 518.196 49.2756 518.635 49.1732 519.198ZM56.9127 523.115C56.3154 523.124 55.829 522.987 55.4535 522.706C55.0866 522.424 54.9031 522.014 54.9031 521.477C54.9031 521.067 55.0397 520.709 55.3127 520.402C55.5943 520.094 55.9485 519.855 56.3751 519.685C56.8103 519.506 57.2583 519.416 57.7191 519.416C58.3506 519.416 58.8498 519.565 59.2167 519.864V518.814C59.2167 518.243 59.0973 517.871 58.8583 517.701C58.6194 517.522 58.2354 517.432 57.7063 517.432C57.365 517.432 56.9853 517.496 56.5671 517.624C56.149 517.743 55.7949 517.897 55.5047 518.085L55.1335 517.47C55.4663 517.257 55.8674 517.078 56.3367 516.933C56.8146 516.788 57.2711 516.715 57.7063 516.715C58.4829 516.715 59.0546 516.865 59.4215 517.163C59.7885 517.462 59.9719 518.012 59.9719 518.814V522.206C59.9719 522.369 60.0146 522.462 60.0999 522.488C60.1938 522.505 60.3943 522.484 60.7015 522.424V522.974C60.6162 523.009 60.501 523.038 60.3559 523.064C60.2109 523.098 60.0743 523.115 59.9463 523.115C59.6562 523.115 59.4685 523.055 59.3831 522.936C59.2978 522.817 59.2466 522.59 59.2295 522.258C58.965 522.548 58.6151 522.761 58.1799 522.898C57.7447 523.034 57.3223 523.107 56.9127 523.115ZM56.9511 522.411C57.3607 522.403 57.7405 522.339 58.0903 522.219C58.4487 522.1 58.7303 521.929 58.9351 521.707C59.1485 521.477 59.2466 521.199 59.2295 520.875C59.2039 520.611 59.0589 520.414 58.7943 520.286C58.5298 520.15 58.1885 520.086 57.7703 520.094C57.4205 520.094 57.0834 520.154 56.7591 520.274C56.4349 520.393 56.1703 520.559 55.9655 520.773C55.7693 520.978 55.6711 521.217 55.6711 521.49C55.6711 521.805 55.7906 522.04 56.0295 522.194C56.2685 522.339 56.5757 522.411 56.9511 522.411ZM64.1304 523.141C63.5843 523.141 63.1747 523.026 62.9016 522.795C62.6286 522.565 62.492 522.151 62.492 521.554V517.586H61.1608V516.869H62.492V514.616H63.26V516.869H65.1288V517.586H63.26V521.426C63.26 521.81 63.3411 522.074 63.5032 522.219C63.6654 522.356 63.9171 522.424 64.2584 522.424C64.4035 522.424 64.5571 522.403 64.7192 522.36C64.8814 522.317 65.0179 522.27 65.1288 522.219V522.974C65.0094 523.017 64.8558 523.055 64.668 523.09C64.4803 523.124 64.3011 523.141 64.1304 523.141ZM69.0706 523.141C68.516 523.141 68.021 523.013 67.5858 522.757C67.1592 522.492 66.8221 522.121 66.5746 521.643C66.3357 521.157 66.2162 520.585 66.2162 519.928C66.2162 519.288 66.3357 518.729 66.5746 518.251C66.8221 517.773 67.1592 517.402 67.5858 517.138C68.0125 516.865 68.4989 516.728 69.045 516.728C69.5997 516.728 70.069 516.869 70.453 517.15C70.8456 517.423 71.1442 517.782 71.349 518.226C71.5538 518.661 71.6562 519.122 71.6562 519.608V519.864H66.997C66.98 520.632 67.1592 521.255 67.5346 521.733C67.9186 522.202 68.4349 522.437 69.0834 522.437C69.5613 522.437 69.9624 522.317 70.2866 522.078C70.6109 521.831 70.8754 521.468 71.0802 520.99L71.7202 521.362C71.1741 522.548 70.2909 523.141 69.0706 523.141ZM67.0482 519.198H70.8882C70.8456 518.866 70.7389 518.563 70.5682 518.29C70.4061 518.017 70.1928 517.799 69.9282 517.637C69.6722 517.475 69.3778 517.394 69.045 517.394C68.5245 517.394 68.085 517.556 67.7266 517.88C67.3768 518.196 67.1506 518.635 67.0482 519.198ZM76.9898 523V514.04H77.7706L82.8266 521.592V514.04H83.6202V523H82.8522L77.7706 515.371V523H76.9898ZM88.1456 523.141C87.591 523.141 87.096 523.013 86.6608 522.757C86.2342 522.492 85.8971 522.121 85.6496 521.643C85.4107 521.157 85.2912 520.585 85.2912 519.928C85.2912 519.288 85.4107 518.729 85.6496 518.251C85.8971 517.773 86.2342 517.402 86.6608 517.138C87.0875 516.865 87.5739 516.728 88.12 516.728C88.6747 516.728 89.144 516.869 89.528 517.15C89.9206 517.423 90.2192 517.782 90.424 518.226C90.6288 518.661 90.7312 519.122 90.7312 519.608V519.864H86.072C86.055 520.632 86.2342 521.255 86.6096 521.733C86.9936 522.202 87.5099 522.437 88.1584 522.437C88.6363 522.437 89.0374 522.317 89.3616 522.078C89.6859 521.831 89.9504 521.468 90.1552 520.99L90.7952 521.362C90.2491 522.548 89.3659 523.141 88.1456 523.141ZM86.1232 519.198H89.9632C89.9206 518.866 89.8139 518.563 89.6432 518.29C89.4811 518.017 89.2678 517.799 89.0032 517.637C88.7472 517.475 88.4528 517.394 88.12 517.394C87.5995 517.394 87.16 517.556 86.8016 517.88C86.4518 518.196 86.2256 518.635 86.1232 519.198ZM93.4433 523L91.5233 516.869H92.2913L93.7633 521.746L95.2097 516.869H95.8369L97.2833 521.746L98.7553 516.869H99.5233L97.6033 523H96.9761L95.5297 518.11L94.0577 523H93.4433ZM104.552 523V514.027H108.456C109.301 514.027 109.941 514.223 110.376 514.616C110.82 515.009 111.042 515.593 111.042 516.37C111.042 517.146 110.82 517.731 110.376 518.123C109.941 518.516 109.301 518.712 108.456 518.712H105.333V523H104.552ZM105.333 517.957H108.392C109.007 517.957 109.463 517.829 109.762 517.573C110.069 517.317 110.223 516.916 110.223 516.37C110.223 515.823 110.069 515.422 109.762 515.166C109.463 514.91 109.007 514.782 108.392 514.782H105.333V517.957ZM114.1 523.115C113.503 523.124 113.017 522.987 112.641 522.706C112.274 522.424 112.091 522.014 112.091 521.477C112.091 521.067 112.227 520.709 112.5 520.402C112.782 520.094 113.136 519.855 113.563 519.685C113.998 519.506 114.446 519.416 114.907 519.416C115.538 519.416 116.037 519.565 116.404 519.864V518.814C116.404 518.243 116.285 517.871 116.046 517.701C115.807 517.522 115.423 517.432 114.894 517.432C114.553 517.432 114.173 517.496 113.755 517.624C113.337 517.743 112.982 517.897 112.692 518.085L112.321 517.47C112.654 517.257 113.055 517.078 113.524 516.933C114.002 516.788 114.459 516.715 114.894 516.715C115.67 516.715 116.242 516.865 116.609 517.163C116.976 517.462 117.159 518.012 117.159 518.814V522.206C117.159 522.369 117.202 522.462 117.287 522.488C117.381 522.505 117.582 522.484 117.889 522.424V522.974C117.804 523.009 117.689 523.038 117.543 523.064C117.398 523.098 117.262 523.115 117.134 523.115C116.844 523.115 116.656 523.055 116.571 522.936C116.485 522.817 116.434 522.59 116.417 522.258C116.153 522.548 115.803 522.761 115.367 522.898C114.932 523.034 114.51 523.107 114.1 523.115ZM114.139 522.411C114.548 522.403 114.928 522.339 115.278 522.219C115.636 522.1 115.918 521.929 116.123 521.707C116.336 521.477 116.434 521.199 116.417 520.875C116.391 520.611 116.246 520.414 115.982 520.286C115.717 520.15 115.376 520.086 114.958 520.094C114.608 520.094 114.271 520.154 113.947 520.274C113.622 520.393 113.358 520.559 113.153 520.773C112.957 520.978 112.859 521.217 112.859 521.49C112.859 521.805 112.978 522.04 113.217 522.194C113.456 522.339 113.763 522.411 114.139 522.411ZM121.411 523.141C120.865 523.141 120.37 523.034 119.926 522.821C119.483 522.607 119.124 522.305 118.851 521.912L119.414 521.438C119.619 521.754 119.896 521.997 120.246 522.168C120.605 522.339 121.001 522.424 121.437 522.424C121.855 522.424 122.209 522.334 122.499 522.155C122.798 521.967 122.947 521.677 122.947 521.285C122.947 520.935 122.806 520.692 122.525 520.555C122.243 520.419 121.812 520.291 121.232 520.171C120.873 520.094 120.532 520.001 120.208 519.89C119.892 519.779 119.636 519.612 119.44 519.39C119.244 519.16 119.145 518.844 119.145 518.443C119.145 518.076 119.244 517.765 119.44 517.509C119.645 517.253 119.913 517.057 120.246 516.92C120.579 516.783 120.933 516.715 121.309 516.715C122.316 516.715 123.054 517.074 123.523 517.79L122.998 518.264C122.648 517.709 122.089 517.432 121.321 517.432C120.878 517.432 120.536 517.53 120.297 517.726C120.059 517.914 119.939 518.149 119.939 518.43C119.939 518.746 120.067 518.972 120.323 519.109C120.588 519.237 120.993 519.361 121.539 519.48C121.923 519.565 122.281 519.672 122.614 519.8C122.956 519.928 123.229 520.107 123.433 520.338C123.638 520.568 123.741 520.888 123.741 521.298C123.741 521.844 123.527 522.287 123.101 522.629C122.683 522.97 122.119 523.141 121.411 523.141ZM127.274 523.141C126.727 523.141 126.232 523.034 125.789 522.821C125.345 522.607 124.987 522.305 124.714 521.912L125.277 521.438C125.482 521.754 125.759 521.997 126.109 522.168C126.467 522.339 126.864 522.424 127.299 522.424C127.717 522.424 128.071 522.334 128.362 522.155C128.66 521.967 128.81 521.677 128.81 521.285C128.81 520.935 128.669 520.692 128.387 520.555C128.106 520.419 127.675 520.291 127.094 520.171C126.736 520.094 126.395 520.001 126.07 519.89C125.755 519.779 125.499 519.612 125.302 519.39C125.106 519.16 125.008 518.844 125.008 518.443C125.008 518.076 125.106 517.765 125.302 517.509C125.507 517.253 125.776 517.057 126.109 516.92C126.442 516.783 126.796 516.715 127.171 516.715C128.178 516.715 128.916 517.074 129.386 517.79L128.861 518.264C128.511 517.709 127.952 517.432 127.184 517.432C126.74 517.432 126.399 517.53 126.16 517.726C125.921 517.914 125.802 518.149 125.802 518.43C125.802 518.746 125.93 518.972 126.186 519.109C126.45 519.237 126.855 519.361 127.402 519.48C127.786 519.565 128.144 519.672 128.477 519.8C128.818 519.928 129.091 520.107 129.296 520.338C129.501 520.568 129.603 520.888 129.603 521.298C129.603 521.844 129.39 522.287 128.963 522.629C128.545 522.97 127.982 523.141 127.274 523.141ZM132.131 523L130.211 516.869H130.979L132.451 521.746L133.897 516.869H134.524L135.971 521.746L137.443 516.869H138.211L136.291 523H135.664L134.217 518.11L132.745 523H132.131ZM141.77 523.141C141.224 523.141 140.738 523.004 140.311 522.731C139.884 522.458 139.547 522.083 139.3 521.605C139.052 521.118 138.929 520.559 138.929 519.928C138.929 519.297 139.052 518.742 139.3 518.264C139.547 517.778 139.884 517.398 140.311 517.125C140.738 516.852 141.224 516.715 141.77 516.715C142.325 516.715 142.816 516.852 143.242 517.125C143.669 517.398 144.006 517.778 144.254 518.264C144.501 518.742 144.625 519.297 144.625 519.928C144.625 520.559 144.501 521.118 144.254 521.605C144.006 522.083 143.669 522.458 143.242 522.731C142.816 523.004 142.325 523.141 141.77 523.141ZM141.77 522.411C142.171 522.411 142.526 522.309 142.833 522.104C143.148 521.899 143.396 521.613 143.575 521.246C143.754 520.871 143.844 520.431 143.844 519.928C143.844 519.425 143.754 518.989 143.575 518.622C143.396 518.247 143.148 517.957 142.833 517.752C142.526 517.547 142.171 517.445 141.77 517.445C141.173 517.445 140.678 517.671 140.286 518.123C139.902 518.567 139.71 519.169 139.71 519.928C139.71 520.679 139.902 521.281 140.286 521.733C140.678 522.185 141.173 522.411 141.77 522.411ZM146.174 523V516.869H146.917L146.955 517.931C147.126 517.573 147.395 517.283 147.762 517.061C148.137 516.83 148.551 516.715 149.003 516.715C149.123 516.715 149.242 516.724 149.362 516.741C149.49 516.749 149.596 516.766 149.682 516.792V517.547C149.605 517.53 149.494 517.513 149.349 517.496C149.212 517.479 149.071 517.47 148.926 517.47C148.568 517.47 148.239 517.556 147.941 517.726C147.642 517.889 147.403 518.11 147.224 518.392C147.053 518.665 146.968 518.977 146.968 519.326V523H146.174ZM153.483 523.141C152.937 523.141 152.45 523.009 152.024 522.744C151.597 522.471 151.26 522.095 151.012 521.618C150.765 521.131 150.641 520.568 150.641 519.928C150.641 519.288 150.765 518.729 151.012 518.251C151.26 517.773 151.597 517.402 152.024 517.138C152.45 516.865 152.937 516.728 153.483 516.728C153.944 516.728 154.353 516.839 154.712 517.061C155.07 517.274 155.356 517.569 155.569 517.944V513.758H156.35V523H155.633L155.62 521.874C155.399 522.266 155.104 522.578 154.737 522.808C154.37 523.03 153.952 523.141 153.483 523.141ZM153.508 522.411C153.91 522.411 154.264 522.309 154.571 522.104C154.887 521.899 155.134 521.613 155.313 521.246C155.492 520.871 155.582 520.431 155.582 519.928C155.582 519.425 155.492 518.989 155.313 518.622C155.134 518.255 154.887 517.97 154.571 517.765C154.264 517.56 153.91 517.458 153.508 517.458C153.107 517.458 152.749 517.56 152.433 517.765C152.118 517.97 151.87 518.255 151.691 518.622C151.512 518.989 151.422 519.425 151.422 519.928C151.422 520.431 151.512 520.871 151.691 521.246C151.87 521.613 152.118 521.899 152.433 522.104C152.749 522.309 153.107 522.411 153.508 522.411Z" fill="#757575"/>
</g>
<path d="M16 617C16 612.582 19.5817 609 24 609H162.5H388C392.418 609 396 612.582 396 617V657C396 661.418 392.418 665 388 665H24C19.5817 665 16 661.418 16 657V617Z" stroke="#BDBDBD"/>
<mask id="mask1_37_4589" style="mask-type:luminance" maskUnits="userSpaceOnUse" x="372" y="629" width="16" height="16">
<rect x="372" y="629" width="16" height="16" fill="white"/>
</mask>
<g mask="url(#mask1_37_4589)">
<path fill-rule="evenodd" clip-rule="evenodd" d="M388 637C388 637 385 631.5 380 631.5C375 631.5 372 637 372 637C372 637 375 642.5 380 642.5C385 642.5 388 637 388 637ZM373.173 637C373.657 637.735 374.213 638.419 374.833 639.043C376.12 640.332 377.88 641.5 380 641.5C382.12 641.5 383.879 640.332 385.168 639.043C385.788 638.419 386.344 637.735 386.828 637C386.344 636.265 385.788 635.581 385.168 634.957C383.879 633.668 382.119 632.5 380 632.5C377.88 632.5 376.121 633.668 374.832 634.957C374.212 635.581 373.656 636.265 373.172 637L373.173 637Z" fill="#BEBEBE"/>
<path fill-rule="evenodd" clip-rule="evenodd" d="M380 634.5C378.619 634.5 377.5 635.619 377.5 637C377.5 638.381 378.619 639.5 380 639.5C381.381 639.5 382.5 638.381 382.5 637C382.5 635.619 381.381 634.5 380 634.5H380ZM376.5 637C376.5 635.75 377.167 634.594 378.25 633.969C379.333 633.344 380.667 633.344 381.75 633.969C382.833 634.594 383.5 635.75 383.5 637C383.5 638.25 382.833 639.406 381.75 640.031C380.667 640.656 379.333 640.656 378.25 640.031C377.167 639.406 376.5 638.25 376.5 637V637Z" fill="#BEBEBE"/>
</g>
<path d="M34.64 638.512L33.92 638.016L35.344 636.032L33.056 635.28L33.312 634.464L35.632 635.216V632.8H36.48V635.216L38.784 634.464L39.072 635.28L36.752 636.032L38.192 638.016L37.488 638.512L36.064 636.528L34.64 638.512ZM42.7494 638.512L42.0294 638.016L43.4534 636.032L41.1654 635.28L41.4214 634.464L43.7414 635.216V632.8H44.5894V635.216L46.8934 634.464L47.1814 635.28L44.8614 636.032L46.3014 638.016L45.5974 638.512L44.1734 636.528L42.7494 638.512ZM50.8588 638.512L50.1388 638.016L51.5628 636.032L49.2747 635.28L49.5308 634.464L51.8508 635.216V632.8H52.6988V635.216L55.0028 634.464L55.2908 635.28L52.9708 636.032L54.4108 638.016L53.7068 638.512L52.2828 636.528L50.8588 638.512ZM58.9681 638.512L58.2481 638.016L59.6721 636.032L57.3841 635.28L57.6401 634.464L59.9601 635.216V632.8H60.8081V635.216L63.1121 634.464L63.4001 635.28L61.0801 636.032L62.5201 638.016L61.8161 638.512L60.3921 636.528L58.9681 638.512ZM67.0775 638.512L66.3575 638.016L67.7815 636.032L65.4935 635.28L65.7495 634.464L68.0695 635.216V632.8H68.9175V635.216L71.2215 634.464L71.5095 635.28L69.1895 636.032L70.6295 638.016L69.9255 638.512L68.5015 636.528L67.0775 638.512ZM75.1869 638.512L74.4669 638.016L75.8909 636.032L73.6029 635.28L73.8589 634.464L76.1789 635.216V632.8H77.0269V635.216L79.3309 634.464L79.6189 635.28L77.2989 636.032L78.7389 638.016L78.0349 638.512L76.6109 636.528L75.1869 638.512ZM83.2963 638.512L82.5763 638.016L84.0003 636.032L81.7122 635.28L81.9683 634.464L84.2883 635.216V632.8H85.1363V635.216L87.4403 634.464L87.7283 635.28L85.4083 636.032L86.8483 638.016L86.1443 638.512L84.7203 636.528L83.2963 638.512ZM91.4056 638.512L90.6856 638.016L92.1096 636.032L89.8216 635.28L90.0776 634.464L92.3976 635.216V632.8H93.2456V635.216L95.5496 634.464L95.8376 635.28L93.5176 636.032L94.9576 638.016L94.2536 638.512L92.8296 636.528L91.4056 638.512ZM99.515 638.512L98.795 638.016L100.219 636.032L97.931 635.28L98.187 634.464L100.507 635.216V632.8H101.355V635.216L103.659 634.464L103.947 635.28L101.627 636.032L103.067 638.016L102.363 638.512L100.939 636.528L99.515 638.512ZM107.624 638.512L106.904 638.016L108.328 636.032L106.04 635.28L106.296 634.464L108.616 635.216V632.8H109.464V635.216L111.768 634.464L112.056 635.28L109.736 636.032L111.176 638.016L110.472 638.512L109.048 636.528L107.624 638.512ZM115.734 638.512L115.014 638.016L116.438 636.032L114.15 635.28L114.406 634.464L116.726 635.216V632.8H117.574V635.216L119.878 634.464L120.166 635.28L117.846 636.032L119.286 638.016L118.582 638.512L117.158 636.528L115.734 638.512ZM123.843 638.512L123.123 638.016L124.547 636.032L122.259 635.28L122.515 634.464L124.835 635.216V632.8H125.683V635.216L127.987 634.464L128.275 635.28L125.955 636.032L127.395 638.016L126.691 638.512L125.267 636.528L123.843 638.512ZM131.953 638.512L131.233 638.016L132.657 636.032L130.368 635.28L130.625 634.464L132.945 635.216V632.8H133.793V635.216L136.097 634.464L136.385 635.28L134.065 636.032L135.505 638.016L134.801 638.512L133.377 636.528L131.953 638.512ZM140.062 638.512L139.342 638.016L140.766 636.032L138.478 635.28L138.734 634.464L141.054 635.216V632.8H141.902V635.216L144.206 634.464L144.494 635.28L142.174 636.032L143.614 638.016L142.91 638.512L141.486 636.528L140.062 638.512ZM148.171 638.512L147.451 638.016L148.875 636.032L146.587 635.28L146.843 634.464L149.163 635.216V632.8H150.011V635.216L152.315 634.464L152.603 635.28L150.283 636.032L151.723 638.016L151.019 638.512L149.595 636.528L148.171 638.512Z" fill="#757575"/>
<g clip-path="url(#clip2_37_4589)">
<rect x="27" y="598" width="118" height="23" fill="#FAFAFA"/>
<path d="M40.3185 615.166C39.5078 615.166 38.7953 614.974 38.1809 614.59C37.5665 614.206 37.0844 613.665 36.7345 612.965C36.3932 612.265 36.2225 611.446 36.2225 610.507C36.2225 609.569 36.3932 608.754 36.7345 608.062C37.0844 607.363 37.5665 606.821 38.1809 606.437C38.7953 606.044 39.5078 605.848 40.3185 605.848C41.0268 605.848 41.6582 606.002 42.2129 606.309C42.7761 606.607 43.2412 607.034 43.6081 607.589L42.9169 607.998C42.6268 607.563 42.2598 607.226 41.8161 606.987C41.3724 606.748 40.8732 606.629 40.3185 606.629C39.6785 606.629 39.111 606.787 38.6161 607.102C38.1212 607.41 37.7329 607.853 37.4513 608.434C37.1697 609.014 37.0289 609.705 37.0289 610.507C37.0289 611.309 37.1697 612.005 37.4513 612.594C37.7329 613.174 38.1212 613.622 38.6161 613.938C39.111 614.245 39.6785 614.398 40.3185 614.398C40.8732 614.398 41.3724 614.279 41.8161 614.04C42.2598 613.801 42.6268 613.464 42.9169 613.029L43.6081 613.451C43.2412 613.989 42.7761 614.411 42.2129 614.718C41.6582 615.017 41.0268 615.166 40.3185 615.166ZM47.6516 615.141C47.1055 615.141 46.6191 615.004 46.1924 614.731C45.7657 614.458 45.4287 614.083 45.1812 613.605C44.9337 613.118 44.81 612.559 44.81 611.928C44.81 611.297 44.9337 610.742 45.1812 610.264C45.4287 609.778 45.7657 609.398 46.1924 609.125C46.6191 608.852 47.1055 608.715 47.6516 608.715C48.2063 608.715 48.6969 608.852 49.1236 609.125C49.5503 609.398 49.8873 609.778 50.1348 610.264C50.3823 610.742 50.506 611.297 50.506 611.928C50.506 612.559 50.3823 613.118 50.1348 613.605C49.8873 614.083 49.5503 614.458 49.1236 614.731C48.6969 615.004 48.2063 615.141 47.6516 615.141ZM47.6516 614.411C48.0527 614.411 48.4068 614.309 48.714 614.104C49.0297 613.899 49.2772 613.613 49.4564 613.246C49.6356 612.871 49.7252 612.431 49.7252 611.928C49.7252 611.425 49.6356 610.989 49.4564 610.622C49.2772 610.247 49.0297 609.957 48.714 609.752C48.4068 609.547 48.0527 609.445 47.6516 609.445C47.0543 609.445 46.5593 609.671 46.1668 610.123C45.7828 610.567 45.5908 611.169 45.5908 611.928C45.5908 612.679 45.7828 613.281 46.1668 613.733C46.5593 614.185 47.0543 614.411 47.6516 614.411ZM52.0556 615V608.869H52.7852L52.8108 609.739C53.0071 609.449 53.2673 609.206 53.5916 609.01C53.9244 608.813 54.2999 608.715 54.718 608.715C55.3751 608.715 55.9041 608.924 56.3052 609.342C56.7063 609.761 56.9068 610.358 56.9068 611.134V615H56.1388V611.25C56.1388 610.652 55.9937 610.204 55.7036 609.906C55.422 609.607 55.0551 609.458 54.6028 609.458C54.2615 609.458 53.9543 609.534 53.6812 609.688C53.4167 609.833 53.2076 610.034 53.054 610.29C52.9089 610.537 52.8364 610.814 52.8364 611.122V615H52.0556ZM59.5093 615V609.586H58.2421V608.869H59.5093V607.653C59.5093 607.149 59.5946 606.757 59.7653 606.475C59.936 606.194 60.1621 605.993 60.4437 605.874C60.7253 605.754 61.0282 605.694 61.3525 605.694C61.5232 605.694 61.681 605.707 61.8261 605.733C61.9797 605.75 62.112 605.78 62.2229 605.822V606.552C62.129 606.509 62.0096 606.475 61.8645 606.45C61.728 606.424 61.5914 606.411 61.4549 606.411C61.1136 606.411 60.832 606.514 60.6101 606.718C60.3882 606.915 60.2773 607.243 60.2773 607.704V608.869H62.2229V609.586H60.2773V615H59.5093ZM63.6482 615V608.869H64.4162V615H63.6482ZM64.0322 607.538C63.8701 607.538 63.7293 607.482 63.6098 607.371C63.4903 607.252 63.4306 607.111 63.4306 606.949C63.4306 606.778 63.4903 606.637 63.6098 606.526C63.7293 606.415 63.8701 606.36 64.0322 606.36C64.1943 606.36 64.3309 606.415 64.4418 606.526C64.5527 606.637 64.6082 606.778 64.6082 606.949C64.6082 607.111 64.5527 607.252 64.4418 607.371C64.3309 607.482 64.1943 607.538 64.0322 607.538ZM66.5181 615V608.869H67.2605L67.2989 609.931C67.4696 609.573 67.7384 609.283 68.1053 609.061C68.4808 608.83 68.8946 608.715 69.3469 608.715C69.4664 608.715 69.5858 608.724 69.7053 608.741C69.8333 608.749 69.94 608.766 70.0253 608.792V609.547C69.9485 609.53 69.8376 609.513 69.6925 609.496C69.556 609.479 69.4152 609.47 69.2701 609.47C68.9117 609.47 68.5832 609.556 68.2845 609.726C67.9858 609.889 67.7469 610.11 67.5677 610.392C67.397 610.665 67.3117 610.977 67.3117 611.326V615H66.5181ZM71.3306 615V608.869H72.0602L72.0986 609.829C72.2351 609.513 72.4613 609.249 72.777 609.035C73.0927 608.822 73.4511 608.715 73.8522 608.715C74.3471 608.715 74.7525 608.83 75.0682 609.061C75.3925 609.291 75.6101 609.611 75.721 610.021C75.8661 609.645 76.0965 609.334 76.4122 609.086C76.7279 608.839 77.1333 608.715 77.6282 608.715C78.2597 608.715 78.7546 608.916 79.113 609.317C79.4714 609.709 79.6506 610.302 79.6506 611.096V615H78.8698V611.211C78.8698 610.563 78.7461 610.106 78.4986 609.842C78.2511 609.577 77.9183 609.445 77.5002 609.445C77.1759 609.445 76.8901 609.53 76.6426 609.701C76.4037 609.863 76.2159 610.081 76.0794 610.354C75.9514 610.618 75.8874 610.908 75.8874 611.224V615H75.1066V611.211C75.1066 610.563 74.9786 610.106 74.7226 609.842C74.4751 609.577 74.1423 609.445 73.7242 609.445C73.3999 609.445 73.1141 609.53 72.8666 609.701C72.6277 609.871 72.4399 610.093 72.3034 610.366C72.1754 610.631 72.1114 610.913 72.1114 611.211V615H71.3306ZM85.2711 615V606.027H89.1751C90.0199 606.027 90.6599 606.223 91.0951 606.616C91.5388 607.009 91.7607 607.593 91.7607 608.37C91.7607 609.146 91.5388 609.731 91.0951 610.123C90.6599 610.516 90.0199 610.712 89.1751 610.712H86.0519V615H85.2711ZM86.0519 609.957H89.1111C89.7255 609.957 90.182 609.829 90.4807 609.573C90.7879 609.317 90.9415 608.916 90.9415 608.37C90.9415 607.823 90.7879 607.422 90.4807 607.166C90.182 606.91 89.7255 606.782 89.1111 606.782H86.0519V609.957ZM94.819 615.115C94.2217 615.124 93.7353 614.987 93.3598 614.706C92.9929 614.424 92.8094 614.014 92.8094 613.477C92.8094 613.067 92.9459 612.709 93.219 612.402C93.5006 612.094 93.8547 611.855 94.2814 611.685C94.7166 611.506 95.1646 611.416 95.6254 611.416C96.2569 611.416 96.7561 611.565 97.123 611.864V610.814C97.123 610.243 97.0035 609.871 96.7646 609.701C96.5257 609.522 96.1417 609.432 95.6126 609.432C95.2713 609.432 94.8915 609.496 94.4734 609.624C94.0553 609.743 93.7011 609.897 93.411 610.085L93.0398 609.47C93.3726 609.257 93.7737 609.078 94.243 608.933C94.7209 608.788 95.1774 608.715 95.6126 608.715C96.3891 608.715 96.9609 608.865 97.3278 609.163C97.6947 609.462 97.8782 610.012 97.8782 610.814V614.206C97.8782 614.369 97.9209 614.462 98.0062 614.488C98.1001 614.505 98.3006 614.484 98.6078 614.424V614.974C98.5225 615.009 98.4073 615.038 98.2622 615.064C98.1171 615.098 97.9806 615.115 97.8526 615.115C97.5625 615.115 97.3747 615.055 97.2894 614.936C97.2041 614.817 97.1529 614.59 97.1358 614.258C96.8713 614.548 96.5214 614.761 96.0862 614.898C95.651 615.034 95.2286 615.107 94.819 615.115ZM94.8574 614.411C95.267 614.403 95.6467 614.339 95.9966 614.219C96.355 614.1 96.6366 613.929 96.8414 613.707C97.0547 613.477 97.1529 613.199 97.1358 612.875C97.1102 612.611 96.9651 612.414 96.7006 612.286C96.4361 612.15 96.0947 612.086 95.6766 612.094C95.3267 612.094 94.9897 612.154 94.6654 612.274C94.3411 612.393 94.0766 612.559 93.8718 612.773C93.6755 612.978 93.5774 613.217 93.5774 613.49C93.5774 613.805 93.6969 614.04 93.9358 614.194C94.1747 614.339 94.4819 614.411 94.8574 614.411ZM102.13 615.141C101.584 615.141 101.089 615.034 100.645 614.821C100.201 614.607 99.8429 614.305 99.5698 613.912L100.133 613.438C100.338 613.754 100.615 613.997 100.965 614.168C101.323 614.339 101.72 614.424 102.155 614.424C102.574 614.424 102.928 614.334 103.218 614.155C103.516 613.967 103.666 613.677 103.666 613.285C103.666 612.935 103.525 612.692 103.243 612.555C102.962 612.419 102.531 612.291 101.951 612.171C101.592 612.094 101.251 612.001 100.927 611.89C100.611 611.779 100.355 611.612 100.159 611.39C99.9623 611.16 99.8642 610.844 99.8642 610.443C99.8642 610.076 99.9623 609.765 100.159 609.509C100.363 609.253 100.632 609.057 100.965 608.92C101.298 608.783 101.652 608.715 102.027 608.715C103.034 608.715 103.772 609.074 104.242 609.79L103.717 610.264C103.367 609.709 102.808 609.432 102.04 609.432C101.596 609.432 101.255 609.53 101.016 609.726C100.777 609.914 100.658 610.149 100.658 610.43C100.658 610.746 100.786 610.972 101.042 611.109C101.306 611.237 101.712 611.361 102.258 611.48C102.642 611.565 103 611.672 103.333 611.8C103.674 611.928 103.947 612.107 104.152 612.338C104.357 612.568 104.459 612.888 104.459 613.298C104.459 613.844 104.246 614.287 103.819 614.629C103.401 614.97 102.838 615.141 102.13 615.141ZM107.992 615.141C107.446 615.141 106.951 615.034 106.508 614.821C106.064 614.607 105.705 614.305 105.432 613.912L105.996 613.438C106.2 613.754 106.478 613.997 106.827 614.168C107.186 614.339 107.583 614.424 108.018 614.424C108.436 614.424 108.79 614.334 109.08 614.155C109.379 613.967 109.528 613.677 109.528 613.285C109.528 612.935 109.388 612.692 109.106 612.555C108.824 612.419 108.393 612.291 107.813 612.171C107.455 612.094 107.113 612.001 106.789 611.89C106.473 611.779 106.217 611.612 106.021 611.39C105.825 611.16 105.727 610.844 105.727 610.443C105.727 610.076 105.825 609.765 106.021 609.509C106.226 609.253 106.495 609.057 106.827 608.92C107.16 608.783 107.514 608.715 107.89 608.715C108.897 608.715 109.635 609.074 110.104 609.79L109.58 610.264C109.23 609.709 108.671 609.432 107.903 609.432C107.459 609.432 107.118 609.53 106.879 609.726C106.64 609.914 106.52 610.149 106.52 610.43C106.52 610.746 106.648 610.972 106.904 611.109C107.169 611.237 107.574 611.361 108.12 611.48C108.504 611.565 108.863 611.672 109.196 611.8C109.537 611.928 109.81 612.107 110.015 612.338C110.22 612.568 110.322 612.888 110.322 613.298C110.322 613.844 110.109 614.287 109.682 614.629C109.264 614.97 108.701 615.141 107.992 615.141ZM112.85 615L110.93 608.869H111.698L113.17 613.746L114.616 608.869H115.243L116.69 613.746L118.162 608.869H118.93L117.01 615H116.382L114.936 610.11L113.464 615H112.85ZM122.489 615.141C121.943 615.141 121.457 615.004 121.03 614.731C120.603 614.458 120.266 614.083 120.019 613.605C119.771 613.118 119.647 612.559 119.647 611.928C119.647 611.297 119.771 610.742 120.019 610.264C120.266 609.778 120.603 609.398 121.03 609.125C121.457 608.852 121.943 608.715 122.489 608.715C123.044 608.715 123.534 608.852 123.961 609.125C124.388 609.398 124.725 609.778 124.972 610.264C125.22 610.742 125.343 611.297 125.343 611.928C125.343 612.559 125.22 613.118 124.972 613.605C124.725 614.083 124.388 614.458 123.961 614.731C123.534 615.004 123.044 615.141 122.489 615.141ZM122.489 614.411C122.89 614.411 123.244 614.309 123.551 614.104C123.867 613.899 124.115 613.613 124.294 613.246C124.473 612.871 124.563 612.431 124.563 611.928C124.563 611.425 124.473 610.989 124.294 610.622C124.115 610.247 123.867 609.957 123.551 609.752C123.244 609.547 122.89 609.445 122.489 609.445C121.892 609.445 121.397 609.671 121.004 610.123C120.62 610.567 120.428 611.169 120.428 611.928C120.428 612.679 120.62 613.281 121.004 613.733C121.397 614.185 121.892 614.411 122.489 614.411ZM126.893 615V608.869H127.635L127.674 609.931C127.845 609.573 128.113 609.283 128.48 609.061C128.856 608.83 129.27 608.715 129.722 608.715C129.841 608.715 129.961 608.724 130.08 608.741C130.208 608.749 130.315 608.766 130.4 608.792V609.547C130.324 609.53 130.213 609.513 130.068 609.496C129.931 609.479 129.79 609.47 129.645 609.47C129.287 609.47 128.958 609.556 128.66 609.726C128.361 609.889 128.122 610.11 127.943 610.392C127.772 610.665 127.687 610.977 127.687 611.326V615H126.893ZM134.202 615.141C133.655 615.141 133.169 615.009 132.742 614.744C132.316 614.471 131.979 614.095 131.731 613.618C131.484 613.131 131.36 612.568 131.36 611.928C131.36 611.288 131.484 610.729 131.731 610.251C131.979 609.773 132.316 609.402 132.742 609.138C133.169 608.865 133.655 608.728 134.202 608.728C134.662 608.728 135.072 608.839 135.43 609.061C135.789 609.274 136.075 609.569 136.288 609.944V605.758H137.069V615H136.352L136.339 613.874C136.117 614.266 135.823 614.578 135.456 614.808C135.089 615.03 134.671 615.141 134.202 615.141ZM134.227 614.411C134.628 614.411 134.982 614.309 135.29 614.104C135.605 613.899 135.853 613.613 136.032 613.246C136.211 612.871 136.301 612.431 136.301 611.928C136.301 611.425 136.211 610.989 136.032 610.622C135.853 610.255 135.605 609.97 135.29 609.765C134.982 609.56 134.628 609.458 134.227 609.458C133.826 609.458 133.468 609.56 133.152 609.765C132.836 609.97 132.589 610.255 132.41 610.622C132.23 610.989 132.141 611.425 132.141 611.928C132.141 612.431 132.23 612.871 132.41 613.246C132.589 613.613 132.836 613.899 133.152 614.104C133.468 614.309 133.826 614.411 134.227 614.411Z" fill="#757575"/>
</g>
</g>
<defs>
<clipPath id="clip0_37_4589">
<path d="M0 439C0 410.281 23.2812 387 52 387H360C388.719 387 412 410.281 412 439V917H0V439Z" fill="white"/>
</clipPath>
<clipPath id="clip1_37_4589">
<rect width="144" height="23" fill="white" transform="translate(27 506)"/>
</clipPath>
<clipPath id="clip2_37_4589">
<rect width="118" height="23" fill="white" transform="translate(27 598)"/>
</clipPath>
</defs>
</svg>
