<svg width="412" height="917" viewBox="0 0 412 917" fill="none" xmlns="http://www.w3.org/2000/svg">
<rect width="412" height="917" fill="#1B7BAB"/>
<path d="M269.578 275.919H256.798V256.749C256.788 248.278 253.419 240.158 247.429 234.168C241.44 228.179 233.319 224.809 224.849 224.799H186.509C178.038 224.809 169.918 228.179 163.928 234.168C157.939 240.158 154.569 248.278 154.559 256.749V275.919H141.779V256.749C141.793 244.89 146.51 233.521 154.895 225.135C163.281 216.75 174.65 212.033 186.509 212.019H224.849C236.707 212.033 248.077 216.75 256.462 225.135C264.848 233.521 269.565 244.89 269.578 256.749V275.919Z" fill="white"/>
<path d="M135.39 122.56C133.695 122.56 132.07 123.233 130.872 124.432C129.673 125.63 129 127.255 129 128.95V186.46H141.78V128.95C141.78 127.255 141.107 125.63 139.908 124.432C138.71 123.233 137.085 122.56 135.39 122.56Z" fill="white"/>
<path d="M129 97V109.78H160.95V154.51C160.95 166.373 165.662 177.75 174.051 186.138C182.439 194.527 193.816 199.239 205.679 199.239C217.542 199.239 228.92 194.527 237.308 186.138C245.696 177.75 250.409 166.373 250.409 154.51V109.78H282.359V97H129ZM173.73 109.78H237.629V128.95H173.73V109.78ZM205.679 186.459C197.206 186.459 189.079 183.093 183.087 177.101C177.096 171.11 173.73 162.983 173.73 154.51V141.73H237.629V154.51C237.629 162.983 234.263 171.11 228.271 177.101C222.279 183.093 214.153 186.459 205.679 186.459Z" fill="white"/>
<path d="M146.697 286.28C147.177 287.16 147.723 288.253 148.337 289.56C148.977 290.84 149.63 292.24 150.297 293.76C150.99 295.253 151.67 296.787 152.337 298.36C153.003 299.933 153.63 301.413 154.217 302.8C154.803 301.413 155.43 299.933 156.097 298.36C156.763 296.787 157.43 295.253 158.097 293.76C158.79 292.24 159.443 290.84 160.057 289.56C160.697 288.253 161.257 287.16 161.737 286.28H167.417C167.683 288.12 167.923 290.187 168.137 292.48C168.377 294.747 168.577 297.12 168.737 299.6C168.923 302.053 169.083 304.52 169.217 307C169.377 309.48 169.51 311.813 169.617 314H163.537C163.457 311.307 163.35 308.373 163.217 305.2C163.083 302.027 162.883 298.827 162.617 295.6C162.137 296.72 161.603 297.96 161.017 299.32C160.43 300.68 159.843 302.04 159.257 303.4C158.697 304.76 158.15 306.067 157.617 307.32C157.083 308.547 156.63 309.6 156.257 310.48H151.897C151.523 309.6 151.07 308.547 150.537 307.32C150.003 306.067 149.443 304.76 148.857 303.4C148.297 302.04 147.723 300.68 147.137 299.32C146.55 297.96 146.017 296.72 145.537 295.6C145.27 298.827 145.07 302.027 144.937 305.2C144.803 308.373 144.697 311.307 144.617 314H138.537C138.643 311.813 138.763 309.48 138.897 307C139.057 304.52 139.217 302.053 139.377 299.6C139.563 297.12 139.763 294.747 139.977 292.48C140.217 290.187 140.47 288.12 140.737 286.28H146.697ZM182.875 309.84C183.462 309.84 184.022 309.827 184.555 309.8C185.088 309.773 185.515 309.733 185.835 309.68V305.16C185.595 305.107 185.235 305.053 184.755 305C184.275 304.947 183.835 304.92 183.435 304.92C182.875 304.92 182.342 304.96 181.835 305.04C181.355 305.093 180.928 305.213 180.555 305.4C180.182 305.587 179.888 305.84 179.675 306.16C179.462 306.48 179.355 306.88 179.355 307.36C179.355 308.293 179.662 308.947 180.275 309.32C180.915 309.667 181.782 309.84 182.875 309.84ZM182.395 292.4C184.155 292.4 185.622 292.6 186.795 293C187.968 293.4 188.902 293.973 189.595 294.72C190.315 295.467 190.822 296.373 191.115 297.44C191.408 298.507 191.555 299.693 191.555 301V313.4C190.702 313.587 189.515 313.8 187.995 314.04C186.475 314.307 184.635 314.44 182.475 314.44C181.115 314.44 179.875 314.32 178.755 314.08C177.662 313.84 176.715 313.453 175.915 312.92C175.115 312.36 174.502 311.64 174.075 310.76C173.648 309.88 173.435 308.8 173.435 307.52C173.435 306.293 173.675 305.253 174.155 304.4C174.662 303.547 175.328 302.867 176.155 302.36C176.982 301.853 177.928 301.493 178.995 301.28C180.062 301.04 181.168 300.92 182.315 300.92C183.088 300.92 183.768 300.96 184.355 301.04C184.968 301.093 185.462 301.173 185.835 301.28V300.72C185.835 299.707 185.528 298.893 184.915 298.28C184.302 297.667 183.235 297.36 181.715 297.36C180.702 297.36 179.702 297.44 178.715 297.6C177.728 297.733 176.875 297.933 176.155 298.2L175.395 293.4C175.742 293.293 176.168 293.187 176.675 293.08C177.208 292.947 177.782 292.84 178.395 292.76C179.008 292.653 179.648 292.573 180.315 292.52C181.008 292.44 181.702 292.4 182.395 292.4ZM209.625 298.24C209.091 298.107 208.465 297.973 207.745 297.84C207.025 297.68 206.251 297.6 205.425 297.6C205.051 297.6 204.598 297.64 204.065 297.72C203.558 297.773 203.171 297.84 202.905 297.92V314H196.945V294.08C198.011 293.707 199.265 293.36 200.705 293.04C202.171 292.693 203.798 292.52 205.585 292.52C205.905 292.52 206.291 292.547 206.745 292.6C207.198 292.627 207.651 292.68 208.105 292.76C208.558 292.813 209.011 292.893 209.465 293C209.918 293.08 210.305 293.187 210.625 293.32L209.625 298.24ZM218.509 302.8C218.509 306.133 219.856 307.8 222.549 307.8C223.162 307.8 223.736 307.72 224.269 307.56C224.802 307.4 225.256 307.213 225.629 307V297.48C225.336 297.427 224.989 297.387 224.589 297.36C224.189 297.307 223.722 297.28 223.189 297.28C221.616 297.28 220.442 297.8 219.669 298.84C218.896 299.88 218.509 301.2 218.509 302.8ZM231.589 311.36C231.589 314.8 230.709 317.347 228.949 319C227.216 320.68 224.522 321.52 220.869 321.52C219.589 321.52 218.309 321.4 217.029 321.16C215.749 320.947 214.562 320.653 213.469 320.28L214.509 315.28C215.442 315.653 216.416 315.947 217.429 316.16C218.469 316.373 219.642 316.48 220.949 316.48C222.656 316.48 223.856 316.107 224.549 315.36C225.269 314.613 225.629 313.653 225.629 312.48V311.72C224.989 312.013 224.322 312.24 223.629 312.4C222.962 312.533 222.229 312.6 221.429 312.6C218.522 312.6 216.296 311.747 214.749 310.04C213.202 308.307 212.429 305.893 212.429 302.8C212.429 301.253 212.669 299.853 213.149 298.6C213.629 297.32 214.322 296.227 215.229 295.32C216.162 294.413 217.296 293.72 218.629 293.24C219.962 292.733 221.469 292.48 223.149 292.48C223.869 292.48 224.602 292.52 225.349 292.6C226.122 292.653 226.882 292.733 227.629 292.84C228.376 292.947 229.082 293.08 229.749 293.24C230.442 293.373 231.056 293.52 231.589 293.68V311.36ZM256.139 314C255.846 313.04 255.512 312.053 255.139 311.04C254.792 310.027 254.446 309.013 254.099 308H243.299C242.952 309.013 242.592 310.027 242.219 311.04C241.872 312.053 241.552 313.04 241.259 314H234.779C235.819 311.013 236.806 308.253 237.739 305.72C238.672 303.187 239.579 300.8 240.459 298.56C241.366 296.32 242.246 294.2 243.099 292.2C243.979 290.173 244.886 288.2 245.819 286.28H251.779C252.686 288.2 253.579 290.173 254.459 292.2C255.339 294.2 256.219 296.32 257.099 298.56C258.006 300.8 258.926 303.187 259.859 305.72C260.792 308.253 261.779 311.013 262.819 314H256.139ZM248.659 292.56C248.526 292.96 248.326 293.507 248.059 294.2C247.792 294.893 247.486 295.693 247.139 296.6C246.792 297.507 246.406 298.507 245.979 299.6C245.579 300.693 245.166 301.84 244.739 303.04H252.619C252.192 301.84 251.779 300.693 251.379 299.6C250.979 298.507 250.592 297.507 250.219 296.6C249.872 295.693 249.566 294.893 249.299 294.2C249.032 293.507 248.819 292.96 248.659 292.56ZM266.407 286.28H272.647V314H266.407V286.28Z" fill="white"/>
<g clip-path="url(#clip0_37_4547)">
<path d="M0 439C0 410.281 23.2812 387 52 387H360C388.719 387 412 410.281 412 439V917H0V439Z" fill="white"/>
<path d="M114.956 465V447.5H126.406V449.65H117.231V454.975H125.631V457.15H117.231V465H114.956ZM133.721 465.275C132.621 465.275 131.638 465.017 130.771 464.5C129.921 463.967 129.246 463.225 128.746 462.275C128.263 461.325 128.021 460.225 128.021 458.975C128.021 457.725 128.263 456.633 128.746 455.7C129.246 454.75 129.921 454.017 130.771 453.5C131.638 452.967 132.621 452.7 133.721 452.7C134.821 452.7 135.796 452.967 136.646 453.5C137.513 454.017 138.188 454.75 138.671 455.7C139.171 456.633 139.421 457.725 139.421 458.975C139.421 460.225 139.171 461.325 138.671 462.275C138.188 463.225 137.513 463.967 136.646 464.5C135.796 465.017 134.821 465.275 133.721 465.275ZM133.721 463.225C134.738 463.225 135.563 462.85 136.196 462.1C136.846 461.333 137.171 460.292 137.171 458.975C137.171 457.658 136.846 456.625 136.196 455.875C135.563 455.125 134.738 454.75 133.721 454.75C132.704 454.75 131.871 455.125 131.221 455.875C130.588 456.625 130.271 457.658 130.271 458.975C130.271 460.292 130.588 461.333 131.221 462.1C131.871 462.85 132.704 463.225 133.721 463.225ZM142.123 465V453H144.173L144.298 454.875C144.632 454.225 145.132 453.7 145.798 453.3C146.482 452.9 147.215 452.7 147.998 452.7C148.265 452.7 148.515 452.717 148.748 452.75C148.982 452.783 149.182 452.817 149.348 452.85V455.025C149.165 454.975 148.932 454.933 148.648 454.9C148.365 454.867 148.057 454.85 147.723 454.85C146.79 454.85 145.998 455.158 145.348 455.775C144.698 456.375 144.373 457.167 144.373 458.15V465H142.123ZM156.421 470.175C154.088 470.175 152.346 469.258 151.196 467.425L152.996 466.2C153.746 467.467 154.888 468.1 156.421 468.1C157.504 468.1 158.321 467.75 158.871 467.05C159.421 466.367 159.696 465.3 159.696 463.85V462.525C159.296 463.025 158.804 463.417 158.221 463.7C157.654 463.983 157.021 464.125 156.321 464.125C155.288 464.125 154.363 463.9 153.546 463.45C152.729 463 152.088 462.35 151.621 461.5C151.171 460.633 150.946 459.6 150.946 458.4C150.946 457.183 151.171 456.158 151.621 455.325C152.088 454.475 152.729 453.825 153.546 453.375C154.363 452.925 155.288 452.7 156.321 452.7C157.054 452.7 157.721 452.858 158.321 453.175C158.938 453.475 159.454 453.9 159.871 454.45L159.946 453H161.921V463.85C161.921 465.917 161.446 467.483 160.496 468.55C159.563 469.633 158.204 470.175 156.421 470.175ZM156.471 462.15C157.454 462.15 158.263 461.808 158.896 461.125C159.529 460.442 159.846 459.533 159.846 458.4C159.846 457.267 159.529 456.367 158.896 455.7C158.263 455.033 157.454 454.7 156.471 454.7C155.504 454.7 154.713 455.033 154.096 455.7C153.496 456.367 153.196 457.267 153.196 458.4C153.196 459.533 153.496 460.442 154.096 461.125C154.713 461.808 155.504 462.15 156.471 462.15ZM170.342 465.275C169.242 465.275 168.259 465.017 167.392 464.5C166.542 463.967 165.867 463.225 165.367 462.275C164.884 461.325 164.642 460.225 164.642 458.975C164.642 457.725 164.884 456.633 165.367 455.7C165.867 454.75 166.542 454.017 167.392 453.5C168.259 452.967 169.242 452.7 170.342 452.7C171.442 452.7 172.417 452.967 173.267 453.5C174.134 454.017 174.809 454.75 175.292 455.7C175.792 456.633 176.042 457.725 176.042 458.975C176.042 460.225 175.792 461.325 175.292 462.275C174.809 463.225 174.134 463.967 173.267 464.5C172.417 465.017 171.442 465.275 170.342 465.275ZM170.342 463.225C171.359 463.225 172.184 462.85 172.817 462.1C173.467 461.333 173.792 460.292 173.792 458.975C173.792 457.658 173.467 456.625 172.817 455.875C172.184 455.125 171.359 454.75 170.342 454.75C169.326 454.75 168.492 455.125 167.842 455.875C167.209 456.625 166.892 457.658 166.892 458.975C166.892 460.292 167.209 461.333 167.842 462.1C168.492 462.85 169.326 463.225 170.342 463.225ZM183.544 465.275C182.411 465.275 181.553 465.058 180.969 464.625C180.386 464.175 180.094 463.325 180.094 462.075V454.95H177.669V453H180.094V448.7H182.319V453H185.794V454.95H182.319V461.6C182.319 462.25 182.461 462.692 182.744 462.925C183.044 463.142 183.486 463.25 184.069 463.25C184.369 463.25 184.678 463.208 184.994 463.125C185.328 463.025 185.594 462.925 185.794 462.825V464.9C185.528 465.017 185.186 465.108 184.769 465.175C184.353 465.242 183.944 465.275 183.544 465.275ZM195.523 465V447.5H203.348C204.998 447.5 206.273 447.883 207.173 448.65C208.089 449.417 208.548 450.633 208.548 452.3C208.548 453.983 208.089 455.217 207.173 456C206.273 456.783 204.998 457.175 203.348 457.175H197.798V465H195.523ZM197.798 455H203.073C204.073 455 204.831 454.792 205.348 454.375C205.881 453.942 206.148 453.25 206.148 452.3C206.148 451.367 205.881 450.692 205.348 450.275C204.831 449.858 204.073 449.65 203.073 449.65H197.798V455ZM214.62 465.2C213.403 465.233 212.395 464.958 211.595 464.375C210.811 463.775 210.42 462.917 210.42 461.8C210.42 460.983 210.678 460.275 211.195 459.675C211.728 459.075 212.403 458.608 213.22 458.275C214.053 457.925 214.911 457.75 215.795 457.75C216.311 457.717 216.786 457.767 217.22 457.9C217.653 458.017 218.028 458.192 218.345 458.425V456.925C218.345 455.992 218.145 455.383 217.745 455.1C217.361 454.817 216.761 454.675 215.945 454.675C215.245 454.675 214.495 454.8 213.695 455.05C212.911 455.3 212.245 455.617 211.695 456L210.645 454.25C211.328 453.817 212.136 453.45 213.07 453.15C214.02 452.85 214.978 452.7 215.945 452.7C217.478 452.7 218.62 453.008 219.37 453.625C220.12 454.225 220.495 455.325 220.495 456.925V462.95C220.495 463.267 220.578 463.45 220.745 463.5C220.911 463.55 221.286 463.508 221.87 463.375V464.825C221.653 464.908 221.378 464.992 221.045 465.075C220.711 465.158 220.37 465.2 220.02 465.2C219.486 465.2 219.103 465.1 218.87 464.9C218.636 464.7 218.478 464.342 218.395 463.825C217.945 464.275 217.378 464.608 216.695 464.825C216.011 465.042 215.32 465.167 214.62 465.2ZM214.645 463.225C215.345 463.208 215.978 463.108 216.545 462.925C217.128 462.725 217.586 462.45 217.92 462.1C218.253 461.733 218.403 461.3 218.37 460.8C218.336 460.333 218.095 460 217.645 459.8C217.211 459.6 216.653 459.517 215.97 459.55C215.353 459.567 214.786 459.683 214.27 459.9C213.753 460.1 213.336 460.367 213.02 460.7C212.72 461.033 212.57 461.408 212.57 461.825C212.586 462.292 212.778 462.65 213.145 462.9C213.511 463.133 214.011 463.242 214.645 463.225ZM228.624 465.25C227.607 465.25 226.657 465.067 225.774 464.7C224.89 464.333 224.14 463.767 223.524 463L224.999 461.55C225.899 462.7 227.14 463.275 228.724 463.275C229.457 463.275 230.04 463.142 230.474 462.875C230.907 462.608 231.124 462.167 231.124 461.55C231.124 461.05 230.899 460.683 230.449 460.45C229.999 460.2 229.199 459.967 228.049 459.75C227.299 459.6 226.624 459.4 226.024 459.15C225.44 458.9 224.974 458.542 224.624 458.075C224.274 457.592 224.099 456.967 224.099 456.2C224.099 455.467 224.299 454.842 224.699 454.325C225.099 453.792 225.624 453.383 226.274 453.1C226.94 452.817 227.674 452.675 228.474 452.675C230.424 452.675 231.907 453.3 232.924 454.55L231.599 456.075C231.232 455.592 230.782 455.242 230.249 455.025C229.715 454.792 229.132 454.675 228.499 454.675C227.782 454.675 227.249 454.825 226.899 455.125C226.549 455.408 226.374 455.75 226.374 456.15C226.374 456.617 226.574 456.958 226.974 457.175C227.374 457.392 228.099 457.617 229.149 457.85C229.982 458.033 230.715 458.275 231.349 458.575C231.999 458.875 232.499 459.267 232.849 459.75C233.215 460.233 233.399 460.858 233.399 461.625C233.399 462.775 232.957 463.667 232.074 464.3C231.207 464.933 230.057 465.25 228.624 465.25ZM240.123 465.25C239.106 465.25 238.156 465.067 237.273 464.7C236.389 464.333 235.639 463.767 235.023 463L236.498 461.55C237.398 462.7 238.639 463.275 240.223 463.275C240.956 463.275 241.539 463.142 241.973 462.875C242.406 462.608 242.623 462.167 242.623 461.55C242.623 461.05 242.398 460.683 241.948 460.45C241.498 460.2 240.698 459.967 239.548 459.75C238.798 459.6 238.123 459.4 237.523 459.15C236.939 458.9 236.473 458.542 236.123 458.075C235.773 457.592 235.598 456.967 235.598 456.2C235.598 455.467 235.798 454.842 236.198 454.325C236.598 453.792 237.123 453.383 237.773 453.1C238.439 452.817 239.173 452.675 239.973 452.675C241.923 452.675 243.406 453.3 244.423 454.55L243.098 456.075C242.731 455.592 242.281 455.242 241.748 455.025C241.214 454.792 240.631 454.675 239.998 454.675C239.281 454.675 238.748 454.825 238.398 455.125C238.048 455.408 237.873 455.75 237.873 456.15C237.873 456.617 238.073 456.958 238.473 457.175C238.873 457.392 239.598 457.617 240.648 457.85C241.481 458.033 242.214 458.275 242.848 458.575C243.498 458.875 243.998 459.267 244.348 459.75C244.714 460.233 244.898 460.858 244.898 461.625C244.898 462.775 244.456 463.667 243.573 464.3C242.706 464.933 241.556 465.25 240.123 465.25ZM249.433 465L245.833 453H247.983L250.433 461.7L252.883 453H254.708L257.158 461.7L259.633 453H261.783L258.158 465H256.283L253.808 456.25L251.333 465H249.433ZM268.584 465.275C267.484 465.275 266.501 465.017 265.634 464.5C264.784 463.967 264.109 463.225 263.609 462.275C263.126 461.325 262.884 460.225 262.884 458.975C262.884 457.725 263.126 456.633 263.609 455.7C264.109 454.75 264.784 454.017 265.634 453.5C266.501 452.967 267.484 452.7 268.584 452.7C269.684 452.7 270.659 452.967 271.509 453.5C272.376 454.017 273.051 454.75 273.534 455.7C274.034 456.633 274.284 457.725 274.284 458.975C274.284 460.225 274.034 461.325 273.534 462.275C273.051 463.225 272.376 463.967 271.509 464.5C270.659 465.017 269.684 465.275 268.584 465.275ZM268.584 463.225C269.601 463.225 270.426 462.85 271.059 462.1C271.709 461.333 272.034 460.292 272.034 458.975C272.034 457.658 271.709 456.625 271.059 455.875C270.426 455.125 269.601 454.75 268.584 454.75C267.568 454.75 266.734 455.125 266.084 455.875C265.451 456.625 265.134 457.658 265.134 458.975C265.134 460.292 265.451 461.333 266.084 462.1C266.734 462.85 267.568 463.225 268.584 463.225ZM276.987 465V453H279.037L279.162 454.875C279.495 454.225 279.995 453.7 280.662 453.3C281.345 452.9 282.078 452.7 282.862 452.7C283.128 452.7 283.378 452.717 283.612 452.75C283.845 452.783 284.045 452.817 284.212 452.85V455.025C284.028 454.975 283.795 454.933 283.512 454.9C283.228 454.867 282.92 454.85 282.587 454.85C281.653 454.85 280.862 455.158 280.212 455.775C279.562 456.375 279.237 457.167 279.237 458.15V465H276.987ZM291.509 465.275C290.409 465.275 289.426 465.025 288.559 464.525C287.709 464.008 287.034 463.283 286.534 462.35C286.051 461.4 285.809 460.283 285.809 459C285.809 457.7 286.051 456.583 286.534 455.65C287.034 454.7 287.709 453.975 288.559 453.475C289.426 452.958 290.409 452.7 291.509 452.7C292.243 452.7 292.909 452.858 293.509 453.175C294.126 453.492 294.643 453.942 295.059 454.525V447.075H297.284V465H295.309L295.234 463.275C294.818 463.892 294.284 464.383 293.634 464.75C293.001 465.1 292.293 465.275 291.509 465.275ZM291.584 463.225C292.601 463.225 293.434 462.85 294.084 462.1C294.751 461.35 295.084 460.317 295.084 459C295.084 457.667 294.751 456.625 294.084 455.875C293.434 455.125 292.601 454.75 291.584 454.75C290.568 454.75 289.726 455.125 289.059 455.875C288.393 456.625 288.059 457.667 288.059 459C288.059 460.317 288.393 461.35 289.059 462.1C289.726 462.85 290.568 463.225 291.584 463.225Z" fill="black"/>
<rect x="16" y="519" width="380" height="56" rx="8" stroke="#424242"/>
<path d="M33.344 554V542.8H40.304V543.728H34.32V547.792H39.776V548.752H34.32V553.056H40.496V554H33.344ZM42.4496 554V546.336H43.3616L43.3936 547.424C43.639 547.061 43.9643 546.757 44.3696 546.512C44.7856 546.267 45.255 546.144 45.7776 546.144C46.599 546.144 47.2603 546.405 47.7616 546.928C48.263 547.451 48.5136 548.197 48.5136 549.168V554H47.5536V549.312C47.5536 548.565 47.3723 548.005 47.0096 547.632C46.6576 547.259 46.199 547.072 45.6336 547.072C45.207 547.072 44.823 547.168 44.4816 547.36C44.151 547.541 43.8896 547.792 43.6976 548.112C43.5163 548.421 43.4256 548.768 43.4256 549.152V554H42.4496ZM53.5823 554.176C52.8996 554.176 52.3876 554.032 52.0463 553.744C51.7049 553.456 51.5343 552.939 51.5343 552.192V547.232H49.8703V546.336H51.5343V543.52H52.4943V546.336H54.8303V547.232H52.4943V552.032C52.4943 552.512 52.5956 552.843 52.7983 553.024C53.0009 553.195 53.3156 553.28 53.7423 553.28C53.9236 553.28 54.1156 553.253 54.3183 553.2C54.5209 553.147 54.6916 553.088 54.8303 553.024V553.968C54.6809 554.021 54.4889 554.069 54.2543 554.112C54.0196 554.155 53.7956 554.176 53.5823 554.176ZM59.7575 554.176C59.0642 554.176 58.4455 554.016 57.9015 553.696C57.3682 553.365 56.9468 552.901 56.6375 552.304C56.3388 551.696 56.1895 550.981 56.1895 550.16C56.1895 549.36 56.3388 548.661 56.6375 548.064C56.9468 547.467 57.3682 547.003 57.9015 546.672C58.4348 546.331 59.0428 546.16 59.7255 546.16C60.4188 546.16 61.0055 546.336 61.4855 546.688C61.9762 547.029 62.3495 547.477 62.6055 548.032C62.8615 548.576 62.9895 549.152 62.9895 549.76V550.08H57.1655C57.1442 551.04 57.3682 551.819 57.8375 552.416C58.3175 553.003 58.9628 553.296 59.7735 553.296C60.3708 553.296 60.8722 553.147 61.2775 552.848C61.6828 552.539 62.0135 552.085 62.2695 551.488L63.0695 551.952C62.3868 553.435 61.2828 554.176 59.7575 554.176ZM57.2295 549.248H62.0295C61.9762 548.832 61.8428 548.453 61.6295 548.112C61.4268 547.771 61.1602 547.499 60.8295 547.296C60.5095 547.093 60.1415 546.992 59.7255 546.992C59.0748 546.992 58.5255 547.195 58.0775 547.6C57.6402 547.995 57.3575 548.544 57.2295 549.248ZM65.0121 554V546.336H65.9401L65.9881 547.664C66.2015 547.216 66.5375 546.853 66.9961 546.576C67.4655 546.288 67.9828 546.144 68.5481 546.144C68.6975 546.144 68.8468 546.155 68.9961 546.176C69.1561 546.187 69.2895 546.208 69.3961 546.24V547.184C69.3001 547.163 69.1615 547.141 68.9801 547.12C68.8095 547.099 68.6335 547.088 68.4521 547.088C68.0041 547.088 67.5935 547.195 67.2201 547.408C66.8468 547.611 66.5481 547.888 66.3241 548.24C66.1108 548.581 66.0041 548.971 66.0041 549.408V554H65.0121ZM80.2001 554.208C79.1868 554.208 78.2961 553.968 77.5281 553.488C76.7601 553.008 76.1575 552.331 75.7201 551.456C75.2935 550.581 75.0801 549.557 75.0801 548.384C75.0801 547.211 75.2935 546.192 75.7201 545.328C76.1575 544.453 76.7601 543.776 77.5281 543.296C78.2961 542.805 79.1868 542.56 80.2001 542.56C81.2028 542.56 82.0881 542.805 82.8561 543.296C83.6241 543.776 84.2215 544.453 84.6481 545.328C85.0855 546.192 85.3041 547.211 85.3041 548.384C85.3041 549.557 85.0855 550.581 84.6481 551.456C84.2215 552.331 83.6241 553.008 82.8561 553.488C82.0881 553.968 81.2028 554.208 80.2001 554.208ZM80.2001 553.248C81.0001 553.248 81.7041 553.056 82.3121 552.672C82.9308 552.277 83.4108 551.717 83.7521 550.992C84.1041 550.256 84.2801 549.387 84.2801 548.384C84.2801 547.381 84.1041 546.517 83.7521 545.792C83.4108 545.067 82.9308 544.512 82.3121 544.128C81.7041 543.733 81.0001 543.536 80.2001 543.536C79.4001 543.536 78.6908 543.733 78.0721 544.128C77.4535 544.512 76.9681 545.067 76.6161 545.792C76.2641 546.517 76.0881 547.381 76.0881 548.384C76.0881 549.387 76.2641 550.256 76.6161 550.992C76.9681 551.717 77.4535 552.277 78.0721 552.672C78.6908 553.056 79.4001 553.248 80.2001 553.248ZM90.1786 554V543.728H86.4986V542.8H94.8666V543.728H91.1866V554H90.1786ZM96.7971 554V542.784H101.677C102.733 542.784 103.533 543.029 104.077 543.52C104.632 544.011 104.909 544.741 104.909 545.712C104.909 546.683 104.632 547.413 104.077 547.904C103.533 548.395 102.733 548.64 101.677 548.64H97.7731V554H96.7971ZM97.7731 547.696H101.597C102.365 547.696 102.936 547.536 103.309 547.216C103.693 546.896 103.885 546.395 103.885 545.712C103.885 545.029 103.693 544.528 103.309 544.208C102.936 543.888 102.365 543.728 101.597 543.728H97.7731V547.696Z" fill="#424242"/>
<g clip-path="url(#clip1_37_4547)">
<rect x="27.1729" y="508" width="54" height="23" fill="#FAFAFA"/>
<path d="M46.9466 525.166C46.136 525.166 45.4234 524.974 44.809 524.59C44.1946 524.206 43.7125 523.665 43.3626 522.965C43.0213 522.265 42.8506 521.446 42.8506 520.507C42.8506 519.569 43.0213 518.754 43.3626 518.062C43.7125 517.363 44.1946 516.821 44.809 516.437C45.4234 516.044 46.136 515.848 46.9466 515.848C47.7488 515.848 48.457 516.044 49.0714 516.437C49.6858 516.821 50.1637 517.363 50.505 518.062C50.8549 518.754 51.0298 519.569 51.0298 520.507C51.0298 521.446 50.8549 522.265 50.505 522.965C50.1637 523.665 49.6858 524.206 49.0714 524.59C48.457 524.974 47.7488 525.166 46.9466 525.166ZM46.9466 524.398C47.5866 524.398 48.1498 524.245 48.6362 523.938C49.1312 523.622 49.5152 523.174 49.7882 522.594C50.0698 522.005 50.2106 521.309 50.2106 520.507C50.2106 519.705 50.0698 519.014 49.7882 518.434C49.5152 517.853 49.1312 517.41 48.6362 517.102C48.1498 516.787 47.5866 516.629 46.9466 516.629C46.3066 516.629 45.7392 516.787 45.2442 517.102C44.7493 517.41 44.361 517.853 44.0794 518.434C43.7978 519.014 43.657 519.705 43.657 520.507C43.657 521.309 43.7978 522.005 44.0794 522.594C44.361 523.174 44.7493 523.622 45.2442 523.938C45.7392 524.245 46.3066 524.398 46.9466 524.398ZM54.9294 525V516.782H51.9854V516.04H58.6798V516.782H55.7358V525H54.9294ZM60.2242 525V516.027H64.1282C64.973 516.027 65.613 516.223 66.0482 516.616C66.492 517.009 66.7138 517.593 66.7138 518.37C66.7138 519.146 66.492 519.731 66.0482 520.123C65.613 520.516 64.973 520.712 64.1282 520.712H61.005V525H60.2242ZM61.005 519.957H64.0642C64.6786 519.957 65.1352 519.829 65.4338 519.573C65.741 519.317 65.8946 518.916 65.8946 518.37C65.8946 517.823 65.741 517.422 65.4338 517.166C65.1352 516.91 64.6786 516.782 64.0642 516.782H61.005V519.957Z" fill="#424242"/>
</g>
<path d="M191.916 856.166C191.106 856.166 190.393 855.974 189.779 855.59C189.164 855.206 188.682 854.665 188.332 853.965C187.991 853.265 187.82 852.446 187.82 851.507C187.82 850.569 187.991 849.754 188.332 849.062C188.682 848.363 189.164 847.821 189.779 847.437C190.393 847.044 191.106 846.848 191.916 846.848C192.625 846.848 193.256 847.002 193.811 847.309C194.374 847.607 194.839 848.034 195.206 848.589L194.515 848.998C194.225 848.563 193.858 848.226 193.414 847.987C192.97 847.748 192.471 847.629 191.916 847.629C191.276 847.629 190.709 847.787 190.214 848.102C189.719 848.41 189.331 848.853 189.049 849.434C188.768 850.014 188.627 850.705 188.627 851.507C188.627 852.309 188.768 853.005 189.049 853.594C189.331 854.174 189.719 854.622 190.214 854.938C190.709 855.245 191.276 855.398 191.916 855.398C192.471 855.398 192.97 855.279 193.414 855.04C193.858 854.801 194.225 854.464 194.515 854.029L195.206 854.451C194.839 854.989 194.374 855.411 193.811 855.718C193.256 856.017 192.625 856.166 191.916 856.166ZM198.392 856.115C197.795 856.124 197.308 855.987 196.933 855.706C196.566 855.424 196.382 855.014 196.382 854.477C196.382 854.067 196.519 853.709 196.792 853.402C197.073 853.094 197.428 852.855 197.854 852.685C198.289 852.506 198.737 852.416 199.198 852.416C199.83 852.416 200.329 852.565 200.696 852.864V851.814C200.696 851.243 200.576 850.871 200.337 850.701C200.099 850.522 199.715 850.432 199.185 850.432C198.844 850.432 198.464 850.496 198.046 850.624C197.628 850.743 197.274 850.897 196.984 851.085L196.613 850.47C196.945 850.257 197.347 850.078 197.816 849.933C198.294 849.788 198.75 849.715 199.185 849.715C199.962 849.715 200.534 849.865 200.901 850.163C201.268 850.462 201.451 851.012 201.451 851.814V855.206C201.451 855.369 201.494 855.462 201.579 855.488C201.673 855.505 201.873 855.484 202.181 855.424V855.974C202.095 856.009 201.98 856.038 201.835 856.064C201.69 856.098 201.553 856.115 201.425 856.115C201.135 856.115 200.948 856.055 200.862 855.936C200.777 855.817 200.726 855.59 200.709 855.258C200.444 855.548 200.094 855.761 199.659 855.898C199.224 856.034 198.801 856.107 198.392 856.115ZM198.43 855.411C198.84 855.403 199.22 855.339 199.569 855.219C199.928 855.1 200.209 854.929 200.414 854.707C200.628 854.477 200.726 854.199 200.709 853.875C200.683 853.611 200.538 853.414 200.273 853.286C200.009 853.15 199.668 853.086 199.249 853.094C198.9 853.094 198.563 853.154 198.238 853.274C197.914 853.393 197.649 853.559 197.445 853.773C197.248 853.978 197.15 854.217 197.15 854.49C197.15 854.805 197.27 855.04 197.509 855.194C197.748 855.339 198.055 855.411 198.43 855.411ZM203.603 856V849.869H204.333L204.359 850.739C204.555 850.449 204.815 850.206 205.139 850.01C205.472 849.813 205.848 849.715 206.266 849.715C206.923 849.715 207.452 849.924 207.853 850.342C208.254 850.761 208.455 851.358 208.455 852.134V856H207.687V852.25C207.687 851.652 207.542 851.204 207.251 850.906C206.97 850.607 206.603 850.458 206.151 850.458C205.809 850.458 205.502 850.534 205.229 850.688C204.965 850.833 204.755 851.034 204.602 851.29C204.457 851.537 204.384 851.814 204.384 852.122V856H203.603ZM212.862 856.141C212.316 856.141 211.829 856.009 211.403 855.744C210.976 855.471 210.639 855.091 210.392 854.605C210.144 854.118 210.02 853.559 210.02 852.928C210.02 852.297 210.144 851.742 210.392 851.264C210.639 850.778 210.976 850.402 211.403 850.138C211.829 849.865 212.316 849.728 212.862 849.728C213.297 849.728 213.698 849.818 214.065 849.997C214.441 850.167 214.761 850.423 215.025 850.765L214.411 851.226C214.027 850.714 213.51 850.458 212.862 850.458C212.265 850.458 211.77 850.684 211.377 851.136C210.993 851.58 210.801 852.177 210.801 852.928C210.801 853.679 210.993 854.281 211.377 854.733C211.77 855.185 212.265 855.411 212.862 855.411C213.51 855.411 214.027 855.155 214.411 854.643L215.025 855.104C214.479 855.795 213.758 856.141 212.862 856.141ZM218.837 856.141C218.283 856.141 217.788 856.013 217.352 855.757C216.926 855.492 216.589 855.121 216.341 854.643C216.102 854.157 215.983 853.585 215.983 852.928C215.983 852.288 216.102 851.729 216.341 851.251C216.589 850.773 216.926 850.402 217.352 850.138C217.779 849.865 218.266 849.728 218.812 849.728C219.366 849.728 219.836 849.869 220.22 850.15C220.612 850.423 220.911 850.782 221.116 851.226C221.32 851.661 221.423 852.122 221.423 852.608V852.864H216.764C216.747 853.632 216.926 854.255 217.301 854.733C217.685 855.202 218.202 855.437 218.85 855.437C219.328 855.437 219.729 855.317 220.053 855.078C220.378 854.831 220.642 854.468 220.847 853.99L221.487 854.362C220.941 855.548 220.058 856.141 218.837 856.141ZM216.815 852.198H220.655C220.612 851.866 220.506 851.563 220.335 851.29C220.173 851.017 219.959 850.799 219.695 850.637C219.439 850.475 219.144 850.394 218.812 850.394C218.291 850.394 217.852 850.556 217.493 850.88C217.143 851.196 216.917 851.635 216.815 852.198ZM223.041 856V846.758H223.822V856H223.041Z" fill="#212121"/>
<rect x="16" y="783" width="380" height="56" rx="8" fill="#212121"/>
<path d="M173.915 817L170.728 808.04H172.315L174.658 814.978L177 808.04H178.587L175.4 817H173.915ZM179.634 817V808.04H185.624V809.41H181.106V811.739H185.227V813.122H181.106V815.63H185.765V817H179.634ZM187.134 817V808.04H191.23C192.066 808.04 192.727 808.236 193.214 808.629C193.709 809.021 193.956 809.683 193.956 810.613C193.956 811.398 193.777 811.995 193.419 812.405C193.06 812.806 192.565 813.053 191.934 813.147L193.854 817H192.126L190.398 813.211H188.606V817H187.134ZM188.606 811.829H191.025C191.46 811.829 191.797 811.735 192.036 811.547C192.275 811.359 192.395 811.048 192.395 810.613C192.395 810.186 192.275 809.879 192.036 809.691C191.797 809.503 191.46 809.41 191.025 809.41H188.606V811.829ZM195.334 817V808.04H196.806V817H195.334ZM198.621 817V808.04H204.714V809.41H200.093V811.739H204.317V813.122H200.093V817H198.621ZM208.226 817V813.198L205.218 808.04H206.934L208.982 811.586L211.004 808.04H212.745L209.724 813.198V817H208.226ZM221.222 817.205C220.411 817.205 219.686 817.013 219.046 816.629C218.414 816.245 217.919 815.703 217.561 815.003C217.203 814.295 217.023 813.467 217.023 812.52C217.023 811.564 217.203 810.737 217.561 810.037C217.919 809.329 218.414 808.782 219.046 808.398C219.686 808.006 220.411 807.81 221.222 807.81C222.032 807.81 222.749 808.006 223.372 808.398C224.004 808.782 224.499 809.329 224.857 810.037C225.224 810.737 225.407 811.564 225.407 812.52C225.407 813.467 225.224 814.295 224.857 815.003C224.499 815.703 224.004 816.245 223.372 816.629C222.749 817.013 222.032 817.205 221.222 817.205ZM221.222 815.771C221.759 815.771 222.224 815.639 222.617 815.374C223.009 815.101 223.312 814.722 223.526 814.235C223.748 813.74 223.859 813.169 223.859 812.52C223.859 811.863 223.748 811.291 223.526 810.805C223.312 810.31 223.009 809.93 222.617 809.666C222.224 809.393 221.759 809.256 221.222 809.256C220.693 809.256 220.228 809.393 219.827 809.666C219.425 809.93 219.114 810.31 218.892 810.805C218.679 811.291 218.572 811.863 218.572 812.52C218.572 813.169 218.679 813.74 218.892 814.235C219.114 814.722 219.425 815.101 219.827 815.374C220.228 815.639 220.693 815.771 221.222 815.771ZM228.797 817V809.41H226.096V808.04H232.982V809.41H230.294V817H228.797ZM234.234 817V808.04H238.33C239.166 808.04 239.827 808.236 240.314 808.629C240.809 809.021 241.056 809.683 241.056 810.613C241.056 811.543 240.809 812.209 240.314 812.61C239.827 813.011 239.166 813.211 238.33 813.211H235.706V817H234.234ZM235.706 811.829H238.125C238.56 811.829 238.897 811.735 239.136 811.547C239.375 811.359 239.495 811.048 239.495 810.613C239.495 810.186 239.375 809.879 239.136 809.691C238.897 809.503 238.56 809.41 238.125 809.41H235.706V811.829Z" fill="white"/>
<path d="M178.025 601.154C177.342 601.154 176.72 601.034 176.156 600.795C175.593 600.548 175.12 600.164 174.736 599.643L175.363 599.208C175.678 599.583 176.054 599.878 176.489 600.091C176.933 600.296 177.449 600.398 178.038 600.398C178.439 600.398 178.806 600.339 179.139 600.219C179.48 600.1 179.753 599.916 179.958 599.669C180.163 599.421 180.265 599.114 180.265 598.747C180.265 598.423 180.197 598.141 180.06 597.902C179.932 597.663 179.676 597.454 179.292 597.275C178.908 597.096 178.337 596.938 177.577 596.802C175.905 596.486 175.068 595.658 175.068 594.318C175.068 593.832 175.188 593.405 175.427 593.038C175.666 592.663 175.998 592.373 176.425 592.168C176.852 591.955 177.347 591.848 177.91 591.848C178.507 591.848 179.045 591.963 179.523 592.194C180.001 592.415 180.436 592.714 180.828 593.09L180.265 593.627C179.924 593.329 179.565 593.09 179.19 592.91C178.814 592.723 178.384 592.629 177.897 592.629C177.317 592.629 176.835 592.774 176.451 593.064C176.075 593.346 175.888 593.755 175.888 594.293C175.888 594.762 176.037 595.142 176.336 595.432C176.643 595.722 177.193 595.94 177.987 596.085C179.088 596.281 179.877 596.588 180.355 597.006C180.833 597.425 181.072 598.001 181.072 598.734C181.072 599.238 180.935 599.673 180.662 600.04C180.397 600.398 180.035 600.676 179.574 600.872C179.113 601.06 178.597 601.154 178.025 601.154ZM185.262 601.141C184.708 601.141 184.213 601.013 183.777 600.757C183.351 600.492 183.014 600.121 182.766 599.643C182.527 599.157 182.408 598.585 182.408 597.928C182.408 597.288 182.527 596.729 182.766 596.251C183.014 595.773 183.351 595.402 183.777 595.138C184.204 594.865 184.691 594.728 185.237 594.728C185.791 594.728 186.261 594.869 186.645 595.15C187.037 595.423 187.336 595.782 187.541 596.226C187.745 596.661 187.848 597.122 187.848 597.608V597.864H183.189C183.172 598.632 183.351 599.255 183.726 599.733C184.11 600.202 184.627 600.437 185.275 600.437C185.753 600.437 186.154 600.317 186.478 600.078C186.803 599.831 187.067 599.468 187.272 598.99L187.912 599.362C187.366 600.548 186.483 601.141 185.262 601.141ZM183.24 597.198H187.08C187.037 596.866 186.931 596.563 186.76 596.29C186.598 596.017 186.384 595.799 186.12 595.637C185.864 595.475 185.569 595.394 185.237 595.394C184.716 595.394 184.277 595.556 183.918 595.88C183.568 596.196 183.342 596.635 183.24 597.198ZM189.466 601V594.869H190.196L190.221 595.739C190.417 595.449 190.678 595.206 191.002 595.01C191.335 594.813 191.71 594.715 192.128 594.715C192.785 594.715 193.314 594.924 193.716 595.342C194.117 595.761 194.317 596.358 194.317 597.134V601H193.549V597.25C193.549 596.652 193.404 596.204 193.114 595.906C192.832 595.607 192.465 595.458 192.013 595.458C191.672 595.458 191.365 595.534 191.092 595.688C190.827 595.833 190.618 596.034 190.464 596.29C190.319 596.537 190.247 596.814 190.247 597.122V601H189.466ZM198.724 601.141C198.178 601.141 197.692 601.009 197.265 600.744C196.839 600.471 196.502 600.095 196.254 599.618C196.007 599.131 195.883 598.568 195.883 597.928C195.883 597.288 196.007 596.729 196.254 596.251C196.502 595.773 196.839 595.402 197.265 595.138C197.692 594.865 198.178 594.728 198.724 594.728C199.185 594.728 199.595 594.839 199.953 595.061C200.312 595.274 200.598 595.569 200.811 595.944V591.758H201.592V601H200.875L200.862 599.874C200.64 600.266 200.346 600.578 199.979 600.808C199.612 601.03 199.194 601.141 198.724 601.141ZM198.75 600.411C199.151 600.411 199.505 600.309 199.812 600.104C200.128 599.899 200.376 599.613 200.555 599.246C200.734 598.871 200.824 598.431 200.824 597.928C200.824 597.425 200.734 596.989 200.555 596.622C200.376 596.255 200.128 595.97 199.812 595.765C199.505 595.56 199.151 595.458 198.75 595.458C198.349 595.458 197.991 595.56 197.675 595.765C197.359 595.97 197.112 596.255 196.932 596.622C196.753 596.989 196.664 597.425 196.664 597.928C196.664 598.431 196.753 598.871 196.932 599.246C197.112 599.613 197.359 599.899 197.675 600.104C197.991 600.309 198.349 600.411 198.75 600.411ZM206.387 601L209.984 592.04H210.675L214.259 601H213.389L212.326 598.299H208.32L207.257 601H206.387ZM208.589 597.544H212.045L210.329 593.154L208.589 597.544ZM217.61 603.765C216.475 603.765 215.622 603.321 215.05 602.434L215.69 602.011C216.117 602.685 216.757 603.022 217.61 603.022C218.241 603.022 218.723 602.813 219.056 602.395C219.389 601.986 219.555 601.367 219.555 600.539V599.438C219.342 599.771 219.065 600.036 218.723 600.232C218.382 600.42 217.994 600.514 217.559 600.514C217.038 600.514 216.573 600.394 216.163 600.155C215.762 599.916 215.442 599.579 215.203 599.144C214.973 598.709 214.858 598.197 214.858 597.608C214.858 597.019 214.973 596.511 215.203 596.085C215.442 595.65 215.762 595.313 216.163 595.074C216.573 594.835 217.038 594.715 217.559 594.715C218.002 594.715 218.399 594.818 218.749 595.022C219.099 595.219 219.381 595.492 219.594 595.842L219.607 594.869H220.323V600.539C220.323 601.649 220.072 602.463 219.568 602.984C219.073 603.505 218.421 603.765 217.61 603.765ZM217.597 599.797C217.981 599.797 218.322 599.707 218.621 599.528C218.92 599.34 219.154 599.084 219.325 598.76C219.496 598.427 219.581 598.043 219.581 597.608C219.581 597.173 219.496 596.793 219.325 596.469C219.154 596.145 218.92 595.893 218.621 595.714C218.322 595.526 217.981 595.432 217.597 595.432C217.222 595.432 216.885 595.526 216.586 595.714C216.296 595.893 216.065 596.145 215.895 596.469C215.724 596.793 215.639 597.173 215.639 597.608C215.639 598.043 215.724 598.427 215.895 598.76C216.065 599.084 216.296 599.34 216.586 599.528C216.885 599.707 217.222 599.797 217.597 599.797ZM223.867 601.115C223.27 601.124 222.783 600.987 222.408 600.706C222.041 600.424 221.857 600.014 221.857 599.477C221.857 599.067 221.994 598.709 222.267 598.402C222.548 598.094 222.903 597.855 223.329 597.685C223.764 597.506 224.212 597.416 224.673 597.416C225.305 597.416 225.804 597.565 226.171 597.864V596.814C226.171 596.243 226.051 595.871 225.812 595.701C225.574 595.522 225.19 595.432 224.66 595.432C224.319 595.432 223.939 595.496 223.521 595.624C223.103 595.743 222.749 595.897 222.459 596.085L222.088 595.47C222.42 595.257 222.822 595.078 223.291 594.933C223.769 594.788 224.225 594.715 224.66 594.715C225.437 594.715 226.009 594.865 226.376 595.163C226.743 595.462 226.926 596.012 226.926 596.814V600.206C226.926 600.369 226.969 600.462 227.054 600.488C227.148 600.505 227.348 600.484 227.656 600.424V600.974C227.57 601.009 227.455 601.038 227.31 601.064C227.165 601.098 227.028 601.115 226.9 601.115C226.61 601.115 226.423 601.055 226.337 600.936C226.252 600.817 226.201 600.59 226.184 600.258C225.919 600.548 225.569 600.761 225.134 600.898C224.699 601.034 224.276 601.107 223.867 601.115ZM223.905 600.411C224.315 600.403 224.695 600.339 225.044 600.219C225.403 600.1 225.684 599.929 225.889 599.707C226.103 599.477 226.201 599.199 226.184 598.875C226.158 598.611 226.013 598.414 225.748 598.286C225.484 598.15 225.143 598.086 224.724 598.094C224.375 598.094 224.038 598.154 223.713 598.274C223.389 598.393 223.124 598.559 222.92 598.773C222.723 598.978 222.625 599.217 222.625 599.49C222.625 599.805 222.745 600.04 222.984 600.194C223.223 600.339 223.53 600.411 223.905 600.411ZM229.296 601V594.869H230.064V601H229.296ZM229.68 593.538C229.518 593.538 229.377 593.482 229.258 593.371C229.138 593.252 229.078 593.111 229.078 592.949C229.078 592.778 229.138 592.637 229.258 592.526C229.377 592.415 229.518 592.36 229.68 592.36C229.842 592.36 229.979 592.415 230.09 592.526C230.201 592.637 230.256 592.778 230.256 592.949C230.256 593.111 230.201 593.252 230.09 593.371C229.979 593.482 229.842 593.538 229.68 593.538ZM232.166 601V594.869H232.896L232.921 595.739C233.117 595.449 233.378 595.206 233.702 595.01C234.035 594.813 234.41 594.715 234.828 594.715C235.485 594.715 236.014 594.924 236.416 595.342C236.817 595.761 237.017 596.358 237.017 597.134V601H236.249V597.25C236.249 596.652 236.104 596.204 235.814 595.906C235.532 595.607 235.165 595.458 234.713 595.458C234.372 595.458 234.065 595.534 233.792 595.688C233.527 595.833 233.318 596.034 233.164 596.29C233.019 596.537 232.947 596.814 232.947 597.122V601H232.166Z" fill="#212121"/>
</g>
<defs>
<clipPath id="clip0_37_4547">
<path d="M0 439C0 410.281 23.2812 387 52 387H360C388.719 387 412 410.281 412 439V917H0V439Z" fill="white"/>
</clipPath>
<clipPath id="clip1_37_4547">
<rect width="54" height="23" fill="white" transform="translate(27.1729 508)"/>
</clipPath>
</defs>
</svg>
