<svg width="412" height="917" viewBox="0 0 412 917" fill="none" xmlns="http://www.w3.org/2000/svg">
<rect width="412" height="917" fill="#DDEDFF"/>
<path fill-rule="evenodd" clip-rule="evenodd" d="M322.423 495.201C324.058 496.849 338.085 510.357 344.332 508.578C350.579 506.799 347.423 499.939 340.297 492.553C333.171 485.167 325.597 483.231 323.787 483.553C314.121 485.263 317.832 490.57 322.423 495.201Z" fill="#00663E"/>
<path fill-rule="evenodd" clip-rule="evenodd" d="M346.696 452.129C345.125 450.445 326.516 438.474 326.516 438.474C327.629 438.122 328.721 437.709 329.787 437.236C322.127 438.717 302.706 444.969 303.449 454.619C303.561 456.077 320.459 486.069 325.488 486.803C330.517 487.537 351.645 477.416 352.934 475.576C354.223 473.736 346.696 452.129 346.696 452.129Z" fill="#3D1B07"/>
<path fill-rule="evenodd" clip-rule="evenodd" d="M322.177 444.441C326.891 427.71 356.377 449.83 356.851 449.434C357.525 448.873 356.009 447.526 354.944 446.684C343.595 437.726 333.86 431.578 319.934 437.426C311.518 440.96 306.693 444.776 306.917 446.515C307.141 448.254 307.276 449.946 307.837 449.891C308.398 449.836 322.177 444.441 322.177 444.441Z" fill="#D27133"/>
<path fill-rule="evenodd" clip-rule="evenodd" d="M345.314 503.702C343.599 497.817 334.324 490.085 330.514 487.647C328.099 486.165 325.595 484.836 323.014 483.667C323.357 483.618 323.622 483.578 323.788 483.549C325.596 483.229 333.171 485.166 340.298 492.549C346.935 499.427 350.127 505.849 345.49 508.137C345.906 506.678 345.845 505.124 345.314 503.702Z" fill="#E2CAB6"/>
<path fill-rule="evenodd" clip-rule="evenodd" d="M329.125 490.687C329.297 490.556 329.409 490.363 329.439 490.149C329.469 489.936 329.414 489.719 329.285 489.546C329.157 489.373 328.965 489.257 328.752 489.224C328.539 489.191 328.321 489.243 328.146 489.369C327.39 490.278 326.697 491.237 326.072 492.24C325.601 492.962 325.199 493.727 324.872 494.525C324.472 495.539 324.212 496.602 324.099 497.685C324.09 497.901 324.167 498.112 324.313 498.271C324.458 498.43 324.661 498.526 324.877 498.536C325.092 498.547 325.303 498.472 325.464 498.327C325.624 498.183 325.721 497.981 325.733 497.765C325.836 496.849 326.062 495.951 326.406 495.095C326.694 494.402 327.046 493.738 327.458 493.11C328.259 491.834 329.08 490.72 329.125 490.687Z" fill="#F98300"/>
<path fill-rule="evenodd" clip-rule="evenodd" d="M326.719 499.641C326.672 499.848 326.706 500.066 326.816 500.248C326.926 500.43 327.102 500.562 327.308 500.617C327.513 500.671 327.732 500.644 327.917 500.54C328.103 500.437 328.241 500.266 328.303 500.062C328.663 498.675 329.207 497.341 329.921 496.098C330.66 494.851 331.515 493.675 332.473 492.586C332.547 492.505 332.604 492.41 332.64 492.307C332.677 492.204 332.692 492.094 332.686 491.985C332.679 491.875 332.651 491.768 332.602 491.67C332.553 491.572 332.485 491.485 332.402 491.413C332.319 491.342 332.223 491.288 332.118 491.254C332.014 491.221 331.904 491.208 331.795 491.218C331.686 491.228 331.58 491.26 331.483 491.311C331.386 491.363 331.301 491.433 331.232 491.518C330.207 492.684 329.294 493.944 328.505 495.28C327.718 496.648 327.118 498.115 326.719 499.641Z" fill="#F98300"/>
<path fill-rule="evenodd" clip-rule="evenodd" d="M329.726 501.645C329.714 501.754 329.723 501.865 329.753 501.97C329.784 502.075 329.836 502.173 329.905 502.258C329.974 502.343 330.06 502.414 330.156 502.465C330.253 502.516 330.359 502.548 330.469 502.557C330.578 502.567 330.688 502.555 330.792 502.521C330.897 502.487 330.993 502.433 331.076 502.361C331.159 502.29 331.227 502.202 331.276 502.104C331.324 502.006 331.353 501.899 331.359 501.789C331.696 500.59 332.204 499.445 332.866 498.389C333.406 497.312 334.103 496.321 334.934 495.449C335.022 495.388 335.097 495.309 335.155 495.218C335.212 495.128 335.251 495.027 335.27 494.921C335.289 494.815 335.286 494.707 335.263 494.602C335.239 494.497 335.195 494.398 335.134 494.31C335.072 494.222 334.994 494.147 334.903 494.089C334.812 494.032 334.711 493.993 334.605 493.974C334.499 493.956 334.391 493.958 334.286 493.981C334.181 494.005 334.082 494.049 333.994 494.11C332.955 495.115 332.092 496.288 331.441 497.579C330.657 498.835 330.078 500.207 329.726 501.645Z" fill="#F98300"/>
<path fill-rule="evenodd" clip-rule="evenodd" d="M293.304 378.019C278.334 361.873 271.278 330.957 290.834 313.942C303.404 303.003 311.624 301.944 319.884 309.344C365.684 314.934 345.909 355.552 360.077 367.278C363.934 370.469 346.177 380.685 340.451 382.929C334.725 385.173 326.899 384.609 316.662 381.129C306.425 377.649 300.055 376.095 293.304 378.019Z" fill="#651906"/>
<path fill-rule="evenodd" clip-rule="evenodd" d="M285.127 519.802C285.441 518.06 286.056 514.583 295.461 503.279C304.866 491.975 321.461 483.972 321.461 483.972L325.347 488.304C325.347 488.304 301.033 532.821 296.747 534.612C292.461 536.403 285.127 519.802 285.127 519.802Z" fill="#351805"/>
<path fill-rule="evenodd" clip-rule="evenodd" d="M358.522 490.053C360.157 491.701 374.184 505.209 380.431 503.43C386.678 501.651 383.522 494.791 376.396 487.405C369.27 480.019 361.696 478.082 359.886 478.405C350.222 480.115 353.935 485.422 358.522 490.053Z" fill="#00663E"/>
<path fill-rule="evenodd" clip-rule="evenodd" d="M381.415 498.554C379.7 492.669 370.425 484.937 366.615 482.499C364.201 481.017 361.696 479.688 359.115 478.519C359.458 478.47 359.723 478.43 359.889 478.401C361.697 478.08 369.272 480.018 376.399 487.401C383.036 494.279 386.228 500.701 381.591 502.989C382.008 501.53 381.946 499.976 381.415 498.554Z" fill="#E2CAB6"/>
<path fill-rule="evenodd" clip-rule="evenodd" d="M365.227 485.539C365.399 485.408 365.511 485.215 365.541 485.001C365.571 484.788 365.516 484.571 365.387 484.398C365.259 484.225 365.067 484.109 364.854 484.076C364.641 484.043 364.423 484.095 364.248 484.221C363.493 485.13 362.8 486.089 362.175 487.092C361.704 487.814 361.302 488.579 360.975 489.377C360.576 490.391 360.316 491.454 360.202 492.537C360.196 492.645 360.212 492.753 360.248 492.855C360.283 492.957 360.339 493.05 360.411 493.131C360.483 493.211 360.571 493.276 360.668 493.322C360.766 493.368 360.871 493.395 360.979 493.4C361.087 493.406 361.195 493.389 361.296 493.353C361.398 493.316 361.491 493.26 361.571 493.187C361.65 493.114 361.715 493.027 361.761 492.929C361.806 492.831 361.832 492.725 361.836 492.617C361.939 491.701 362.166 490.803 362.509 489.947C362.799 489.256 363.152 488.593 363.563 487.966C364.361 486.686 365.182 485.573 365.227 485.539Z" fill="#F98300"/>
<path fill-rule="evenodd" clip-rule="evenodd" d="M362.817 494.493C362.769 494.7 362.804 494.918 362.914 495.1C363.024 495.282 363.2 495.414 363.405 495.469C363.611 495.523 363.829 495.496 364.015 495.392C364.2 495.289 364.339 495.118 364.401 494.914C364.76 493.527 365.304 492.193 366.019 490.95C366.758 489.703 367.613 488.526 368.571 487.437C368.712 487.273 368.782 487.059 368.766 486.842C368.75 486.626 368.648 486.425 368.484 486.283C368.319 486.142 368.105 486.072 367.889 486.088C367.672 486.104 367.471 486.206 367.33 486.37C366.305 487.536 365.392 488.796 364.603 490.132C363.816 491.5 363.215 492.967 362.817 494.493Z" fill="#F98300"/>
<path fill-rule="evenodd" clip-rule="evenodd" d="M365.828 496.497C365.815 496.606 365.824 496.717 365.855 496.822C365.886 496.927 365.937 497.025 366.006 497.11C366.076 497.195 366.161 497.266 366.258 497.317C366.355 497.368 366.461 497.4 366.57 497.409C366.679 497.419 366.789 497.407 366.894 497.373C366.998 497.339 367.095 497.285 367.178 497.213C367.261 497.142 367.329 497.054 367.377 496.956C367.426 496.858 367.454 496.751 367.461 496.641C367.798 495.441 368.306 494.296 368.969 493.241C369.508 492.164 370.205 491.173 371.036 490.301C371.213 490.177 371.334 489.987 371.372 489.773C371.409 489.559 371.36 489.339 371.235 489.162C371.111 488.984 370.921 488.863 370.707 488.826C370.493 488.789 370.273 488.838 370.096 488.962C369.056 489.967 368.193 491.14 367.543 492.431C366.759 493.687 366.18 495.059 365.828 496.497Z" fill="#F98300"/>
<path fill-rule="evenodd" clip-rule="evenodd" d="M318.333 519.078C318.647 517.337 321.102 511.59 330.507 500.285C339.912 488.98 355.459 480.485 355.459 480.485C358.867 479.885 361.286 486.609 358.524 490.052C351.216 499.161 335.374 530.118 331.783 531.616C327.493 533.409 318.333 519.078 318.333 519.078Z" fill="#45260C"/>
<path fill-rule="evenodd" clip-rule="evenodd" d="M273.571 453.43C272.478 460.479 272.264 467.635 272.934 474.736C274.109 485.722 279.775 520.778 290.081 532.067C300.387 543.356 298.67 526.178 299.161 508.754C299.652 491.33 293.64 462.497 293.64 462.497L273.571 453.43Z" fill="#45260C"/>
<path fill-rule="evenodd" clip-rule="evenodd" d="M288.732 453.048C288.978 457.956 300.02 501.391 313.027 518.569C326.034 535.747 334.622 538.446 334.127 518.569C333.632 498.692 318.161 456.405 318.161 456.405L288.732 453.048Z" fill="#45260C"/>
<path fill-rule="evenodd" clip-rule="evenodd" d="M334.621 397.333L344.415 416.579L362.329 390.925C362.3 390.647 362.294 390.367 362.312 390.087C361.82 387.258 361.25 382.378 361.304 381.887C361.378 381.21 363.469 373.672 364.104 374.716C365.451 376.916 364.045 379.627 364.317 382.754C364.781 381.564 365.231 380.535 365.55 379.881C366.712 377.5 371.08 367.599 372.431 368.404C373.782 369.209 369.071 380.456 369.407 380.566C369.743 380.676 378.936 367.131 380.907 368.324C382.878 369.517 372.35 382.331 372.822 382.642C373.294 382.953 382.087 372.035 383.56 373.476C385.033 374.917 375.151 385.16 376.074 385.148C376.997 385.136 385.007 377.659 386.111 379.231C387.215 380.803 377.311 388.157 377.311 388.157C377.311 388.157 373.794 392.486 371.106 394.175C368.46 395.838 368.533 395.496 368.536 395.484C368.539 395.472 350.021 429.932 345.312 431.502C340.603 433.072 324.552 411.191 324.552 411.191L334.62 397.331L334.621 397.333Z" fill="#FBB98C"/>
<path fill-rule="evenodd" clip-rule="evenodd" d="M270.353 383.073L251.082 392.816L251.792 361.072L244.077 361.543C244.077 361.543 238.667 400.277 241.541 404.329C244.415 408.381 270.289 400.203 270.289 400.203L270.353 383.073Z" fill="#FBB98C"/>
<path fill-rule="evenodd" clip-rule="evenodd" d="M247.135 361.357L244.076 361.543C244.076 361.543 238.666 400.277 241.54 404.328C244.414 408.379 270.288 400.203 270.288 400.203L270.3 396.915C266.828 398.437 263.427 399.675 262.368 399.272C260.011 398.372 256.931 391.919 256.931 391.919C256.931 391.919 258.44 399.159 255.522 401.067C252.604 402.975 245.422 402.867 244.638 401.291C243.854 399.715 248.575 362.921 247.512 361.97C247.35 361.79 247.222 361.583 247.135 361.357Z" fill="#FAAD7B"/>
<path fill-rule="evenodd" clip-rule="evenodd" d="M341.324 408.879L330.702 420.549L318.616 407.513C318.453 407.338 302.078 420.313 307.649 442.268C308.711 446.454 314.978 449.984 317.703 455.123C323.489 466.03 279.673 473.96 272.933 474.738C271.581 472.279 270.133 459.101 273.727 451.931C283.186 433.031 271.001 411.95 272.011 402.882C272.011 402.882 259.08 405.662 259.311 404.075C259.542 402.488 255.755 389.766 257.111 389.766C258.044 389.766 276.901 378.066 280.789 377.836C284.98 377.593 289.708 377.365 293.305 378.017C301.818 379.562 307.828 381.886 315.428 382.282C318.058 382.959 323.078 384.339 326.176 387.038C332.719 392.742 337.692 402.431 341.324 408.879Z" fill="#00B18F"/>
<path fill-rule="evenodd" clip-rule="evenodd" d="M293.305 378.019C294.061 378.147 295.53 378.163 296.255 378.298C300.802 379.146 304.179 380.242 309.883 381.098C311.737 381.378 313.535 382.145 315.428 382.28C315.541 382.716 315.598 383.165 315.598 383.615C315.598 388.155 309.835 391.836 302.727 391.836C295.619 391.836 289.856 388.155 289.856 383.615C289.856 381.455 291.165 379.487 293.305 378.019Z" fill="#F9A873"/>
<path fill-rule="evenodd" clip-rule="evenodd" d="M312.536 369.954C311.969 371.768 309.361 385.263 309.361 385.263C309.361 385.263 302.784 388.211 298.929 385.83C295.074 383.449 294.729 381.861 294.729 381.861L300.398 368.593L312.536 369.954Z" fill="#F9A873"/>
<path fill-rule="evenodd" clip-rule="evenodd" d="M317.732 313.202C302.373 309.893 290.446 322.395 286.664 339.949C282.882 357.503 288.678 373.461 304.038 376.77C319.398 380.079 331.938 368.07 335.722 350.518C339.506 332.966 333.092 316.51 317.732 313.202Z" fill="#FBB98C"/>
<path fill-rule="evenodd" clip-rule="evenodd" d="M321.644 342.969C320.22 342.969 318.764 344.889 318.39 347.257C318.016 349.625 318.867 351.546 320.29 351.546C321.713 351.546 323.17 349.626 323.544 347.257C323.918 344.888 323.067 342.969 321.644 342.969Z" fill="#4D0C01"/>
<path fill-rule="evenodd" clip-rule="evenodd" d="M297.823 335.62C296.4 335.62 294.943 337.539 294.569 339.908C294.195 342.277 295.047 344.196 296.469 344.196C297.891 344.196 299.349 342.276 299.722 339.908C300.095 337.54 299.247 335.62 297.823 335.62Z" fill="#4D0C01"/>
<path fill-rule="evenodd" clip-rule="evenodd" d="M310.024 345.83C310.024 346.522 303.015 350.93 303.015 350.93C301.75 353.001 308.227 357.142 309.851 355.169C308.671 355.064 307.54 354.647 306.574 353.959C305.608 353.272 304.843 352.34 304.357 351.259C305.732 350.402 310.157 347.66 310.024 345.83Z" fill="#F79961"/>
<path fill-rule="evenodd" clip-rule="evenodd" d="M337.224 347.318C334.371 347.318 331.535 350.377 330.889 354.149C330.243 357.921 332.031 360.98 334.889 360.98C337.747 360.98 340.578 357.921 341.225 354.149C341.872 350.377 340.076 347.318 337.224 347.318Z" fill="#FBB98C"/>
<path fill-rule="evenodd" clip-rule="evenodd" d="M285.3 333.788C282.447 333.788 279.955 336.846 279.731 340.619C279.507 344.392 281.641 347.45 284.493 347.45C287.345 347.45 289.838 344.391 290.062 340.619C290.286 336.847 288.154 333.788 285.3 333.788Z" fill="#FBB98C"/>
<path fill-rule="evenodd" clip-rule="evenodd" d="M318.283 340.455C322.274 338.767 328.054 340.049 328.783 345.005C329.148 347.477 330.069 346.297 329.999 344.735C329.745 339.004 321.239 335.835 317.999 338.457C317.278 339.037 317.855 340.457 318.283 340.455Z" fill="#651906"/>
<path fill-rule="evenodd" clip-rule="evenodd" d="M336.683 349.675C340.49 349.675 340.375 356.556 336.158 358.383C333.906 359.359 333.568 357.369 333.981 356.732C334.394 356.095 335.445 356.394 336.158 355.005C336.871 353.616 335.728 353.995 335.558 352.453C335.545 351.938 335.638 351.425 335.831 350.947C336.025 350.469 336.315 350.036 336.683 349.675Z" fill="#F39157"/>
<path fill-rule="evenodd" clip-rule="evenodd" d="M286.518 336.08C283.301 334.044 279.718 339.921 282.306 343.72C283.687 345.749 285.037 344.249 285.029 343.489C285.021 342.729 283.972 342.42 284.113 340.865C284.254 339.31 285.013 340.242 285.985 339.03C286.272 338.601 286.467 338.118 286.558 337.611C286.65 337.103 286.636 336.582 286.518 336.08Z" fill="#F39157"/>
<path fill-rule="evenodd" clip-rule="evenodd" d="M311.543 374.332C320.383 373.704 327.856 368.062 332.637 359.532C332.676 359.57 332.715 359.607 332.755 359.644C328.255 369.644 320.412 376.451 310.946 377.244C308.632 377.431 306.304 377.272 304.037 376.773C301.885 376.32 299.808 375.562 297.87 374.522C288.956 369.69 284.875 359.29 285.633 347.292C285.705 347.271 285.774 347.249 285.845 347.224C285.864 358.237 290.245 367.556 298.998 371.882C300.82 372.775 302.748 373.435 304.735 373.845C306.971 374.324 309.262 374.488 311.543 374.332Z" fill="#FAAD79"/>
<path fill-rule="evenodd" clip-rule="evenodd" d="M298.156 356.266C297.904 356.734 297.69 357.221 297.516 357.723C297.093 358.883 296.905 360.115 296.961 361.348C297.017 362.581 297.317 363.791 297.843 364.908C298.369 366.025 299.111 367.026 300.026 367.855C300.94 368.683 302.01 369.322 303.174 369.735C305.554 370.503 308.142 370.3 310.373 369.169C312.604 368.038 314.298 366.071 315.086 363.697C315.261 363.196 315.395 362.681 315.486 362.157L298.156 356.266Z" fill="#891207"/>
<path fill-rule="evenodd" clip-rule="evenodd" d="M313.84 361.598L313.281 363.158C313.172 363.459 312.948 363.705 312.659 363.842C312.369 363.978 312.037 363.995 311.735 363.887L299.553 359.516C299.252 359.408 299.006 359.184 298.87 358.894C298.733 358.605 298.717 358.273 298.824 357.971L299.296 356.653L313.84 361.598Z" fill="white"/>
<path fill-rule="evenodd" clip-rule="evenodd" d="M304.976 394.504C303.091 394.504 301.225 394.887 299.491 395.627C297.757 396.368 296.191 397.453 294.887 398.815C293.578 397.373 291.982 396.22 290.2 395.431C288.419 394.642 286.493 394.235 284.545 394.234C280.787 394.289 277.201 395.82 274.562 398.497C271.923 401.174 270.444 404.782 270.444 408.541C270.444 412.3 271.923 415.907 274.562 418.585C277.201 421.262 280.787 422.793 284.545 422.847C286.431 422.847 288.297 422.465 290.03 421.724C291.764 420.983 293.33 419.898 294.633 418.535C295.942 419.978 297.539 421.131 299.32 421.92C301.101 422.71 303.028 423.118 304.976 423.118C308.729 423.056 312.307 421.521 314.939 418.844C317.571 416.168 319.046 412.565 319.046 408.811C319.046 405.058 317.571 401.454 314.939 398.778C312.307 396.102 308.729 394.567 304.976 394.504Z" fill="#00B18F"/>
<path fill-rule="evenodd" clip-rule="evenodd" d="M313.297 311.783C314.151 325.45 325.218 342.772 340.004 345.71C351.648 348.023 334.224 320.989 331.476 318.403C324.527 311.869 313.297 311.783 313.297 311.783Z" fill="#651906"/>
<path fill-rule="evenodd" clip-rule="evenodd" d="M319.616 313.356C316.937 316.372 316.152 321.085 304.033 324.002C291.914 326.919 285.855 331.969 285.855 331.969C285.855 331.969 286.395 321.855 297.076 315.137C307.757 308.419 319.616 313.356 319.616 313.356Z" fill="#651906"/>
<path fill-rule="evenodd" clip-rule="evenodd" d="M294.492 323.97C293.829 324.634 289.607 329.614 288.138 334.593C286.669 339.572 285.862 347.161 285.766 346.639C285.67 346.117 284.533 336.869 286.193 332.317C286.964 330.085 287.866 327.9 288.893 325.773L294.492 323.97Z" fill="#651906"/>
<path fill-rule="evenodd" clip-rule="evenodd" d="M334.213 334.239C334.427 335.153 335.387 341.611 334.013 346.616C332.639 351.621 329.318 358.494 329.673 358.101C330.028 357.708 335.873 350.452 336.865 345.707C337.386 343.404 337.772 341.071 338.021 338.722L334.213 334.239Z" fill="#651906"/>
<path fill-rule="evenodd" clip-rule="evenodd" d="M304.939 336.385C302.96 332.53 297.702 329.807 293.963 333.14C292.098 334.803 292.148 333.307 293.203 332.152C297.073 327.917 305.631 330.945 306.44 335.034C306.62 335.941 305.266 336.661 304.939 336.385Z" fill="#651906"/>
<path fill-rule="evenodd" clip-rule="evenodd" d="M244.567 362.353C245.542 362.536 249.677 363.753 252.007 362.621C254.337 361.489 256.991 353.09 257.657 350.231C258.323 347.372 261.495 335.783 259.739 335.643C257.983 335.503 254.159 348.51 253.786 348.395C253.413 348.28 254.927 330.381 252.354 330.195C249.781 330.009 249.954 348.101 249.319 348.077C248.684 348.053 248.691 332.753 246.378 333.102C244.065 333.451 245.492 348.844 244.691 348.248C243.89 347.652 242.148 335.912 240.066 336.612C237.984 337.312 241.466 350.142 241.466 350.142C241.466 350.142 241.491 356.229 242.656 359.442C243.821 362.655 244.567 362.353 244.567 362.353Z" fill="#FBB98C"/>
<path fill-rule="evenodd" clip-rule="evenodd" d="M243.829 349.77C243.829 349.77 242.862 351.44 244.336 355.647C244.92 357.285 245.653 358.865 246.526 360.368C247.048 361.291 247.626 362.181 248.257 363.033C247.014 362.88 245.783 362.653 244.568 362.353C244.568 362.353 244.24 362.487 243.676 361.629C243.257 360.941 242.917 360.208 242.662 359.443C241.497 356.232 241.472 350.143 241.472 350.143C241.472 350.143 237.986 337.313 240.072 336.613C240.143 336.588 240.218 336.578 240.294 336.584C240.2 339.069 240.455 341.555 241.05 343.969C241.681 346.031 242.618 347.986 243.829 349.77Z" fill="#FBB98C"/>
<path d="M279.34 304.837L217.315 314.714L224.198 357.936L286.223 348.059L279.34 304.837Z" fill="#0072A3"/>
<path d="M273.085 313.836L269.022 314.398L272.672 340.758L276.734 340.196L273.085 313.836Z" fill="white"/>
<path fill-rule="evenodd" clip-rule="evenodd" d="M250.458 363.041C250.865 362.648 251.758 363.055 252.715 362.075C254.993 359.541 257.112 356.87 259.06 354.075C259.485 353.475 262.973 345.383 261.673 345.907C258.242 347.293 258.036 352.115 253.558 354.724C248.544 357.64 246.945 362.128 250.458 363.041Z" fill="#FBB98C"/>
<path fill-rule="evenodd" clip-rule="evenodd" d="M246.525 360.369C245.653 358.866 244.92 357.285 244.335 355.648C244.229 355.344 244.134 355.053 244.052 354.775L241.778 355.137C241.916 356.601 242.212 358.045 242.662 359.444C242.94 360.373 243.383 361.243 243.969 362.015C244.242 362.315 247.631 363.304 247.669 362.965C247.752 362.129 246.525 360.369 246.525 360.369Z" fill="#FAAD7B"/>
<path fill-rule="evenodd" clip-rule="evenodd" d="M326.515 438.586C328.072 438.378 329.377 434.586 342.235 441.018C355.093 447.45 368.122 461.118 367.083 463.518C367.083 463.518 359.076 473.885 351.577 476.188C347.891 477.32 327.137 453.447 324.777 447.648C322.417 441.849 326.515 438.586 326.515 438.586Z" fill="#A14616"/>
<path fill-rule="evenodd" clip-rule="evenodd" d="M326.515 438.585C328.072 438.378 329.377 434.585 342.235 441.018C355.093 447.451 368.122 461.118 367.083 463.518C365.322 465.727 363.408 467.808 361.354 469.746C361.518 467.849 361.852 465.971 362.354 464.134C363.701 459.31 347.745 444.183 338.454 442.814C330.097 441.584 326.714 446.63 325.368 448.814C325.15 448.436 324.955 448.045 324.784 447.643C322.422 441.848 326.515 438.585 326.515 438.585Z" fill="#9B3F13"/>
<path fill-rule="evenodd" clip-rule="evenodd" d="M279.482 378.134C279.482 378.134 282.791 407.194 293.563 425.372C300.732 437.472 324.439 439.398 333.977 451.581C333.977 451.581 341.477 447.611 340.308 446.229C324.03 426.948 293.449 437.698 287.84 387.22C287.369 384.027 287.396 380.78 287.92 377.594C286.589 376.939 285.11 376.645 283.629 376.74C282.149 376.834 280.719 377.315 279.482 378.134Z" fill="#763915"/>
<path fill-rule="evenodd" clip-rule="evenodd" d="M318.139 446.015C320.648 454.715 330.366 467.902 334.521 476.531C335.634 478.793 336.596 481.126 337.401 483.514C335.255 484.387 333.147 485.17 331.277 485.756C329.956 485.067 328.575 484.498 327.151 484.056C322.851 469.22 318.164 456.407 318.164 456.407C318.078 455.958 317.922 455.525 317.704 455.122C316.344 452.558 314.104 450.395 312.067 448.351C313.986 447.622 316.244 446.75 318.139 446.015Z" fill="#2E1002"/>
<path fill-rule="evenodd" clip-rule="evenodd" d="M318.14 446.014C316.246 446.749 313.988 447.621 312.068 448.352C311.093 447.406 310.173 446.404 309.313 445.352C308.99 444.945 308.693 444.517 308.425 444.071C310.533 442.262 312.869 440.737 315.374 439.535C316.145 439.876 316.914 440.22 317.682 440.566C317.662 440.692 317.645 440.818 317.629 440.946C317.484 442.185 317.543 443.44 317.802 444.66C317.892 445.099 318.006 445.551 318.14 446.014Z" fill="#CB6224"/>
<path fill-rule="evenodd" clip-rule="evenodd" d="M315.596 461.557C313.64 463.096 311.488 464.367 309.196 465.335C304.626 467.3 299.912 468.912 295.096 470.156C294.362 470.356 293.631 470.549 292.902 470.734C286.324 472.437 279.658 473.774 272.933 474.74C272.488 473.721 272.19 472.643 272.047 471.54C271.183 466.531 270.964 457.45 273.727 451.93C279.314 440.767 277.351 428.843 275.014 419.082C277.524 421.418 282.708 422.844 284.545 422.844C285.712 422.844 284.045 438.662 284.032 452.474C284.025 460.205 275.895 471.026 278.967 471.644C287.423 473.347 311.002 461.885 315.596 461.557Z" fill="#009974"/>
<path fill-rule="evenodd" clip-rule="evenodd" d="M274.151 414.03C276.283 419.641 284.551 422.848 284.551 422.848C281.011 422.849 277.604 421.504 275.02 419.086C273.408 417.583 272.162 415.731 271.378 413.671C270.594 411.611 270.293 409.399 270.498 407.205C270.703 405.011 271.408 402.893 272.56 401.014C273.712 399.135 275.279 397.545 277.142 396.366C275.96 398.393 274.573 400.734 273.819 402.08C272.243 404.884 272.019 408.419 274.151 414.03Z" fill="#009974"/>
<path fill-rule="evenodd" clip-rule="evenodd" d="M271.553 402.98C269.245 403.458 259.112 405.48 259.312 404.08C259.328 403.805 259.312 403.529 259.264 403.258C258.981 401.216 257.729 396.435 257.135 393.151C257.035 392.405 256.935 391.924 256.935 391.924C256.935 391.924 260.015 398.378 262.372 399.277C263.43 399.677 266.832 398.442 270.304 396.921C274.561 395.054 278.925 392.761 279.204 392.545C279.466 392.345 278.423 394.17 277.141 396.369C274.64 397.943 272.688 400.253 271.553 402.98Z" fill="#009974"/>
<path fill-rule="evenodd" clip-rule="evenodd" d="M368.538 395.483C368.538 395.483 350.023 429.932 345.31 431.503C342.639 432.393 336.327 425.75 331.359 419.827L338.059 412.466C337.278 414.449 336.602 416.471 336.036 418.525C336.036 419.198 341.423 426.548 344.564 426.773C347.705 426.998 365.098 397.036 365.379 396.504C365.66 395.972 364.369 392.661 364.2 392.404C364.031 392.147 366.613 393.804 368.071 394.172C369.529 394.54 373.317 390.329 374.187 389.263C375.057 388.197 374.832 385.813 374.832 385.813L376.516 387.131L386.109 379.226C387.209 380.798 377.309 388.152 377.309 388.152C377.309 388.152 373.792 392.481 371.104 394.17C368.462 395.837 368.535 395.495 368.538 395.483Z" fill="#FAAD7B"/>
<path fill-rule="evenodd" clip-rule="evenodd" d="M314.002 415.621C315.194 413.734 316.006 411.632 316.392 409.433C316.904 407.063 317.279 404.664 317.515 402.25C317.839 399.129 317.915 396.756 317.915 396.756C317.915 396.756 322.326 403.695 326.128 409.023C328.158 411.868 330.013 414.254 330.928 414.879C333.565 416.679 338.39 411.568 338.39 411.568C338.39 411.568 338.258 411.92 338.057 412.468L331.357 419.829L330.699 420.551L319.054 407.991C319.069 408.263 319.077 408.536 319.077 408.812C319.093 412.016 318.029 415.132 316.059 417.659C314.088 420.185 311.324 421.974 308.213 422.739C307.788 424.004 307.44 425.292 307.17 426.598C305.528 425.485 303.974 424.248 302.519 422.898C296.819 417.598 292.075 409.798 289.371 396.946C290.499 399.805 291.903 403.171 293.394 406.067C296.324 411.463 299.783 416.555 303.718 421.267C304.04 421.518 306.723 421.009 309.518 419.426C311.256 418.476 312.781 417.181 314.002 415.621Z" fill="#009974"/>
<path fill-rule="evenodd" clip-rule="evenodd" d="M285.869 407.443C287.327 412.13 289.132 416.701 291.269 421.119C291.993 422.587 292.759 424.01 293.569 425.372C296.193 429.798 301.029 432.863 306.575 435.567C306.73 437.829 307.091 440.072 307.654 442.267C307.824 442.904 308.085 443.512 308.429 444.073C308.697 444.519 308.994 444.947 309.317 445.354C310.177 446.406 311.097 447.408 312.072 448.354C314.108 450.398 316.349 452.562 317.709 455.125C317.927 455.528 318.082 455.961 318.169 456.41C318.261 456.981 318.237 457.564 318.098 458.125C317.958 458.685 317.707 459.212 317.359 459.673C316.359 458.573 315.193 457.292 313.959 455.93C312.135 453.914 310.168 451.73 308.392 449.722C307.967 449.244 307.556 448.778 307.157 448.322C306.952 448.09 306.758 447.858 306.576 447.628C302.036 441.928 304.452 437.769 304.452 437.769C304.452 437.769 297.046 433.617 293.624 428.624C292.325 426.378 291.261 424.004 290.449 421.539C288.834 417.158 287.15 411.759 285.869 407.443Z" fill="#009974"/>
<path fill-rule="evenodd" clip-rule="evenodd" d="M318.617 316.436C321.196 327.328 326.655 336.792 335.448 343.816C325.273 339.096 318.558 327.547 318.617 316.436Z" fill="#7E290F"/>
<path fill-rule="evenodd" clip-rule="evenodd" d="M324.344 314.752C325.412 325.888 332.976 334.947 342.186 340.786C332.124 337.322 322.29 326.015 324.344 314.752Z" fill="#5A1404"/>
<path fill-rule="evenodd" clip-rule="evenodd" d="M330.175 318.343C332.875 321.143 347.875 335.757 345.885 339.551C345.793 339.452 345.733 339.327 345.712 339.193L345.723 339.244C340.239 331.054 335.478 326.752 330.175 318.343Z" fill="#5A1404"/>
<path fill-rule="evenodd" clip-rule="evenodd" d="M343.864 344.04C345.423 348.971 350.212 362.846 353.515 367.38C347.361 364.996 344.233 349.022 343.864 344.04Z" fill="#5A1404"/>
<path fill-rule="evenodd" clip-rule="evenodd" d="M340.498 362.442C343.019 366.334 345.598 369.716 348.465 373.442C345.381 371.743 338.497 364.505 340.498 362.442Z" fill="#7E290F"/>
<path fill-rule="evenodd" clip-rule="evenodd" d="M332.195 365.921C334.208 369.571 337.213 374.711 340.835 376.805C338.456 378.462 331.79 371.256 332.195 365.921Z" fill="#5A1404"/>
<path fill-rule="evenodd" clip-rule="evenodd" d="M325.126 376.244C324.552 375.926 324.456 374.813 329.938 379.107C331.388 380.228 332.931 381.222 334.552 382.079C330.668 382.425 326.41 379.455 325.138 376.222L325.126 376.244ZM325.19 376.13C325.216 376.124 325.24 376.109 325.256 376.087C325.272 376.065 325.28 376.038 325.279 376.011H325.268C325.238 376.049 325.211 376.089 325.189 376.131L325.19 376.13Z" fill="#5A1404"/>
<path fill-rule="evenodd" clip-rule="evenodd" d="M316.372 378.825C320.423 380.433 323.864 381.139 328.042 382.525C323.431 382.996 319.199 382.988 316.372 378.825Z" fill="#7E290F"/>
<path fill-rule="evenodd" clip-rule="evenodd" d="M326.695 372.092C331.051 374.155 332.934 375.954 336.795 378.151C332.328 378.739 329.256 375.254 326.695 372.092Z" fill="#7E290F"/>
<path fill-rule="evenodd" clip-rule="evenodd" d="M316.373 311.273C313.425 321.02 303.188 322.12 294.885 322.999C304.756 319.477 309.489 319.936 316.373 311.273Z" fill="#7E290F"/>
<path fill-rule="evenodd" clip-rule="evenodd" d="M309.415 310.713C303.332 314.495 288.65 321.813 285.315 328.707C285.315 328.719 285.325 328.738 285.341 328.78C285.278 328.795 285.182 328.834 285.141 328.755C282.137 322.82 307.953 311.325 309.415 310.713Z" fill="#5A1404"/>
<path fill-rule="evenodd" clip-rule="evenodd" d="M307.171 307.234C297.639 313.552 302.489 310.549 292.622 316.248L292.647 316.226C292.453 316.392 292.218 316.503 291.967 316.547C293.478 311.638 303.347 308.743 307.171 307.234Z" fill="#7E290F"/>
<path fill-rule="evenodd" clip-rule="evenodd" d="M314.801 310.264C307.291 316.392 311.349 314.081 302.739 317.389C310.079 311.974 306.084 314.389 314.801 310.264Z" fill="#5A1404"/>
<path fill-rule="evenodd" clip-rule="evenodd" d="M126.473 407.455C125.553 410.467 125.119 413.607 125.188 416.755C125.488 418.872 129.006 430.965 129.006 430.965C129.622 431.381 130.288 431.717 130.989 431.965C132.255 432.438 141.967 420.855 141.289 417.076C140.611 413.297 126.473 407.455 126.473 407.455Z" fill="#583B1B"/>
<path fill-rule="evenodd" clip-rule="evenodd" d="M126.564 414.316C125.378 416.146 127.964 427.548 129.006 430.96C129.171 431.501 113.596 403.224 129.155 389.786C131.881 387.433 139.576 386.281 145.634 385.759C151.308 385.269 169.999 385.117 170.642 385.418C170.759 385.474 135.001 401.295 126.564 414.316Z" fill="#846251"/>
<path fill-rule="evenodd" clip-rule="evenodd" d="M141.095 395.286C135.502 398.309 132.176 402.541 129.758 410.856C127.34 419.171 132.327 415.845 129.606 430.056C126.885 444.267 128.85 459.079 135.199 465.427C141.548 471.775 175.56 470.87 184.025 461.799C192.49 452.728 178.548 399.345 169.795 394.445C161.042 389.545 141.095 395.286 141.095 395.286Z" fill="#503825"/>
<path fill-rule="evenodd" clip-rule="evenodd" d="M147.826 391.811C142.233 394.834 138.907 399.067 136.489 407.381C134.071 415.695 139.058 412.37 136.337 426.581C133.616 440.792 134.069 456.058 140.418 462.407C146.767 468.756 177.018 468.364 185.481 459.295C193.944 450.226 185.273 395.877 176.526 390.973C167.779 386.069 147.826 391.811 147.826 391.811Z" fill="#392515"/>
<path fill-rule="evenodd" clip-rule="evenodd" d="M127.35 390.839C116.399 390.012 120.64 391.553 104.65 386.739C105.289 387.225 87.7504 376.273 75.5234 352.983L69.3584 358.349C80.3214 378.805 91.3264 391.57 106.28 400.174C110.949 402.86 115.48 402.936 120.28 404.703L127.35 390.839Z" fill="#F9A873"/>
<path fill-rule="evenodd" clip-rule="evenodd" d="M191.884 557.472C191.053 558.379 187.198 562.006 187.198 562.006L183.041 566.995C185.264 571.318 187.737 575.508 190.448 579.542C193.471 583.623 204.28 587.478 205.64 583.321C207 579.164 198.686 573.797 197.477 569.867C196.745 567.443 196.414 564.915 196.495 562.384L191.884 557.472Z" fill="#240901"/>
<path fill-rule="evenodd" clip-rule="evenodd" d="M112.752 563.065C112.752 563.065 106.552 570.775 106.252 572.89C105.952 575.005 103.002 592.69 97.4102 594.809C91.8182 596.928 90.3802 590.123 91.5892 580.75C92.7982 571.377 97.3332 565.785 98.8452 565.029C100.357 564.273 111.09 558.075 111.09 558.075L112.752 563.065Z" fill="#240901"/>
<path fill-rule="evenodd" clip-rule="evenodd" d="M151.76 467.802C148.782 475.343 135.548 525.114 135.548 525.114L103.048 561.889C103.048 561.889 105.326 573.06 108.979 569.864C110.92 568.164 144.425 541.864 152.01 535.005C156.44 530.997 170.894 498.733 171.856 498.627C173.911 498.399 205.702 518.65 205.702 518.65C205.702 518.65 188.441 558.55 188.227 560.582C188.013 562.614 192.633 565.457 196.515 564.315C200.397 563.173 227.799 521.233 226.429 517.58C225.059 513.927 191.265 467.802 191.265 467.802H151.76Z" fill="#45260C"/>
<path fill-rule="evenodd" clip-rule="evenodd" d="M188.938 406.993C194.691 409.639 194.738 410.954 206.628 412.477C206.044 412.033 225.55 426.909 243.898 435.477L246.633 430.845C234.858 421.255 220.966 408.798 211.581 402.961C204.851 398.776 201.181 398.825 194.381 396.325L188.938 406.993Z" fill="#F9A873"/>
<path fill-rule="evenodd" clip-rule="evenodd" d="M241.796 431.791L243.896 435.475C243.896 435.475 248.296 450.459 248.984 449.56C249.672 448.661 248.984 440.295 248.984 440.295C248.984 440.295 257.696 444.995 259.354 446.586C261.012 448.177 265.024 451.91 264.678 450.666C264.332 449.422 259.424 442.991 259.424 442.991C259.424 442.991 263.024 446.068 263.434 446.552C263.844 447.036 266.165 449.452 266.269 447.901C266.4 445.934 256.02 435.307 253.709 434.401C251.773 433.64 246.631 430.846 246.631 430.846L241.796 431.791Z" fill="#F9A873"/>
<path fill-rule="evenodd" clip-rule="evenodd" d="M248.985 439.291C250.714 440.95 255.727 444.991 255.795 445.237C255.863 445.483 259.01 453.222 259.356 452.047C259.702 450.872 258.146 444.647 258.008 444.442C257.87 444.237 252.308 439.083 252.027 439.049C251.746 439.015 248.985 439.291 248.985 439.291Z" fill="#F9A873"/>
<path fill-rule="evenodd" clip-rule="evenodd" d="M253.42 435.975C254.043 436.36 254.783 436.513 255.508 436.406L265.324 444.629C265.324 444.629 265.739 445.12 264.341 445.044C262.943 444.968 254.062 437.751 254.062 437.751L253.42 435.975Z" fill="#F9A873"/>
<path fill-rule="evenodd" clip-rule="evenodd" d="M206.628 412.477C206.044 412.033 225.55 426.909 243.897 435.477L242.189 432.483L210.338 410.461L211.286 402.81C211.127 404.035 208.557 408.717 206.628 412.477Z" fill="#F59A60"/>
<path fill-rule="evenodd" clip-rule="evenodd" d="M242.19 432.481L243.898 435.475C243.898 435.475 247.827 448.868 248.841 449.575L248.986 449.564L245.457 434.519L244.727 434.065L242.19 432.481Z" fill="#F9A873"/>
<path fill-rule="evenodd" clip-rule="evenodd" d="M108.627 387.929L105.607 409.738L138.047 415.538C138.047 415.538 141.901 468.359 141.93 481.784C141.949 490.138 187.611 484.335 200.33 475.23L186.569 412.755C186.569 412.755 204.404 420.15 204.176 418.555C203.948 416.96 212.828 402.255 211.458 402.255C210.518 402.255 184.202 385.816 180.287 385.588C176.068 385.342 171.308 385.113 167.687 385.769C159.116 387.326 152.775 391.129 145.414 390.064C140.163 388.659 124.523 389.319 108.627 387.929Z" fill="#F98300"/>
<path fill-rule="evenodd" clip-rule="evenodd" d="M194.756 449.904L186.568 412.753C186.568 412.753 204.403 420.148 204.175 418.553C203.967 417.097 211.324 404.753 211.592 402.581L202.544 411.404L188.334 401.957L181.434 388.734L172.128 385.355C171.686 385.368 171.251 385.387 170.821 385.411L182.052 421.317C182.052 421.317 188.912 439.886 188.923 440.8C188.929 441.219 191.735 445.503 194.756 449.904Z" fill="#F27900"/>
<path fill-rule="evenodd" clip-rule="evenodd" d="M167.691 385.765C166.929 385.893 165.451 385.909 164.721 386.046C160.143 386.899 156.742 388.002 151.001 388.869C149.415 389.109 147.221 389.931 145.418 390.059C145.305 390.498 145.248 390.95 145.247 391.403C145.247 395.974 151.047 399.68 158.206 399.68C165.365 399.68 171.164 395.974 171.164 391.403C171.162 389.222 169.844 387.24 167.691 385.765Z" fill="#F9A873"/>
<path fill-rule="evenodd" clip-rule="evenodd" d="M148.329 377.643C148.9 379.47 151.529 393.055 151.529 393.055C151.529 393.055 158.151 396.024 162.029 393.627C165.907 391.23 166.253 389.627 166.253 389.627L160.544 376.273L148.329 377.643Z" fill="#F9A873"/>
<path fill-rule="evenodd" clip-rule="evenodd" d="M126.313 362.98C124.291 359.894 122.981 358.347 118.405 347.38C113.829 336.413 121.811 330.352 121.811 330.352C121.625 326.059 122.698 321.806 124.897 318.114C128.515 312.367 130.112 310.877 129.797 312.047C129.482 313.217 129.903 314.708 130.117 313.857C130.331 313.006 137.034 306.833 137.034 306.833C137.034 306.833 137.726 309.919 138.098 309.547C138.47 309.175 139.269 307.578 148.953 304.864C158.637 302.15 166.62 301.778 165.981 302.257C165.342 302.736 162.362 305.449 163.001 305.237C163.64 305.025 171.408 305.237 174.867 304.652C178.326 304.067 179.922 303.322 179.178 303.694C178.434 304.066 175.666 311.094 173.909 312.953C173.368 313.616 172.762 314.222 172.1 314.763C172.1 314.763 172.845 314.071 178.539 316.519C184.233 318.967 186.096 321.467 185.776 321.255C185.456 321.043 175.4 322.267 175.4 322.267C175.4 322.267 178.539 333.867 178.007 337.273C177.475 340.679 175.242 351.565 174.548 351.724L126.313 362.98Z" fill="#651906"/>
<path fill-rule="evenodd" clip-rule="evenodd" d="M143.096 320.504C158.56 317.172 170.568 329.759 174.376 347.432C178.184 365.105 172.349 381.172 156.885 384.504C141.421 387.836 128.792 375.746 124.985 358.073C121.178 340.4 127.632 323.836 143.096 320.504Z" fill="#FBB98C"/>
<path fill-rule="evenodd" clip-rule="evenodd" d="M123.979 346.077C124.453 337.363 127.709 329.744 133.559 325.006C139.445 325.386 157.728 328.712 157.728 328.712C157.728 328.712 163.094 332.794 163.548 332.794C164.002 332.794 162.868 333.474 158.409 334.003C153.95 334.532 141.176 332.945 140.722 332.794C140.268 332.643 146.24 338.916 146.24 338.916C146.24 338.916 144.35 339.445 137.85 337.707C134.813 336.773 132.015 335.192 129.65 333.071C128.684 334.898 127.521 337.223 126.437 339.295C125.37 341.458 124.545 343.733 123.979 346.077Z" fill="#F99D63"/>
<path fill-rule="evenodd" clip-rule="evenodd" d="M125.042 326.015C127.899 328.643 131.642 332.187 141.112 333.784C150.582 335.381 152.18 334.635 152.18 334.635C152.18 334.635 147.072 330.272 148.456 330.697C149.84 331.122 156.863 331.655 162.078 331.761C167.293 331.867 166.978 331.548 166.978 331.548C166.978 331.548 161.019 327.93 162.296 327.93C163.573 327.93 172.087 326.972 172.087 326.972C172.087 326.972 166.659 315.584 155.804 314.521C144.949 313.458 125.042 326.015 125.042 326.015Z" fill="#651906"/>
<path fill-rule="evenodd" clip-rule="evenodd" d="M137.019 349.353C138.452 349.353 139.919 351.287 140.295 353.671C140.671 356.055 139.814 357.989 138.381 357.989C136.948 357.989 135.481 356.055 135.106 353.671C134.731 351.287 135.586 349.353 137.019 349.353Z" fill="#4D0C01"/>
<path fill-rule="evenodd" clip-rule="evenodd" d="M161.605 343.287C163.038 343.287 164.505 345.22 164.881 347.605C165.257 349.99 164.4 351.923 162.967 351.923C161.534 351.923 160.067 349.989 159.691 347.605C159.315 345.221 160.17 343.287 161.605 343.287Z" fill="#4D0C01"/>
<path fill-rule="evenodd" clip-rule="evenodd" d="M148.83 352.157C148.83 353.008 157.451 358.436 157.451 358.436C159.007 360.983 151.041 366.077 149.043 363.651C150.496 363.522 151.888 363.008 153.076 362.161C154.264 361.315 155.204 360.167 155.801 358.835C154.109 357.781 148.668 354.407 148.83 352.157Z" fill="#F79961"/>
<path fill-rule="evenodd" clip-rule="evenodd" d="M70.0926 358.348C71.0296 357.934 75.2626 356.548 76.5866 354.221C77.9106 351.894 75.2536 343.185 74.1486 340.361C73.0436 337.537 68.9606 325.808 67.3826 326.717C65.8046 327.626 70.1606 340.944 69.7766 341.064C69.3926 341.184 60.2056 325.051 57.9056 326.4C55.6056 327.749 66.3456 343.058 65.7926 343.406C65.2396 343.754 56.2926 330.719 54.5226 332.371C52.7526 334.023 62.9826 346.299 61.9506 346.26C60.9186 346.221 52.5636 337.24 51.1996 339.06C49.8356 340.88 60.3166 349.76 60.3166 349.76C60.3166 349.76 63.9006 354.93 66.7716 356.982C69.6426 359.034 70.0926 358.348 70.0926 358.348Z" fill="#F9A873"/>
<path fill-rule="evenodd" clip-rule="evenodd" d="M62.1015 348.064C62.1015 348.064 62.2565 350.052 65.9745 352.773C67.4302 353.826 68.9793 354.743 70.6025 355.513C71.5879 355.993 72.6014 356.412 73.6375 356.769C72.4894 357.365 71.3074 357.892 70.0975 358.348C70.0975 358.348 69.8975 358.653 68.9135 358.248C68.1536 357.908 67.4347 357.483 66.7705 356.98C63.8985 354.928 60.3155 349.758 60.3155 349.758C60.3155 349.758 49.8355 340.871 51.1985 339.058C51.2456 338.996 51.3048 338.943 51.3725 338.903C52.7469 341.075 54.4184 343.043 56.3385 344.751C58.0834 346.137 60.0259 347.254 62.1015 348.064Z" fill="#F9A873"/>
<path d="M66.059 289L19 333.722L50.1648 366.515L97.2239 321.793L66.059 289Z" fill="#F98419"/>
<path d="M65.9893 300.331L62.8584 303.187L81.3945 323.505L84.5254 320.649L65.9893 300.331Z" fill="white"/>
<path fill-rule="evenodd" clip-rule="evenodd" d="M75.5154 355.486C75.6324 354.914 76.6334 354.737 76.8734 353.343C77.3292 349.851 77.5697 346.334 77.5934 342.812C77.6074 342.056 75.8384 333.117 75.0384 334.326C72.9284 337.515 75.5744 341.743 73.2874 346.585C70.7244 352.007 71.9894 356.765 75.5154 355.486Z" fill="#F9A873"/>
<path fill-rule="evenodd" clip-rule="evenodd" d="M123.136 354.461C126.008 354.461 128.864 357.541 129.514 361.339C130.164 365.137 128.364 368.217 125.492 368.217C122.62 368.217 119.764 365.137 119.113 361.339C118.462 357.541 120.264 354.461 123.136 354.461Z" fill="#FBB98C"/>
<path fill-rule="evenodd" clip-rule="evenodd" d="M175.75 341.231C178.622 341.231 181.132 344.311 181.356 348.109C181.58 351.907 179.434 354.987 176.562 354.987C173.69 354.987 171.179 351.907 170.955 348.109C170.731 344.311 172.877 341.231 175.75 341.231Z" fill="#FBB98C"/>
<path fill-rule="evenodd" clip-rule="evenodd" d="M94.0065 591.746C92.0415 586.455 94.6485 575.646 96.1225 571.754C97.094 569.333 98.2159 566.975 99.4815 564.693C99.2015 564.846 98.9815 564.961 98.8445 565.031C97.3325 565.787 92.7975 571.38 91.5885 580.752C90.4625 589.481 91.6305 595.979 96.3135 595.122C95.2035 594.272 94.395 593.089 94.0065 591.746Z" fill="#E2CAB6"/>
<path fill-rule="evenodd" clip-rule="evenodd" d="M98.8214 573.237C98.6209 573.237 98.4286 573.158 98.2869 573.016C98.1451 572.874 98.0654 572.682 98.0654 572.481C98.0654 572.281 98.1451 572.089 98.2869 571.947C98.4286 571.805 98.6209 571.725 98.8214 571.725C99.8786 571.982 100.917 572.31 101.929 572.707C102.673 572.983 103.39 573.328 104.068 573.738C104.921 574.268 105.697 574.911 106.375 575.65C106.496 575.805 106.552 576.001 106.53 576.196C106.508 576.391 106.411 576.57 106.26 576.695C106.108 576.82 105.914 576.88 105.718 576.864C105.522 576.847 105.341 576.755 105.212 576.606C104.632 575.987 103.972 575.449 103.248 575.006C102.655 574.653 102.03 574.355 101.381 574.117C100.09 573.609 98.8714 573.237 98.8214 573.237Z" fill="#F98300"/>
<path fill-rule="evenodd" clip-rule="evenodd" d="M105.52 578.53C105.676 578.655 105.777 578.836 105.8 579.035C105.822 579.234 105.765 579.434 105.641 579.59C105.516 579.747 105.334 579.848 105.136 579.87C104.937 579.893 104.737 579.836 104.581 579.711C103.552 578.883 102.417 578.197 101.207 577.67C99.9747 577.154 98.6971 576.754 97.3906 576.476C97.2941 576.455 97.2028 576.414 97.122 576.357C97.0411 576.3 96.9723 576.228 96.9194 576.144C96.8665 576.06 96.8306 575.967 96.8138 575.87C96.7969 575.772 96.7994 575.672 96.8211 575.576C96.8429 575.479 96.8834 575.388 96.9404 575.307C96.9974 575.226 97.0698 575.157 97.1534 575.105C97.2371 575.052 97.3303 575.016 97.4278 574.999C97.5253 574.982 97.6251 574.985 97.7216 575.006C99.1192 575.305 100.486 575.734 101.803 576.288C103.136 576.866 104.386 577.62 105.52 578.53Z" fill="#F98300"/>
<path fill-rule="evenodd" clip-rule="evenodd" d="M104.395 581.664C104.515 581.816 104.571 582.007 104.554 582.199C104.537 582.391 104.447 582.569 104.303 582.696C104.159 582.824 103.971 582.892 103.779 582.886C103.586 582.88 103.403 582.801 103.267 582.664C102.361 581.962 101.357 581.395 100.287 580.98C99.2973 580.48 98.2379 580.13 97.1444 579.943C96.9447 579.949 96.751 579.875 96.6058 579.738C96.4607 579.6 96.376 579.411 96.3704 579.211C96.3648 579.012 96.4388 578.818 96.5761 578.673C96.7134 578.528 96.9027 578.443 97.1024 578.437C98.4229 578.609 99.7051 579.001 100.895 579.598C102.165 580.097 103.346 580.794 104.395 581.664Z" fill="#F98300"/>
<path fill-rule="evenodd" clip-rule="evenodd" d="M194.294 569.952C194.239 569.989 194.177 570.014 194.112 570.026C194.048 570.039 193.981 570.039 193.917 570.025C193.852 570.012 193.79 569.986 193.736 569.95C193.681 569.913 193.634 569.865 193.598 569.81C193.562 569.755 193.536 569.694 193.524 569.629C193.511 569.564 193.512 569.498 193.525 569.433C193.538 569.368 193.564 569.307 193.601 569.252C193.638 569.198 193.685 569.151 193.74 569.114C193.84 569.045 193.94 568.985 194.04 568.934L194.07 568.919C194.777 568.547 195.572 568.375 196.37 568.419C196.744 568.42 197.113 568.507 197.448 568.674C197.783 568.841 198.075 569.082 198.301 569.38C198.333 569.429 198.36 569.473 198.381 569.511C198.412 569.569 198.432 569.633 198.439 569.699C198.446 569.765 198.44 569.831 198.421 569.895C198.402 569.958 198.371 570.017 198.329 570.069C198.287 570.12 198.236 570.163 198.178 570.194C198.12 570.226 198.056 570.246 197.99 570.252C197.924 570.259 197.858 570.253 197.794 570.234C197.731 570.215 197.672 570.184 197.62 570.143C197.569 570.101 197.526 570.049 197.495 569.991L197.463 569.936C197.321 569.77 197.143 569.638 196.943 569.549C196.743 569.46 196.526 569.417 196.307 569.423C195.697 569.391 195.089 569.524 194.548 569.808L194.523 569.821C194.435 569.864 194.361 569.908 194.294 569.952Z" fill="#F98300"/>
<path fill-rule="evenodd" clip-rule="evenodd" d="M202.107 582.692C192.157 581.154 188.33 571.542 184.447 565.309L183.047 566.994C185.27 571.317 187.743 575.507 190.454 579.541C193.477 583.622 204.286 587.477 205.646 583.32C205.749 583.003 205.8 582.67 205.796 582.336C204.61 582.736 203.348 582.858 202.107 582.692Z" fill="#E2CAB6"/>
<path fill-rule="evenodd" clip-rule="evenodd" d="M196.07 573.127C196.015 573.164 195.953 573.189 195.889 573.202C195.824 573.214 195.757 573.214 195.693 573.201C195.628 573.188 195.566 573.162 195.512 573.125C195.457 573.088 195.41 573.041 195.374 572.986C195.337 572.931 195.312 572.869 195.299 572.804C195.287 572.74 195.287 572.673 195.3 572.608C195.313 572.544 195.339 572.482 195.376 572.427C195.413 572.373 195.46 572.326 195.515 572.289C195.615 572.22 195.715 572.16 195.815 572.109L195.845 572.094C196.552 571.722 197.347 571.55 198.145 571.594C198.519 571.595 198.888 571.682 199.223 571.849C199.558 572.016 199.85 572.257 200.076 572.555C200.108 572.604 200.135 572.648 200.156 572.686C200.22 572.804 200.234 572.942 200.196 573.07C200.158 573.198 200.071 573.306 199.954 573.37C199.836 573.434 199.698 573.448 199.57 573.41C199.442 573.372 199.334 573.285 199.27 573.167L199.238 573.111C199.096 572.945 198.918 572.813 198.718 572.724C198.518 572.635 198.301 572.592 198.082 572.598C197.472 572.566 196.864 572.699 196.323 572.983L196.298 572.997C196.211 573.039 196.137 573.083 196.07 573.127Z" fill="#F98300"/>
<path fill-rule="evenodd" clip-rule="evenodd" d="M198.376 576.036C198.321 576.073 198.259 576.098 198.194 576.111C198.13 576.123 198.063 576.123 197.998 576.11C197.934 576.097 197.872 576.071 197.817 576.034C197.763 575.997 197.716 575.95 197.679 575.895C197.643 575.84 197.618 575.778 197.605 575.713C197.592 575.649 197.593 575.582 197.606 575.517C197.619 575.453 197.645 575.391 197.682 575.336C197.718 575.282 197.766 575.235 197.821 575.198C197.921 575.129 198.021 575.069 198.121 575.018L198.151 575.003C198.858 574.632 199.653 574.459 200.451 574.503C200.825 574.504 201.194 574.592 201.529 574.758C201.864 574.925 202.156 575.167 202.383 575.464C202.412 575.507 202.438 575.551 202.462 575.596C202.525 575.714 202.54 575.851 202.502 575.979C202.463 576.107 202.376 576.215 202.259 576.278C202.141 576.342 202.004 576.356 201.876 576.318C201.748 576.28 201.64 576.193 201.577 576.075L201.544 576.02C201.402 575.854 201.224 575.721 201.025 575.633C200.825 575.544 200.607 575.501 200.389 575.507C199.778 575.475 199.171 575.608 198.63 575.892L198.605 575.906C198.517 575.948 198.442 575.993 198.376 576.036Z" fill="#F98300"/>
<path fill-rule="evenodd" clip-rule="evenodd" d="M137.554 389.215C137.554 389.215 135.736 422.043 136.34 431.715C136.944 441.387 139.578 445.934 141.09 443.515C142.602 441.096 148.69 392.747 148.22 389.515C147.75 386.283 137.479 387.023 137.554 389.215Z" fill="#72513E"/>
<path fill-rule="evenodd" clip-rule="evenodd" d="M180.291 385.581C180.291 385.581 191.291 415.381 192.491 425.058C193.691 434.735 191.902 439.277 189.94 436.858C187.978 434.439 178.484 392.932 170.64 385.418C169.752 383.045 179.127 381.574 180.291 385.581Z" fill="#72513E"/>
<path fill-rule="evenodd" clip-rule="evenodd" d="M142.498 346.014C139.798 346.266 132.754 347.472 130.847 348.305C128.94 349.138 128.675 345.989 130.405 345.405C132.135 344.821 138.783 343.277 141.139 342.916C143.495 342.555 143.242 346.166 142.498 346.014Z" fill="#651906"/>
<path fill-rule="evenodd" clip-rule="evenodd" d="M155.815 343.107C158.247 341.898 164.867 339.217 166.927 338.921C168.987 338.625 167.554 335.808 165.774 336.221C163.994 336.634 157.532 338.821 155.338 339.756C153.144 340.691 155.261 343.627 155.815 343.107Z" fill="#651906"/>
<path fill-rule="evenodd" clip-rule="evenodd" d="M127.078 323.461C126.269 318.736 136.07 311.128 140.153 312.653C134.923 315.048 130.414 318.775 127.078 323.461Z" fill="#5A1404"/>
<path fill-rule="evenodd" clip-rule="evenodd" d="M133.956 320.438C146.287 312.051 145.917 313.998 160.334 315.676C149.731 318.644 151.531 313.358 133.956 320.438Z" fill="#5A1404"/>
<path fill-rule="evenodd" clip-rule="evenodd" d="M144.311 309.631C158.111 305.758 165.252 317.131 171.445 310.765C171.965 311.876 169.599 312.938 168.952 313.176C160.82 316.144 156.953 309.625 144.311 309.631Z" fill="#7E290F"/>
<path fill-rule="evenodd" clip-rule="evenodd" d="M150.131 306.304C154.413 304.166 154.816 303.71 159.503 304.792C155.369 306.352 154.543 307.128 150.131 306.304Z" fill="#5A1404"/>
<path fill-rule="evenodd" clip-rule="evenodd" d="M132.444 324.971C135.681 327.694 142.661 330.524 146.806 330.943C147.021 333.243 132.891 330.553 132.444 324.971Z" fill="#7E290F"/>
<path fill-rule="evenodd" clip-rule="evenodd" d="M138.793 322.176C142.688 324.54 154.916 326.829 159.653 326.862C156.012 330.01 138.77 325.664 138.793 322.176Z" fill="#5A1404"/>
<path fill-rule="evenodd" clip-rule="evenodd" d="M143.475 320.439C163.222 316.364 166.258 318.983 175.068 334.799C161.223 319.87 167.358 320.617 143.475 320.439Z" fill="#7E290F"/>
<path fill-rule="evenodd" clip-rule="evenodd" d="M163.433 317.263C168.854 318.889 176.074 318.419 179.683 319.531C176.378 321.884 163.422 320.073 163.433 317.263Z" fill="#5A1404"/>
<path fill-rule="evenodd" clip-rule="evenodd" d="M158.369 306.607C163.469 307.298 170.629 308.418 175.678 306.833C172.684 312.349 161.999 308.483 158.369 306.607Z" fill="#5A1404"/>
<path fill-rule="evenodd" clip-rule="evenodd" d="M125.529 331.548C123.816 336.704 121.364 341.562 121.92 347.07L121.859 347.056L121.902 347.08C121.902 347.18 121.916 347.14 121.886 347.216C121.869 347.228 121.848 347.234 121.827 347.234C121.806 347.234 121.785 347.228 121.768 347.216C117.163 343.856 123.78 333.956 125.529 331.548Z" fill="#7E290F"/>
<path fill-rule="evenodd" clip-rule="evenodd" d="M120.653 334.61C120.039 337.558 119.082 340.41 118.716 343.41L118.667 343.322C118.706 343.514 118.702 343.408 118.65 343.64C117.426 343.794 116.027 337.149 120.653 334.61Z" fill="#5A1404"/>
<path fill-rule="evenodd" clip-rule="evenodd" d="M125.756 326.182C131.77 327.224 129.146 326.039 133.73 329.508C128.017 328.588 130.696 329.645 125.756 326.182Z" fill="#331907"/>
<path fill-rule="evenodd" clip-rule="evenodd" d="M70.5991 355.512C68.976 354.742 67.4268 353.825 65.9711 352.772C65.7045 352.576 65.4538 352.383 65.2191 352.194L63.4941 353.834C64.468 355 65.5658 356.057 66.7681 356.985C67.5485 357.613 68.4348 358.096 69.3851 358.411C69.9611 358.55 70.0951 358.348 70.0951 358.348C70.3901 358.217 71.0121 357.991 71.7671 357.668C71.5671 357.306 71.3901 356.984 71.2381 356.706C70.8261 355.945 70.5991 355.512 70.5991 355.512Z" fill="#F59A60"/>
<path fill-rule="evenodd" clip-rule="evenodd" d="M71.7677 357.669C71.0127 357.992 70.3907 358.218 70.0957 358.349C70.0957 358.349 69.9617 358.549 69.3857 358.412C80.3377 378.831 91.3357 391.579 106.275 400.174C106.475 400.291 106.678 400.403 106.885 400.511L107.59 395.411C107.59 395.411 94.0117 387.176 85.8487 378.182C79.6677 371.372 74.1047 361.877 71.7677 357.669Z" fill="#F59A60"/>
<path fill-rule="evenodd" clip-rule="evenodd" d="M122.244 407.142C120.742 406.252 119.345 405.196 118.079 403.992C114.252 400.205 110.918 395.949 108.156 391.325L107.59 395.412L106.885 400.512L105.607 409.74L122.767 412.806L125.307 413.259L127.073 413.575L129.122 413.941L136.422 415.241C136.43 414.993 136.438 414.745 136.446 414.495C136.468 413.829 136.489 413.162 136.511 412.495C136.58 410.507 136.655 408.511 136.733 406.571C136.762 405.861 136.791 405.161 136.821 404.471C136.921 402.161 137.021 399.971 137.111 397.998C137.241 395.273 137.357 392.984 137.438 391.426L136.89 398.191L136.354 404.816L135.967 409.593L135.811 411.521C135.811 411.521 135.377 411.491 134.542 411.347C133 411.067 131.477 410.691 129.982 410.219L129.959 410.212C128.809 409.857 127.501 409.412 126.046 408.839C125.263 408.534 124.437 408.192 123.567 407.813C123.115 407.614 122.673 407.39 122.244 407.142Z" fill="#F27900"/>
<path fill-rule="evenodd" clip-rule="evenodd" d="M140.011 444.136C140.42 450.451 140.828 457.042 141.162 463.036C141.262 464.836 141.356 466.58 141.441 468.248C141.734 474.003 141.925 478.837 141.931 481.779C141.931 483.394 143.643 484.479 146.488 485.115C157.515 487.577 185.621 483.277 197.808 476.772C198.396 476.458 198.945 476.14 199.457 475.816C198.678 475.777 197.857 475.722 196.992 475.651C187.261 474.835 177.75 472.314 168.892 468.203C168.604 468.07 168.32 467.937 168.039 467.803C167.074 467.343 166.148 466.88 165.26 466.414C147.528 457.147 144.484 447.269 144.201 444.998C143.925 442.798 147.125 404.253 147.701 397.371C147.758 396.694 147.789 396.324 147.789 396.324C147.755 396.667 147.722 397.019 147.689 397.381C146.213 412 142.273 441.638 141.098 443.519C140.77 444.03 140.4 444.23 140.011 444.136Z" fill="#F27900"/>
<path fill-rule="evenodd" clip-rule="evenodd" d="M123.679 356.83C119.846 356.83 119.963 363.758 124.209 365.597C126.477 366.58 126.816 364.577 126.4 363.934C125.984 363.291 124.926 363.594 124.209 362.195C123.492 360.796 124.642 361.179 124.809 359.626C124.822 359.108 124.729 358.592 124.534 358.111C124.34 357.63 124.049 357.194 123.679 356.83Z" fill="#F39157"/>
<path fill-rule="evenodd" clip-rule="evenodd" d="M174.523 343.539C177.762 341.489 181.368 347.406 178.763 351.23C177.372 353.272 176.014 351.763 176.022 350.997C176.03 350.231 177.085 349.921 176.945 348.356C176.805 346.791 176.034 347.728 175.06 346.507C174.772 346.076 174.576 345.59 174.483 345.079C174.391 344.569 174.405 344.044 174.523 343.539Z" fill="#F39157"/>
<path fill-rule="evenodd" clip-rule="evenodd" d="M123.415 347.494C123.415 347.494 128.554 361.1 127.987 361.212C127.42 361.324 122.923 353.201 122.923 353.201L123.415 347.494Z" fill="#651906"/>
<path fill-rule="evenodd" clip-rule="evenodd" d="M171.22 335.982C171.22 335.982 172.575 350.462 173.134 350.315C173.693 350.168 174.166 340.893 174.166 340.893L171.22 335.982Z" fill="#651906"/>
<path fill-rule="evenodd" clip-rule="evenodd" d="M143.065 531.499C146.239 527.569 156.365 493.407 156.365 493.407C156.365 493.407 164.68 492.651 182.517 486C188.172 483.915 193.569 481.187 198.601 477.87L197.801 476.77C185.615 483.275 157.508 487.575 146.481 485.113C141.634 502.201 135.542 525.113 135.542 525.113L103.042 561.888C103.042 561.888 103.097 562.155 103.203 562.596C103.526 563.959 103.94 565.298 104.445 566.604C106.345 564.924 108.89 562.675 111.769 560.121C123.564 549.66 140.987 534.072 143.065 531.499Z" fill="#3D1B07"/>
<path fill-rule="evenodd" clip-rule="evenodd" d="M171.854 498.627C173.909 498.399 205.7 518.65 205.7 518.65C205.7 518.65 188.439 558.55 188.225 560.582C188.211 560.727 188.219 560.872 188.249 561.014C188.458 562.052 189.731 563.203 191.417 563.914L193.33 559.014L208.671 519.714L218.496 518.202L211.844 513.514L178.884 493.514L171.854 498.627Z" fill="#3D1B07"/>
<path fill-rule="evenodd" clip-rule="evenodd" d="M149.328 382.047C140.428 381.415 132.904 375.734 128.091 367.147C128.052 367.185 128.012 367.222 127.972 367.259C132.506 377.332 140.398 384.18 149.928 384.977C152.257 385.165 154.601 385.005 156.884 384.503C159.05 384.047 161.141 383.283 163.092 382.235C172.067 377.371 176.176 366.9 175.412 354.819C175.341 354.799 175.27 354.776 175.199 354.751C175.18 365.839 170.764 375.221 161.956 379.577C160.122 380.477 158.181 381.141 156.181 381.554C153.931 382.038 151.624 382.204 149.328 382.047Z" fill="#FAAD79"/>
<path fill-rule="evenodd" clip-rule="evenodd" d="M162.807 363.861C163.061 364.333 163.277 364.824 163.452 365.329C163.878 366.497 164.067 367.738 164.01 368.979C163.954 370.221 163.652 371.439 163.122 372.563C162.592 373.688 161.845 374.696 160.923 375.53C160.001 376.364 158.924 377.007 157.752 377.422C155.356 378.196 152.751 377.991 150.504 376.852C148.258 375.714 146.552 373.734 145.759 371.343C145.585 370.838 145.451 370.32 145.359 369.793L162.807 363.861Z" fill="#891207"/>
<path fill-rule="evenodd" clip-rule="evenodd" d="M147.015 369.23L147.579 370.801C147.688 371.105 147.913 371.352 148.205 371.49C148.497 371.627 148.831 371.644 149.135 371.535L161.403 367.135C161.706 367.026 161.953 366.801 162.091 366.509C162.229 366.217 162.245 365.883 162.137 365.579L161.661 364.251L147.015 369.23Z" fill="white"/>
<g style="mix-blend-mode:multiply">
<path fill-rule="evenodd" clip-rule="evenodd" d="M306.714 611.433C270.17 611.433 238.895 613.598 226.023 616.663C213.15 613.598 181.876 611.433 145.332 611.433C97.3003 611.433 58.3623 615.171 58.3623 619.782C58.3623 624.393 97.3003 628.13 145.332 628.13C181.876 628.13 213.15 625.966 226.023 622.901C238.895 625.966 270.17 628.13 306.714 628.13C354.745 628.13 393.683 624.393 393.683 619.782C393.683 615.171 354.744 611.433 306.714 611.433Z" fill="#E6E6E6"/>
</g>
<path d="M79.682 105.234V129H77.302V105.234H79.682ZM93.7756 110.096C95.9969 110.096 97.8102 110.787 99.2156 112.17C100.621 113.53 101.324 115.513 101.324 118.12V129H98.9776V118.392C98.9776 116.375 98.4676 114.833 97.4476 113.768C96.4502 112.703 95.0789 112.17 93.3336 112.17C91.5429 112.17 90.1149 112.737 89.0496 113.87C87.9842 115.003 87.4516 116.669 87.4516 118.868V129H85.0716V110.436H87.4516V113.598C88.0409 112.465 88.8909 111.603 90.0016 111.014C91.1122 110.402 92.3702 110.096 93.7756 110.096ZM105.499 119.718C105.499 117.791 105.885 116.114 106.655 114.686C107.426 113.235 108.491 112.125 109.851 111.354C111.211 110.561 112.764 110.164 114.509 110.164C116.799 110.164 118.68 110.731 120.153 111.864C121.649 112.997 122.613 114.539 123.043 116.488H120.493C120.176 115.151 119.485 114.108 118.419 113.36C117.377 112.589 116.073 112.204 114.509 112.204C113.263 112.204 112.141 112.487 111.143 113.054C110.146 113.621 109.353 114.471 108.763 115.604C108.197 116.715 107.913 118.086 107.913 119.718C107.913 121.35 108.197 122.733 108.763 123.866C109.353 124.999 110.146 125.849 111.143 126.416C112.141 126.983 113.263 127.266 114.509 127.266C116.073 127.266 117.377 126.892 118.419 126.144C119.485 125.373 120.176 124.308 120.493 122.948H123.043C122.613 124.852 121.649 126.382 120.153 127.538C118.657 128.694 116.776 129.272 114.509 129.272C112.764 129.272 111.211 128.887 109.851 128.116C108.491 127.323 107.426 126.212 106.655 124.784C105.885 123.333 105.499 121.645 105.499 119.718ZM129.819 103.84V129H127.439V103.84H129.819ZM151.29 110.436V129H148.91V125.736C148.366 126.892 147.528 127.776 146.394 128.388C145.261 129 143.992 129.306 142.586 129.306C140.365 129.306 138.552 128.626 137.146 127.266C135.741 125.883 135.038 123.889 135.038 121.282V110.436H137.384V121.01C137.384 123.027 137.883 124.569 138.88 125.634C139.9 126.699 141.283 127.232 143.028 127.232C144.819 127.232 146.247 126.665 147.312 125.532C148.378 124.399 148.91 122.733 148.91 120.534V110.436H151.29ZM163.116 129.272C160.985 129.272 159.24 128.785 157.88 127.81C156.543 126.813 155.795 125.464 155.636 123.764H158.084C158.197 124.807 158.685 125.657 159.546 126.314C160.43 126.949 161.609 127.266 163.082 127.266C164.374 127.266 165.383 126.96 166.108 126.348C166.856 125.736 167.23 124.977 167.23 124.07C167.23 123.435 167.026 122.914 166.618 122.506C166.21 122.098 165.689 121.781 165.054 121.554C164.442 121.305 163.603 121.044 162.538 120.772C161.155 120.409 160.033 120.047 159.172 119.684C158.311 119.321 157.574 118.789 156.962 118.086C156.373 117.361 156.078 116.397 156.078 115.196C156.078 114.289 156.35 113.451 156.894 112.68C157.438 111.909 158.209 111.297 159.206 110.844C160.203 110.391 161.337 110.164 162.606 110.164C164.601 110.164 166.21 110.674 167.434 111.694C168.658 112.691 169.315 114.074 169.406 115.842H167.026C166.958 114.754 166.527 113.881 165.734 113.224C164.963 112.544 163.898 112.204 162.538 112.204C161.337 112.204 160.362 112.487 159.614 113.054C158.866 113.621 158.492 114.323 158.492 115.162C158.492 115.887 158.707 116.488 159.138 116.964C159.591 117.417 160.147 117.78 160.804 118.052C161.461 118.301 162.345 118.585 163.456 118.902C164.793 119.265 165.859 119.616 166.652 119.956C167.445 120.296 168.125 120.795 168.692 121.452C169.259 122.109 169.553 122.982 169.576 124.07C169.576 125.067 169.304 125.963 168.76 126.756C168.216 127.527 167.457 128.139 166.482 128.592C165.507 129.045 164.385 129.272 163.116 129.272ZM175.246 106.934C174.77 106.934 174.362 106.764 174.022 106.424C173.682 106.084 173.512 105.665 173.512 105.166C173.512 104.667 173.682 104.259 174.022 103.942C174.362 103.602 174.77 103.432 175.246 103.432C175.722 103.432 176.13 103.602 176.47 103.942C176.81 104.259 176.98 104.667 176.98 105.166C176.98 105.665 176.81 106.084 176.47 106.424C176.13 106.764 175.722 106.934 175.246 106.934ZM176.436 110.436V129H174.056V110.436H176.436ZM188.421 126.688L194.677 110.436H197.193L189.747 129H187.061L179.615 110.436H182.165L188.421 126.688ZM217.215 118.766C217.215 119.582 217.193 120.205 217.147 120.636H201.745C201.813 122.041 202.153 123.243 202.765 124.24C203.377 125.237 204.182 125.997 205.179 126.518C206.177 127.017 207.265 127.266 208.443 127.266C209.985 127.266 211.277 126.892 212.319 126.144C213.385 125.396 214.087 124.387 214.427 123.118H216.943C216.49 124.931 215.515 126.416 214.019 127.572C212.546 128.705 210.687 129.272 208.443 129.272C206.698 129.272 205.134 128.887 203.751 128.116C202.369 127.323 201.281 126.212 200.487 124.784C199.717 123.333 199.331 121.645 199.331 119.718C199.331 117.791 199.717 116.103 200.487 114.652C201.258 113.201 202.335 112.091 203.717 111.32C205.1 110.549 206.675 110.164 208.443 110.164C210.211 110.164 211.753 110.549 213.067 111.32C214.405 112.091 215.425 113.133 216.127 114.448C216.853 115.74 217.215 117.179 217.215 118.766ZM214.801 118.698C214.824 117.315 214.541 116.137 213.951 115.162C213.385 114.187 212.603 113.451 211.605 112.952C210.608 112.453 209.52 112.204 208.341 112.204C206.573 112.204 205.066 112.771 203.819 113.904C202.573 115.037 201.881 116.635 201.745 118.698H214.801ZM238.21 112.442H233.892V129H231.512V112.442H228.928V110.436H231.512V109.144C231.512 107.127 232.022 105.642 233.042 104.69C234.084 103.738 235.762 103.262 238.074 103.262V105.302C236.532 105.302 235.444 105.597 234.81 106.186C234.198 106.775 233.892 107.761 233.892 109.144V110.436H238.21V112.442ZM250.082 129.272C248.337 129.272 246.762 128.887 245.356 128.116C243.974 127.323 242.874 126.212 242.058 124.784C241.265 123.333 240.868 121.645 240.868 119.718C240.868 117.791 241.276 116.114 242.092 114.686C242.908 113.235 244.019 112.125 245.424 111.354C246.83 110.561 248.405 110.164 250.15 110.164C251.896 110.164 253.471 110.561 254.876 111.354C256.304 112.125 257.415 113.235 258.208 114.686C259.024 116.114 259.432 117.791 259.432 119.718C259.432 121.622 259.024 123.299 258.208 124.75C257.392 126.201 256.27 127.323 254.842 128.116C253.414 128.887 251.828 129.272 250.082 129.272ZM250.082 127.198C251.306 127.198 252.44 126.926 253.482 126.382C254.525 125.815 255.364 124.977 255.998 123.866C256.656 122.733 256.984 121.35 256.984 119.718C256.984 118.086 256.667 116.715 256.032 115.604C255.398 114.471 254.559 113.632 253.516 113.088C252.474 112.521 251.34 112.238 250.116 112.238C248.892 112.238 247.759 112.521 246.716 113.088C245.674 113.632 244.835 114.471 244.2 115.604C243.588 116.715 243.282 118.086 243.282 119.718C243.282 121.35 243.588 122.733 244.2 123.866C244.835 124.977 245.662 125.815 246.682 126.382C247.725 126.926 248.858 127.198 250.082 127.198ZM266.151 113.734C266.672 112.578 267.465 111.683 268.531 111.048C269.619 110.413 270.945 110.096 272.509 110.096V112.578H271.863C270.14 112.578 268.757 113.043 267.715 113.972C266.672 114.901 266.151 116.454 266.151 118.63V129H263.771V110.436H266.151V113.734ZM299.189 123.356H288.377L286.303 129H283.787L292.457 105.54H295.143L303.779 129H301.263L299.189 123.356ZM298.475 121.384L293.783 108.532L289.091 121.384H298.475ZM309.979 103.84V129H307.599V103.84H309.979ZM317.748 103.84V129H315.368V103.84H317.748Z" fill="black"/>
<path d="M206 828C231.405 828 252 807.405 252 782C252 756.595 231.405 736 206 736C180.595 736 160 756.595 160 782C160 807.405 180.595 828 206 828Z" fill="#1B7BAB"/>
<path d="M203.759 772.896L211.439 780.574C211.594 780.729 211.717 780.912 211.801 781.115C211.885 781.317 211.928 781.534 211.928 781.753C211.928 781.972 211.885 782.189 211.801 782.392C211.717 782.594 211.594 782.778 211.439 782.932L203.759 790.612C203.444 790.914 203.023 791.079 202.587 791.074C202.151 791.069 201.734 790.894 201.426 790.585C201.118 790.277 200.943 789.86 200.938 789.424C200.933 788.988 201.099 788.568 201.4 788.253L207.892 781.761L201.4 775.269C201.098 774.954 200.93 774.532 200.934 774.095C200.937 773.658 201.112 773.24 201.42 772.929C201.728 772.619 202.145 772.442 202.582 772.435C203.019 772.428 203.442 772.592 203.759 772.893V772.896Z" fill="white"/>
</svg>
