<svg width="412" height="917" viewBox="0 0 412 917" fill="none" xmlns="http://www.w3.org/2000/svg">
<g clip-path="url(#clip0_36_2058)">
<rect width="412" height="917" fill="#1B7BAB"/>
<path opacity="0.05" d="M454.956 314.165C428.675 268.63 370.795 259.1 318.346 262.983C290.653 205.743 250.734 169 205.508 169C160.282 169 120.364 205.743 92.6701 262.983C39.8041 259.07 -17.7969 268.8 -43.9399 314.165C-70.1929 359.565 -49.6199 414.81 -20.0819 458.2C-49.6079 501.572 -70.2009 556.825 -43.9399 602.235C-17.6809 647.766 39.9891 657.315 92.6701 653.417C120.364 710.658 160.287 747.4 205.508 747.4C250.729 747.4 290.653 710.657 318.346 653.417C370.779 657.299 428.607 647.923 454.956 602.235C481.21 556.835 460.636 501.59 431.098 458.2C460.624 414.829 481.216 359.575 454.956 314.165ZM310.969 344.34C280.135 323.925 270.099 319.84 251.069 310.367C266.283 305.858 281.78 302.365 297.457 299.911C302.879 314.426 307.391 329.264 310.969 344.34ZM205.508 202.891C234.814 202.891 261.966 228.369 282.929 267.723C257.808 272.33 231.807 280.17 205.508 290.291C179.208 280.17 153.208 272.33 128.087 267.723C149.05 228.369 176.202 202.891 205.508 202.891ZM113.554 299.911C129.231 302.365 144.728 305.858 159.942 310.367C139.096 320.748 130.32 324.296 100.042 344.34C103.621 329.265 108.134 314.426 113.554 299.911ZM-14.6129 585.291C-28.3899 561.453 -22.2129 525.791 1.84414 486.749C19.2921 507.044 38.5736 525.687 59.4441 542.442C63.4536 568.939 69.9017 595.008 78.7061 620.319C33.0671 621.533 -0.857861 609.083 -14.6099 585.291H-14.6129ZM54.0872 492.037C42.9576 481.439 32.5208 470.137 22.8411 458.2C32.5214 446.264 42.9583 434.962 54.0872 424.364C52.6451 446.899 52.6451 469.502 54.0872 492.037ZM59.4371 373.96C38.5666 390.715 19.285 409.358 1.83714 429.653C-22.2129 390.613 -28.3929 354.948 -14.6129 331.11C2.38114 301.725 44.7871 295.063 78.7281 296.01C69.907 321.343 63.4491 347.437 59.4371 373.96ZM100.046 572.06C130.88 592.475 140.916 596.56 159.946 606.033C144.732 610.541 129.235 614.034 113.558 616.489C108.138 601.974 103.625 587.136 100.046 572.061V572.06ZM205.508 713.51C176.202 713.51 149.05 688.032 128.087 648.678C153.207 644.071 179.209 636.231 205.508 626.11C231.808 636.231 257.808 644.071 282.929 648.678C261.967 688.032 234.815 713.51 205.508 713.51ZM297.463 616.49C281.786 614.035 266.289 610.542 251.075 606.034C271.921 595.653 280.697 592.105 310.975 572.061C307.396 587.136 302.884 601.975 297.463 616.49ZM319.815 523.714C281.145 553.278 250.304 571.093 205.509 589.788C160.765 571.114 129.918 553.313 91.2031 523.714C85.4598 480.226 85.4598 436.172 91.2031 392.684C129.937 363.071 160.803 345.27 205.509 326.612C250.145 345.242 281.024 363.029 319.815 392.684C325.559 436.172 325.559 480.227 319.815 523.715V523.714ZM425.632 331.114C439.409 354.952 433.232 390.614 409.175 429.656C391.727 409.361 372.446 390.718 351.575 373.963C347.565 347.439 341.108 321.342 332.287 296.008C366.213 295.063 408.633 301.716 425.632 331.11V331.114ZM356.932 424.368C368.06 434.964 378.496 446.265 388.175 458.2C378.496 470.136 368.06 481.438 356.932 492.036C358.375 469.502 358.375 446.898 356.932 424.364V424.368ZM425.632 585.295C411.88 609.083 377.825 621.521 332.316 620.323C341.121 595.012 347.569 568.943 351.578 542.446C372.449 525.691 391.73 507.048 409.178 486.753C433.231 525.792 439.412 561.453 425.635 585.295H425.632Z" fill="#D4F5FF"/>
<path d="M269.578 527.919H256.798V508.749C256.788 500.278 253.419 492.158 247.429 486.168C241.44 480.179 233.319 476.809 224.849 476.799H186.509C178.038 476.809 169.918 480.179 163.928 486.168C157.939 492.158 154.569 500.278 154.559 508.749V527.919H141.779V508.749C141.793 496.89 146.51 485.521 154.895 477.135C163.281 468.75 174.65 464.033 186.509 464.019H224.849C236.707 464.033 248.077 468.75 256.462 477.135C264.848 485.521 269.565 496.89 269.578 508.749V527.919Z" fill="white"/>
<path d="M135.39 374.56C133.695 374.56 132.07 375.233 130.872 376.432C129.673 377.63 129 379.255 129 380.95V438.46H141.78V380.95C141.78 379.255 141.107 377.63 139.908 376.432C138.71 375.233 137.085 374.56 135.39 374.56Z" fill="white"/>
<path d="M129 349V361.78H160.95V406.51C160.95 418.373 165.662 429.75 174.051 438.138C182.439 446.527 193.816 451.239 205.679 451.239C217.542 451.239 228.92 446.527 237.308 438.138C245.696 429.75 250.409 418.373 250.409 406.51V361.78H282.359V349H129ZM173.73 361.78H237.629V380.95H173.73V361.78ZM205.679 438.459C197.206 438.459 189.079 435.093 183.087 429.101C177.096 423.11 173.73 414.983 173.73 406.51V393.73H237.629V406.51C237.629 414.983 234.263 423.11 228.271 429.101C222.279 435.093 214.153 438.459 205.679 438.459Z" fill="white"/>
<path d="M146.697 538.28C147.177 539.16 147.723 540.253 148.337 541.56C148.977 542.84 149.63 544.24 150.297 545.76C150.99 547.253 151.67 548.787 152.337 550.36C153.003 551.933 153.63 553.413 154.217 554.8C154.803 553.413 155.43 551.933 156.097 550.36C156.763 548.787 157.43 547.253 158.097 545.76C158.79 544.24 159.443 542.84 160.057 541.56C160.697 540.253 161.257 539.16 161.737 538.28H167.417C167.683 540.12 167.923 542.187 168.137 544.48C168.377 546.747 168.577 549.12 168.737 551.6C168.923 554.053 169.083 556.52 169.217 559C169.377 561.48 169.51 563.813 169.617 566H163.537C163.457 563.307 163.35 560.373 163.217 557.2C163.083 554.027 162.883 550.827 162.617 547.6C162.137 548.72 161.603 549.96 161.017 551.32C160.43 552.68 159.843 554.04 159.257 555.4C158.697 556.76 158.15 558.067 157.617 559.32C157.083 560.547 156.63 561.6 156.257 562.48H151.897C151.523 561.6 151.07 560.547 150.537 559.32C150.003 558.067 149.443 556.76 148.857 555.4C148.297 554.04 147.723 552.68 147.137 551.32C146.55 549.96 146.017 548.72 145.537 547.6C145.27 550.827 145.07 554.027 144.937 557.2C144.803 560.373 144.697 563.307 144.617 566H138.537C138.643 563.813 138.763 561.48 138.897 559C139.057 556.52 139.217 554.053 139.377 551.6C139.563 549.12 139.763 546.747 139.977 544.48C140.217 542.187 140.47 540.12 140.737 538.28H146.697ZM182.875 561.84C183.462 561.84 184.022 561.827 184.555 561.8C185.088 561.773 185.515 561.733 185.835 561.68V557.16C185.595 557.107 185.235 557.053 184.755 557C184.275 556.947 183.835 556.92 183.435 556.92C182.875 556.92 182.342 556.96 181.835 557.04C181.355 557.093 180.928 557.213 180.555 557.4C180.182 557.587 179.888 557.84 179.675 558.16C179.462 558.48 179.355 558.88 179.355 559.36C179.355 560.293 179.662 560.947 180.275 561.32C180.915 561.667 181.782 561.84 182.875 561.84ZM182.395 544.4C184.155 544.4 185.622 544.6 186.795 545C187.968 545.4 188.902 545.973 189.595 546.72C190.315 547.467 190.822 548.373 191.115 549.44C191.408 550.507 191.555 551.693 191.555 553V565.4C190.702 565.587 189.515 565.8 187.995 566.04C186.475 566.307 184.635 566.44 182.475 566.44C181.115 566.44 179.875 566.32 178.755 566.08C177.662 565.84 176.715 565.453 175.915 564.92C175.115 564.36 174.502 563.64 174.075 562.76C173.648 561.88 173.435 560.8 173.435 559.52C173.435 558.293 173.675 557.253 174.155 556.4C174.662 555.547 175.328 554.867 176.155 554.36C176.982 553.853 177.928 553.493 178.995 553.28C180.062 553.04 181.168 552.92 182.315 552.92C183.088 552.92 183.768 552.96 184.355 553.04C184.968 553.093 185.462 553.173 185.835 553.28V552.72C185.835 551.707 185.528 550.893 184.915 550.28C184.302 549.667 183.235 549.36 181.715 549.36C180.702 549.36 179.702 549.44 178.715 549.6C177.728 549.733 176.875 549.933 176.155 550.2L175.395 545.4C175.742 545.293 176.168 545.187 176.675 545.08C177.208 544.947 177.782 544.84 178.395 544.76C179.008 544.653 179.648 544.573 180.315 544.52C181.008 544.44 181.702 544.4 182.395 544.4ZM209.625 550.24C209.091 550.107 208.465 549.973 207.745 549.84C207.025 549.68 206.251 549.6 205.425 549.6C205.051 549.6 204.598 549.64 204.065 549.72C203.558 549.773 203.171 549.84 202.905 549.92V566H196.945V546.08C198.011 545.707 199.265 545.36 200.705 545.04C202.171 544.693 203.798 544.52 205.585 544.52C205.905 544.52 206.291 544.547 206.745 544.6C207.198 544.627 207.651 544.68 208.105 544.76C208.558 544.813 209.011 544.893 209.465 545C209.918 545.08 210.305 545.187 210.625 545.32L209.625 550.24ZM218.509 554.8C218.509 558.133 219.856 559.8 222.549 559.8C223.162 559.8 223.736 559.72 224.269 559.56C224.802 559.4 225.256 559.213 225.629 559V549.48C225.336 549.427 224.989 549.387 224.589 549.36C224.189 549.307 223.722 549.28 223.189 549.28C221.616 549.28 220.442 549.8 219.669 550.84C218.896 551.88 218.509 553.2 218.509 554.8ZM231.589 563.36C231.589 566.8 230.709 569.347 228.949 571C227.216 572.68 224.522 573.52 220.869 573.52C219.589 573.52 218.309 573.4 217.029 573.16C215.749 572.947 214.562 572.653 213.469 572.28L214.509 567.28C215.442 567.653 216.416 567.947 217.429 568.16C218.469 568.373 219.642 568.48 220.949 568.48C222.656 568.48 223.856 568.107 224.549 567.36C225.269 566.613 225.629 565.653 225.629 564.48V563.72C224.989 564.013 224.322 564.24 223.629 564.4C222.962 564.533 222.229 564.6 221.429 564.6C218.522 564.6 216.296 563.747 214.749 562.04C213.202 560.307 212.429 557.893 212.429 554.8C212.429 553.253 212.669 551.853 213.149 550.6C213.629 549.32 214.322 548.227 215.229 547.32C216.162 546.413 217.296 545.72 218.629 545.24C219.962 544.733 221.469 544.48 223.149 544.48C223.869 544.48 224.602 544.52 225.349 544.6C226.122 544.653 226.882 544.733 227.629 544.84C228.376 544.947 229.082 545.08 229.749 545.24C230.442 545.373 231.056 545.52 231.589 545.68V563.36ZM256.139 566C255.846 565.04 255.512 564.053 255.139 563.04C254.792 562.027 254.446 561.013 254.099 560H243.299C242.952 561.013 242.592 562.027 242.219 563.04C241.872 564.053 241.552 565.04 241.259 566H234.779C235.819 563.013 236.806 560.253 237.739 557.72C238.672 555.187 239.579 552.8 240.459 550.56C241.366 548.32 242.246 546.2 243.099 544.2C243.979 542.173 244.886 540.2 245.819 538.28H251.779C252.686 540.2 253.579 542.173 254.459 544.2C255.339 546.2 256.219 548.32 257.099 550.56C258.006 552.8 258.926 555.187 259.859 557.72C260.792 560.253 261.779 563.013 262.819 566H256.139ZM248.659 544.56C248.526 544.96 248.326 545.507 248.059 546.2C247.792 546.893 247.486 547.693 247.139 548.6C246.792 549.507 246.406 550.507 245.979 551.6C245.579 552.693 245.166 553.84 244.739 555.04H252.619C252.192 553.84 251.779 552.693 251.379 551.6C250.979 550.507 250.592 549.507 250.219 548.6C249.872 547.693 249.566 546.893 249.299 546.2C249.032 545.507 248.819 544.96 248.659 544.56ZM266.407 538.28H272.647V566H266.407V538.28Z" fill="white"/>
</g>
<defs>
<clipPath id="clip0_36_2058">
<rect width="412" height="917" fill="white"/>
</clipPath>
</defs>
</svg>
